G04*
G04 #@! TF.GenerationSoftware,Altium Limited,Altium Designer,19.1.8 (144)*
G04*
G04 Layer_Color=65535*
%FSLAX24Y24*%
%MOIN*%
G70*
G01*
G75*
%ADD10C,0.0098*%
%ADD11C,0.0100*%
%ADD12C,0.0079*%
%ADD13C,0.0059*%
%ADD14C,0.0080*%
%ADD15C,0.0080*%
%ADD16R,0.0089X0.0098*%
G04:AMPARAMS|DCode=17|XSize=8.9mil|YSize=9.8mil|CornerRadius=0mil|HoleSize=0mil|Usage=FLASHONLY|Rotation=45.000|XOffset=0mil|YOffset=0mil|HoleType=Round|Shape=Rectangle|*
%AMROTATEDRECTD17*
4,1,4,0.0003,-0.0066,-0.0066,0.0003,-0.0003,0.0066,0.0066,-0.0003,0.0003,-0.0066,0.0*
%
%ADD17ROTATEDRECTD17*%

%ADD18R,0.0221X0.0364*%
%ADD19R,0.0098X0.0089*%
G36*
X28938Y34744D02*
X28938Y34427D01*
X28847D01*
X28741Y34533D01*
X28741Y34744D01*
X28741Y34956D01*
X28847Y35061D01*
X28938D01*
X28938Y34744D01*
D02*
G37*
G36*
X27363D02*
X27363Y34427D01*
X27272D01*
X27166Y34533D01*
X27166Y34744D01*
X27166Y34956D01*
X27272Y35061D01*
X27363D01*
X27363Y34744D01*
D02*
G37*
G36*
X25788D02*
X25788Y34427D01*
X25697D01*
X25591Y34533D01*
X25591Y34744D01*
X25591Y34956D01*
X25697Y35061D01*
X25788D01*
X25788Y34744D01*
D02*
G37*
G36*
X24213D02*
X24213Y34427D01*
X24122D01*
X24017Y34533D01*
X24017Y34744D01*
X24017Y34956D01*
X24122Y35061D01*
X24213D01*
X24213Y34744D01*
D02*
G37*
G36*
X22638D02*
X22638Y34427D01*
X22548D01*
X22442Y34533D01*
X22442Y34744D01*
X22442Y34956D01*
X22548Y35061D01*
X22638D01*
X22638Y34744D01*
D02*
G37*
G36*
X21064D02*
X21064Y34427D01*
X20973D01*
X20867Y34533D01*
X20867Y34744D01*
X20867Y34956D01*
X20973Y35061D01*
X21064D01*
X21064Y34744D01*
D02*
G37*
G36*
X19489D02*
X19489Y34427D01*
X19398D01*
X19292Y34533D01*
X19292Y34744D01*
X19292Y34956D01*
X19398Y35061D01*
X19489D01*
X19489Y34744D01*
D02*
G37*
G36*
X17914D02*
X17914Y34427D01*
X17823D01*
X17717Y34533D01*
X17717Y34744D01*
X17717Y34956D01*
X17823Y35061D01*
X17914D01*
X17914Y34744D01*
D02*
G37*
G36*
X16339D02*
X16339Y34427D01*
X16248D01*
X16143Y34533D01*
X16143Y34744D01*
X16143Y34956D01*
X16248Y35061D01*
X16339D01*
X16339Y34744D01*
D02*
G37*
G36*
X14764D02*
X14764Y34427D01*
X14674D01*
X14568Y34533D01*
X14568Y34744D01*
X14568Y34956D01*
X14674Y35061D01*
X14764D01*
X14764Y34744D01*
D02*
G37*
G36*
X13190D02*
X13190Y34427D01*
X13099D01*
X12993Y34533D01*
X12993Y34744D01*
X12993Y34956D01*
X13099Y35061D01*
X13190D01*
X13190Y34744D01*
D02*
G37*
G36*
X11615D02*
X11615Y34427D01*
X11524D01*
X11418Y34533D01*
X11418Y34744D01*
X11418Y34956D01*
X11524Y35061D01*
X11615D01*
X11615Y34744D01*
D02*
G37*
G36*
X32638Y34135D02*
Y34130D01*
X32633D01*
Y34126D01*
Y34121D01*
X32629D01*
Y34117D01*
X32624D01*
Y34113D01*
Y34108D01*
X32620D01*
Y34104D01*
Y34099D01*
X32611D01*
Y34095D01*
X32616D01*
Y34090D01*
X32611D01*
Y34086D01*
X32607D01*
Y34082D01*
Y34077D01*
X32602D01*
Y34073D01*
Y34068D01*
X32598D01*
Y34064D01*
Y34060D01*
X32594D01*
Y34055D01*
X32589D01*
Y34051D01*
Y34046D01*
X32585D01*
Y34042D01*
Y34038D01*
X32580D01*
Y34033D01*
Y34029D01*
X32576D01*
Y34024D01*
X32571D01*
Y34020D01*
Y34016D01*
X32567D01*
Y34011D01*
Y34007D01*
X32563D01*
Y34002D01*
X32558D01*
Y33998D01*
Y33993D01*
X32554D01*
Y33989D01*
Y33985D01*
X32545D01*
Y33980D01*
X32549D01*
Y33976D01*
X32545D01*
Y33971D01*
X32541D01*
Y33967D01*
Y33963D01*
X32536D01*
Y33958D01*
Y33954D01*
X32532D01*
Y33949D01*
Y33945D01*
X32527D01*
Y33941D01*
X32523D01*
Y33936D01*
Y33932D01*
X32519D01*
Y33927D01*
Y33923D01*
X32514D01*
Y33918D01*
Y33914D01*
X32510D01*
Y33910D01*
X32505D01*
Y33905D01*
Y33901D01*
X32501D01*
Y33896D01*
Y33892D01*
X32497D01*
Y33888D01*
X32492D01*
Y33883D01*
Y33879D01*
X32488D01*
Y33874D01*
Y33870D01*
X32479D01*
Y33866D01*
X32483D01*
Y33861D01*
X32479D01*
Y33857D01*
X32474D01*
Y33852D01*
Y33848D01*
X32470D01*
Y33844D01*
Y33839D01*
X32466D01*
Y33835D01*
Y33830D01*
X32461D01*
Y33826D01*
X32457D01*
Y33821D01*
Y33817D01*
X32452D01*
Y33813D01*
Y33808D01*
X32448D01*
Y33804D01*
X32444D01*
Y33799D01*
Y33795D01*
X32439D01*
Y33791D01*
Y33786D01*
X32430D01*
Y33782D01*
X32435D01*
Y33777D01*
X32430D01*
Y33773D01*
X32426D01*
Y33769D01*
Y33764D01*
X32422D01*
Y33760D01*
Y33755D01*
X32417D01*
Y33751D01*
Y33747D01*
X32413D01*
Y33742D01*
X32408D01*
Y33738D01*
Y33733D01*
X32404D01*
Y33729D01*
Y33724D01*
X32399D01*
Y33720D01*
Y33716D01*
X32395D01*
Y33711D01*
X32391D01*
Y33707D01*
Y33702D01*
X32386D01*
Y33698D01*
Y33694D01*
X32382D01*
Y33689D01*
X32377D01*
Y33685D01*
Y33680D01*
X32373D01*
Y33676D01*
Y33672D01*
X32364D01*
Y33667D01*
X32369D01*
Y33663D01*
X32364D01*
Y33658D01*
X32360D01*
Y33654D01*
Y33649D01*
X32355D01*
Y33645D01*
Y33641D01*
X32351D01*
Y33636D01*
Y33632D01*
X32347D01*
Y33627D01*
X32342D01*
Y33623D01*
Y33619D01*
X32338D01*
Y33614D01*
Y33610D01*
X32333D01*
Y33605D01*
Y33601D01*
X32329D01*
Y33597D01*
X32325D01*
Y33592D01*
Y33588D01*
X32320D01*
Y33583D01*
Y33579D01*
X32316D01*
Y33575D01*
X32311D01*
Y33570D01*
Y33566D01*
X32307D01*
Y33561D01*
Y33557D01*
X32298D01*
Y33552D01*
X32302D01*
Y33548D01*
X32298D01*
Y33544D01*
X32294D01*
Y33539D01*
Y33535D01*
X32289D01*
Y33530D01*
Y33526D01*
X32285D01*
Y33522D01*
Y33517D01*
X32280D01*
Y33513D01*
X32276D01*
Y33508D01*
Y33504D01*
X32272D01*
Y33500D01*
Y33495D01*
X32267D01*
Y33491D01*
Y33486D01*
X32263D01*
Y33482D01*
X32258D01*
Y33477D01*
Y33473D01*
X32254D01*
Y33469D01*
Y33464D01*
X32250D01*
Y33460D01*
X32245D01*
Y33455D01*
Y33451D01*
X32241D01*
Y33447D01*
Y33442D01*
X32232D01*
Y33438D01*
X32236D01*
Y33433D01*
X32232D01*
Y33429D01*
X32228D01*
Y33425D01*
Y33420D01*
X32223D01*
Y33416D01*
Y33411D01*
X32219D01*
Y33407D01*
Y33403D01*
X32214D01*
Y33398D01*
X32210D01*
Y33394D01*
Y33389D01*
X32205D01*
Y33385D01*
Y33380D01*
X32201D01*
Y33376D01*
X32197D01*
Y33372D01*
Y33367D01*
X32192D01*
Y33363D01*
Y33358D01*
X32183D01*
Y33354D01*
X32188D01*
Y33350D01*
X32183D01*
Y33345D01*
X32179D01*
Y33341D01*
Y33336D01*
X32175D01*
Y33332D01*
Y33328D01*
X32170D01*
Y33323D01*
Y33319D01*
X32166D01*
Y33314D01*
X32161D01*
Y33310D01*
Y33306D01*
X32157D01*
Y33301D01*
Y33297D01*
X32153D01*
Y33292D01*
Y33288D01*
X32148D01*
Y33283D01*
X32144D01*
Y33279D01*
Y33275D01*
X32139D01*
Y33270D01*
Y33266D01*
X32135D01*
Y33261D01*
X32130D01*
Y33257D01*
Y33253D01*
X32126D01*
Y33248D01*
Y33244D01*
X32117D01*
Y33239D01*
X32122D01*
Y33235D01*
X32117D01*
Y33231D01*
X32113D01*
Y33226D01*
Y33222D01*
X32108D01*
Y33217D01*
Y33213D01*
X32104D01*
Y33208D01*
Y33204D01*
X32100D01*
Y33200D01*
X32095D01*
Y33195D01*
Y33191D01*
X32091D01*
Y33186D01*
Y33182D01*
X32086D01*
Y33178D01*
Y33173D01*
X32082D01*
Y33169D01*
X32078D01*
Y33164D01*
Y33160D01*
X32073D01*
Y33156D01*
Y33151D01*
X32069D01*
Y33147D01*
X32064D01*
Y33142D01*
Y33138D01*
X32060D01*
Y33134D01*
Y33129D01*
X32051D01*
Y33125D01*
X32056D01*
Y33120D01*
X32051D01*
Y33116D01*
X32047D01*
Y33111D01*
Y33107D01*
X32042D01*
Y33103D01*
Y33098D01*
X32038D01*
Y33094D01*
Y33089D01*
X32033D01*
Y33085D01*
X32029D01*
Y33081D01*
Y33076D01*
X32025D01*
Y33072D01*
Y33067D01*
X32020D01*
Y33063D01*
Y33059D01*
X32016D01*
Y33054D01*
X32011D01*
Y33050D01*
Y33045D01*
X32007D01*
Y33041D01*
Y33037D01*
X32003D01*
Y33032D01*
X31998D01*
Y33028D01*
Y33023D01*
X31994D01*
Y33019D01*
Y33014D01*
X31985D01*
Y33010D01*
X31989D01*
Y33006D01*
X31985D01*
Y33001D01*
X31981D01*
Y32997D01*
Y32992D01*
X31976D01*
Y32988D01*
Y32984D01*
X31972D01*
Y32979D01*
Y32975D01*
X31967D01*
Y32970D01*
X31963D01*
Y32966D01*
Y32962D01*
X31959D01*
Y32957D01*
Y32953D01*
X31954D01*
Y32948D01*
X31950D01*
Y32944D01*
Y32940D01*
X31945D01*
Y32935D01*
Y32931D01*
X31936D01*
Y32926D01*
X31941D01*
Y32922D01*
X31936D01*
Y32917D01*
X31932D01*
Y32913D01*
Y32909D01*
X31928D01*
Y32904D01*
Y32900D01*
X31923D01*
Y32895D01*
Y32891D01*
X31919D01*
Y32887D01*
X31914D01*
Y32882D01*
Y32878D01*
X31910D01*
Y32873D01*
Y32869D01*
X31906D01*
Y32865D01*
Y32860D01*
X31901D01*
Y32856D01*
X31897D01*
Y32851D01*
Y32847D01*
X31892D01*
Y32842D01*
Y32838D01*
X31888D01*
Y32834D01*
X31884D01*
Y32829D01*
Y32825D01*
X31879D01*
Y32820D01*
Y32816D01*
X31870D01*
Y32812D01*
X31875D01*
Y32807D01*
X31870D01*
Y32803D01*
X31866D01*
Y32798D01*
Y32794D01*
X31861D01*
Y32790D01*
Y32785D01*
X31857D01*
Y32781D01*
Y32776D01*
X31853D01*
Y32772D01*
X31848D01*
Y32768D01*
Y32763D01*
X31844D01*
Y32759D01*
Y32754D01*
X31839D01*
Y32750D01*
Y32745D01*
X31835D01*
Y32741D01*
X31831D01*
Y32737D01*
Y32732D01*
X31826D01*
Y32728D01*
Y32723D01*
X31822D01*
Y32719D01*
X31817D01*
Y32715D01*
Y32710D01*
X31813D01*
Y32706D01*
Y32701D01*
X31804D01*
Y32697D01*
X31809D01*
Y32693D01*
X31804D01*
Y32688D01*
X31800D01*
Y32684D01*
Y32679D01*
X31795D01*
Y32675D01*
Y32671D01*
X31791D01*
Y32666D01*
Y32662D01*
X31787D01*
Y32657D01*
X31782D01*
Y32653D01*
Y32648D01*
X31778D01*
Y32644D01*
Y32640D01*
X31773D01*
Y32635D01*
Y32631D01*
X31769D01*
Y32626D01*
X31764D01*
Y32622D01*
Y32618D01*
X31756D01*
Y32613D01*
X31760D01*
Y32609D01*
X31756D01*
Y32604D01*
X31751D01*
Y32600D01*
Y32596D01*
X31747D01*
Y32591D01*
Y32587D01*
X31738D01*
Y32582D01*
X31742D01*
Y32578D01*
X31738D01*
Y32573D01*
X31734D01*
Y32569D01*
Y32565D01*
X31729D01*
Y32560D01*
Y32556D01*
X31725D01*
Y32551D01*
Y32547D01*
X31720D01*
Y32543D01*
X31716D01*
Y32538D01*
Y32534D01*
X31712D01*
Y32529D01*
Y32525D01*
X31707D01*
Y32521D01*
X31703D01*
Y32516D01*
Y32512D01*
X31698D01*
Y32507D01*
Y32503D01*
X31690D01*
Y32499D01*
X31694D01*
Y32494D01*
X31690D01*
Y32490D01*
X31685D01*
Y32485D01*
Y32481D01*
X31681D01*
Y32476D01*
Y32472D01*
X31676D01*
Y32468D01*
Y32463D01*
X31672D01*
Y32459D01*
X31667D01*
Y32454D01*
Y32450D01*
X31663D01*
Y32446D01*
Y32441D01*
X31659D01*
Y32437D01*
Y32432D01*
X31654D01*
Y32428D01*
X31650D01*
Y32424D01*
Y32419D01*
X31645D01*
Y32415D01*
Y32410D01*
X31641D01*
Y32406D01*
X31637D01*
Y32401D01*
Y32397D01*
X31632D01*
Y32401D01*
Y32406D01*
Y32410D01*
X31628D01*
Y32415D01*
Y32419D01*
Y32424D01*
Y32428D01*
X31623D01*
Y32432D01*
Y32437D01*
Y32441D01*
X31619D01*
Y32446D01*
Y32450D01*
Y32454D01*
Y32459D01*
X31615D01*
Y32463D01*
Y32468D01*
Y32472D01*
Y32476D01*
X31610D01*
Y32481D01*
Y32485D01*
Y32490D01*
Y32494D01*
X31606D01*
Y32499D01*
Y32503D01*
Y32507D01*
Y32512D01*
Y32516D01*
X31601D01*
Y32521D01*
Y32525D01*
Y32529D01*
Y32534D01*
Y32538D01*
X31597D01*
Y32543D01*
Y32547D01*
Y32551D01*
Y32556D01*
Y32560D01*
Y32565D01*
X31592D01*
Y32569D01*
Y32573D01*
Y32578D01*
Y32582D01*
Y32587D01*
Y32591D01*
X31588D01*
Y32596D01*
Y32600D01*
Y32604D01*
Y32609D01*
Y32613D01*
Y32618D01*
Y32622D01*
X31584D01*
Y32626D01*
Y32631D01*
Y32635D01*
Y32640D01*
Y32644D01*
Y32648D01*
Y32653D01*
Y32657D01*
Y32662D01*
X31579D01*
Y32666D01*
Y32671D01*
Y32675D01*
Y32679D01*
Y32684D01*
Y32688D01*
Y32693D01*
Y32697D01*
Y32701D01*
Y32706D01*
Y32710D01*
Y32715D01*
X31575D01*
Y32719D01*
Y32723D01*
Y32728D01*
Y32732D01*
Y32737D01*
Y32741D01*
Y32745D01*
Y32750D01*
Y32754D01*
Y32759D01*
Y32763D01*
Y32768D01*
Y32772D01*
Y32776D01*
Y32781D01*
Y32785D01*
Y32790D01*
Y32794D01*
Y32798D01*
Y32803D01*
Y32807D01*
Y32812D01*
Y32816D01*
Y32820D01*
Y32825D01*
Y32829D01*
Y32834D01*
Y32838D01*
Y32842D01*
Y32847D01*
Y32851D01*
Y32856D01*
Y32860D01*
Y32865D01*
Y32869D01*
Y32873D01*
Y32878D01*
Y32882D01*
X31579D01*
Y32887D01*
Y32891D01*
Y32895D01*
Y32900D01*
Y32904D01*
Y32909D01*
Y32913D01*
Y32917D01*
Y32922D01*
Y32926D01*
Y32931D01*
Y32935D01*
X31584D01*
Y32940D01*
Y32944D01*
Y32948D01*
Y32953D01*
Y32957D01*
Y32962D01*
Y32966D01*
Y32970D01*
Y32975D01*
X31588D01*
Y32979D01*
Y32984D01*
Y32988D01*
Y32992D01*
Y32997D01*
Y33001D01*
Y33006D01*
X31592D01*
Y33010D01*
Y33014D01*
Y33019D01*
Y33023D01*
Y33028D01*
Y33032D01*
X31597D01*
Y33037D01*
Y33041D01*
Y33045D01*
Y33050D01*
Y33054D01*
Y33059D01*
X31601D01*
Y33063D01*
Y33067D01*
Y33072D01*
Y33076D01*
Y33081D01*
X31606D01*
Y33085D01*
Y33089D01*
Y33094D01*
Y33098D01*
Y33103D01*
X31610D01*
Y33107D01*
Y33111D01*
Y33116D01*
Y33120D01*
X31615D01*
Y33125D01*
Y33129D01*
Y33134D01*
Y33138D01*
X31619D01*
Y33142D01*
Y33147D01*
Y33151D01*
Y33156D01*
X31623D01*
Y33160D01*
Y33164D01*
Y33169D01*
X31628D01*
Y33173D01*
Y33178D01*
Y33182D01*
Y33186D01*
X31632D01*
Y33191D01*
Y33195D01*
Y33200D01*
X31637D01*
Y33204D01*
Y33208D01*
Y33213D01*
X31641D01*
Y33217D01*
Y33222D01*
Y33226D01*
Y33231D01*
X31645D01*
Y33235D01*
Y33239D01*
Y33244D01*
X31650D01*
Y33248D01*
Y33253D01*
X31654D01*
Y33257D01*
Y33261D01*
Y33266D01*
X31659D01*
Y33270D01*
Y33275D01*
Y33279D01*
X31663D01*
Y33283D01*
Y33288D01*
Y33292D01*
X31667D01*
Y33297D01*
Y33301D01*
X31672D01*
Y33306D01*
Y33310D01*
Y33314D01*
X31676D01*
Y33319D01*
Y33323D01*
X31681D01*
Y33328D01*
Y33332D01*
Y33336D01*
X31685D01*
Y33341D01*
Y33345D01*
X31690D01*
Y33350D01*
Y33354D01*
X31694D01*
Y33358D01*
Y33363D01*
X31698D01*
Y33367D01*
Y33372D01*
Y33376D01*
X31703D01*
Y33380D01*
Y33385D01*
X31707D01*
Y33389D01*
Y33394D01*
X31712D01*
Y33398D01*
Y33403D01*
X31716D01*
Y33407D01*
Y33411D01*
X31720D01*
Y33416D01*
Y33420D01*
X31725D01*
Y33425D01*
Y33429D01*
X31729D01*
Y33433D01*
Y33438D01*
X31734D01*
Y33442D01*
Y33447D01*
X31738D01*
Y33451D01*
Y33455D01*
X31742D01*
Y33460D01*
X31747D01*
Y33464D01*
Y33469D01*
X31751D01*
Y33473D01*
Y33477D01*
X31756D01*
Y33482D01*
Y33486D01*
X31760D01*
Y33491D01*
X31764D01*
Y33495D01*
Y33500D01*
X31769D01*
Y33504D01*
Y33508D01*
X31773D01*
Y33513D01*
X31778D01*
Y33517D01*
Y33522D01*
X31782D01*
Y33526D01*
Y33530D01*
X31787D01*
Y33535D01*
X31791D01*
Y33539D01*
Y33544D01*
X31795D01*
Y33548D01*
X31800D01*
Y33552D01*
Y33557D01*
X31804D01*
Y33561D01*
X31809D01*
Y33566D01*
Y33570D01*
X31813D01*
Y33575D01*
X31817D01*
Y33579D01*
Y33583D01*
X31822D01*
Y33588D01*
X31826D01*
Y33592D01*
Y33597D01*
X31831D01*
Y33601D01*
X31835D01*
Y33605D01*
X31839D01*
Y33610D01*
Y33614D01*
X31844D01*
Y33619D01*
X31848D01*
Y33623D01*
X31853D01*
Y33627D01*
Y33632D01*
X31857D01*
Y33636D01*
X31861D01*
Y33641D01*
X31866D01*
Y33645D01*
Y33649D01*
X31870D01*
Y33654D01*
X31875D01*
Y33658D01*
X31879D01*
Y33663D01*
X31884D01*
Y33667D01*
Y33672D01*
X31888D01*
Y33676D01*
X31892D01*
Y33680D01*
X31897D01*
Y33685D01*
X31901D01*
Y33689D01*
X31906D01*
Y33694D01*
Y33698D01*
X31910D01*
Y33702D01*
X31914D01*
Y33707D01*
X31919D01*
Y33711D01*
X31923D01*
Y33716D01*
X31928D01*
Y33720D01*
X31932D01*
Y33724D01*
X31936D01*
Y33729D01*
X31941D01*
Y33733D01*
Y33738D01*
X31945D01*
Y33742D01*
X31950D01*
Y33747D01*
X31954D01*
Y33751D01*
X31959D01*
Y33755D01*
X31963D01*
Y33760D01*
X31967D01*
Y33764D01*
X31972D01*
Y33769D01*
X31976D01*
Y33773D01*
X31981D01*
Y33777D01*
X31985D01*
Y33782D01*
X31989D01*
Y33786D01*
X31994D01*
Y33791D01*
X31998D01*
Y33795D01*
X32003D01*
Y33799D01*
X32007D01*
Y33804D01*
X32011D01*
Y33808D01*
X32020D01*
Y33813D01*
X32025D01*
Y33817D01*
X32029D01*
Y33821D01*
X32033D01*
Y33826D01*
X32038D01*
Y33830D01*
X32042D01*
Y33835D01*
X32047D01*
Y33839D01*
X32051D01*
Y33844D01*
X32060D01*
Y33848D01*
X32064D01*
Y33852D01*
X32069D01*
Y33857D01*
X32073D01*
Y33861D01*
X32078D01*
Y33866D01*
X32086D01*
Y33870D01*
X32091D01*
Y33874D01*
X32095D01*
Y33879D01*
X32100D01*
Y33883D01*
X32108D01*
Y33888D01*
X32113D01*
Y33892D01*
X32117D01*
Y33896D01*
X32126D01*
Y33901D01*
X32130D01*
Y33905D01*
X32135D01*
Y33910D01*
X32144D01*
Y33914D01*
X32148D01*
Y33918D01*
X32153D01*
Y33923D01*
X32161D01*
Y33927D01*
X32166D01*
Y33932D01*
X32175D01*
Y33936D01*
X32179D01*
Y33941D01*
X32188D01*
Y33945D01*
X32192D01*
Y33949D01*
X32201D01*
Y33954D01*
X32205D01*
Y33958D01*
X32214D01*
Y33963D01*
X32219D01*
Y33967D01*
X32228D01*
Y33971D01*
X32236D01*
Y33976D01*
X32241D01*
Y33980D01*
X32250D01*
Y33985D01*
X32258D01*
Y33989D01*
X32263D01*
Y33993D01*
X32272D01*
Y33998D01*
X32280D01*
Y34002D01*
X32289D01*
Y34007D01*
X32294D01*
Y34011D01*
X32302D01*
Y34016D01*
X32311D01*
Y34020D01*
X32320D01*
Y34024D01*
X32329D01*
Y34029D01*
X32338D01*
Y34033D01*
X32347D01*
Y34038D01*
X32355D01*
Y34042D01*
X32364D01*
Y34046D01*
X32373D01*
Y34051D01*
X32386D01*
Y34055D01*
X32395D01*
Y34060D01*
X32404D01*
Y34064D01*
X32413D01*
Y34068D01*
X32426D01*
Y34073D01*
X32430D01*
Y34068D01*
X32435D01*
Y34073D01*
Y34077D01*
X32448D01*
Y34082D01*
X32457D01*
Y34086D01*
X32470D01*
Y34090D01*
X32483D01*
Y34095D01*
X32497D01*
Y34099D01*
X32505D01*
Y34104D01*
X32519D01*
Y34108D01*
X32536D01*
Y34113D01*
X32549D01*
Y34117D01*
X32563D01*
Y34121D01*
X32580D01*
Y34126D01*
X32594D01*
Y34130D01*
X32611D01*
Y34135D01*
X32629D01*
Y34139D01*
X32638D01*
Y34135D01*
D02*
G37*
G36*
X33273D02*
X33290D01*
Y34130D01*
X33308D01*
Y34126D01*
X33321D01*
Y34121D01*
X33339D01*
Y34117D01*
X33352D01*
Y34113D01*
X33365D01*
Y34108D01*
X33383D01*
Y34104D01*
X33396D01*
Y34099D01*
X33405D01*
Y34095D01*
X33418D01*
Y34090D01*
X33431D01*
Y34086D01*
X33445D01*
Y34082D01*
X33453D01*
Y34077D01*
X33467D01*
Y34073D01*
Y34068D01*
X33471D01*
Y34073D01*
X33475D01*
Y34068D01*
X33489D01*
Y34064D01*
X33498D01*
Y34060D01*
X33506D01*
Y34055D01*
X33515D01*
Y34051D01*
X33528D01*
Y34046D01*
X33537D01*
Y34042D01*
X33546D01*
Y34038D01*
X33555D01*
Y34033D01*
X33564D01*
Y34029D01*
X33573D01*
Y34024D01*
X33581D01*
Y34020D01*
X33590D01*
Y34016D01*
X33599D01*
Y34011D01*
X33608D01*
Y34007D01*
X33612D01*
Y34002D01*
X33621D01*
Y33998D01*
X33630D01*
Y33993D01*
X33639D01*
Y33989D01*
X33643D01*
Y33985D01*
X33652D01*
Y33980D01*
X33661D01*
Y33976D01*
X33665D01*
Y33971D01*
X33674D01*
Y33967D01*
X33683D01*
Y33963D01*
X33687D01*
Y33958D01*
X33696D01*
Y33954D01*
X33700D01*
Y33949D01*
X33709D01*
Y33945D01*
X33714D01*
Y33941D01*
X33722D01*
Y33936D01*
X33727D01*
Y33932D01*
X33736D01*
Y33927D01*
X33740D01*
Y33923D01*
X33749D01*
Y33918D01*
X33753D01*
Y33914D01*
X33758D01*
Y33910D01*
X33767D01*
Y33905D01*
X33771D01*
Y33901D01*
X33775D01*
Y33896D01*
X33784D01*
Y33892D01*
X33789D01*
Y33888D01*
X33793D01*
Y33883D01*
X33802D01*
Y33879D01*
X33806D01*
Y33874D01*
X33811D01*
Y33870D01*
X33815D01*
Y33866D01*
X33824D01*
Y33861D01*
X33828D01*
Y33857D01*
X33833D01*
Y33852D01*
X33837D01*
Y33848D01*
X33842D01*
Y33844D01*
X33850D01*
Y33839D01*
X33855D01*
Y33835D01*
X33859D01*
Y33830D01*
X33864D01*
Y33826D01*
X33868D01*
Y33821D01*
X33872D01*
Y33817D01*
X33877D01*
Y33813D01*
X33881D01*
Y33808D01*
X33890D01*
Y33804D01*
X33894D01*
Y33799D01*
X33899D01*
Y33795D01*
X33903D01*
Y33791D01*
X33908D01*
Y33786D01*
X33912D01*
Y33782D01*
X33916D01*
Y33777D01*
X33921D01*
Y33773D01*
X33925D01*
Y33769D01*
X33930D01*
Y33764D01*
X33934D01*
Y33760D01*
X33939D01*
Y33755D01*
X33943D01*
Y33751D01*
X33947D01*
Y33747D01*
X33952D01*
Y33742D01*
X33956D01*
Y33738D01*
X33961D01*
Y33733D01*
Y33729D01*
X33965D01*
Y33724D01*
X33969D01*
Y33720D01*
X33974D01*
Y33716D01*
X33978D01*
Y33711D01*
X33983D01*
Y33707D01*
X33987D01*
Y33702D01*
X33991D01*
Y33698D01*
X33996D01*
Y33694D01*
Y33689D01*
Y33685D01*
X34005D01*
Y33680D01*
X34009D01*
Y33676D01*
X34014D01*
Y33672D01*
X34018D01*
Y33667D01*
Y33663D01*
X34022D01*
Y33658D01*
X34027D01*
Y33654D01*
X34031D01*
Y33649D01*
X34036D01*
Y33645D01*
Y33641D01*
X34040D01*
Y33636D01*
X34044D01*
Y33632D01*
X34049D01*
Y33627D01*
Y33623D01*
X34053D01*
Y33619D01*
X34058D01*
Y33614D01*
X34062D01*
Y33610D01*
Y33605D01*
X34066D01*
Y33601D01*
X34071D01*
Y33597D01*
X34075D01*
Y33592D01*
Y33588D01*
X34080D01*
Y33583D01*
X34084D01*
Y33579D01*
X34080D01*
Y33575D01*
X34088D01*
Y33570D01*
X34093D01*
Y33566D01*
Y33561D01*
X34097D01*
Y33557D01*
X34102D01*
Y33552D01*
Y33548D01*
X34106D01*
Y33544D01*
X34111D01*
Y33539D01*
Y33535D01*
X34115D01*
Y33530D01*
X34119D01*
Y33526D01*
Y33522D01*
X34124D01*
Y33517D01*
Y33513D01*
X34128D01*
Y33508D01*
X34133D01*
Y33504D01*
Y33500D01*
X34137D01*
Y33495D01*
Y33491D01*
X34141D01*
Y33486D01*
X34146D01*
Y33482D01*
Y33477D01*
X34150D01*
Y33473D01*
Y33469D01*
X34155D01*
Y33464D01*
Y33460D01*
X34159D01*
Y33455D01*
X34163D01*
Y33451D01*
Y33447D01*
X34168D01*
Y33442D01*
Y33438D01*
X34172D01*
Y33433D01*
Y33429D01*
X34177D01*
Y33425D01*
Y33420D01*
X34181D01*
Y33416D01*
Y33411D01*
X34185D01*
Y33407D01*
Y33403D01*
X34190D01*
Y33398D01*
Y33394D01*
X34194D01*
Y33389D01*
Y33385D01*
X34199D01*
Y33380D01*
Y33376D01*
X34203D01*
Y33372D01*
Y33367D01*
Y33363D01*
X34208D01*
Y33358D01*
Y33354D01*
X34212D01*
Y33350D01*
Y33345D01*
X34216D01*
Y33341D01*
Y33336D01*
X34221D01*
Y33332D01*
Y33328D01*
Y33323D01*
X34225D01*
Y33319D01*
Y33314D01*
X34230D01*
Y33310D01*
Y33306D01*
Y33301D01*
X34234D01*
Y33297D01*
Y33292D01*
X34238D01*
Y33288D01*
Y33283D01*
Y33279D01*
X34243D01*
Y33275D01*
Y33270D01*
Y33266D01*
X34247D01*
Y33261D01*
Y33257D01*
Y33253D01*
X34252D01*
Y33248D01*
Y33244D01*
X34256D01*
Y33239D01*
Y33235D01*
Y33231D01*
X34260D01*
Y33226D01*
Y33222D01*
Y33217D01*
Y33213D01*
X34265D01*
Y33208D01*
Y33204D01*
Y33200D01*
X34269D01*
Y33195D01*
Y33191D01*
Y33186D01*
X34274D01*
Y33182D01*
Y33178D01*
Y33173D01*
Y33169D01*
X34278D01*
Y33164D01*
Y33160D01*
Y33156D01*
X34283D01*
Y33151D01*
Y33147D01*
Y33142D01*
Y33138D01*
X34287D01*
Y33134D01*
Y33129D01*
Y33125D01*
Y33120D01*
X34291D01*
Y33116D01*
Y33111D01*
Y33107D01*
Y33103D01*
X34296D01*
Y33098D01*
Y33094D01*
Y33089D01*
Y33085D01*
Y33081D01*
X34300D01*
Y33076D01*
Y33072D01*
Y33067D01*
Y33063D01*
Y33059D01*
X34305D01*
Y33054D01*
Y33050D01*
Y33045D01*
Y33041D01*
Y33037D01*
Y33032D01*
X34309D01*
Y33028D01*
Y33023D01*
Y33019D01*
Y33014D01*
Y33010D01*
Y33006D01*
X34313D01*
Y33001D01*
Y32997D01*
Y32992D01*
Y32988D01*
Y32984D01*
Y32979D01*
Y32975D01*
X34318D01*
Y32970D01*
Y32966D01*
Y32962D01*
Y32957D01*
Y32953D01*
Y32948D01*
Y32944D01*
Y32940D01*
Y32935D01*
X34322D01*
Y32931D01*
Y32926D01*
Y32922D01*
Y32917D01*
Y32913D01*
Y32909D01*
Y32904D01*
Y32900D01*
Y32895D01*
Y32891D01*
Y32887D01*
Y32882D01*
X34327D01*
Y32878D01*
Y32873D01*
Y32869D01*
Y32865D01*
Y32860D01*
Y32856D01*
Y32851D01*
Y32847D01*
Y32842D01*
Y32838D01*
Y32834D01*
Y32829D01*
Y32825D01*
Y32820D01*
Y32816D01*
Y32812D01*
Y32807D01*
Y32803D01*
Y32798D01*
Y32794D01*
Y32790D01*
Y32785D01*
Y32781D01*
Y32776D01*
Y32772D01*
Y32768D01*
Y32763D01*
Y32759D01*
Y32754D01*
Y32750D01*
Y32745D01*
Y32741D01*
Y32737D01*
Y32732D01*
Y32728D01*
Y32723D01*
Y32719D01*
Y32715D01*
X34322D01*
Y32710D01*
Y32706D01*
Y32701D01*
Y32697D01*
Y32693D01*
Y32688D01*
Y32684D01*
Y32679D01*
Y32675D01*
Y32671D01*
Y32666D01*
Y32662D01*
X34318D01*
Y32657D01*
Y32653D01*
Y32648D01*
Y32644D01*
Y32640D01*
Y32635D01*
Y32631D01*
Y32626D01*
Y32622D01*
X34313D01*
Y32618D01*
Y32613D01*
Y32609D01*
Y32604D01*
Y32600D01*
Y32596D01*
Y32591D01*
X34309D01*
Y32587D01*
Y32582D01*
Y32578D01*
Y32573D01*
Y32569D01*
Y32565D01*
X34305D01*
Y32560D01*
Y32556D01*
Y32551D01*
Y32547D01*
Y32543D01*
Y32538D01*
X34300D01*
Y32534D01*
Y32529D01*
Y32525D01*
Y32521D01*
Y32516D01*
X34296D01*
Y32512D01*
Y32507D01*
Y32503D01*
Y32499D01*
Y32494D01*
X34291D01*
Y32490D01*
Y32485D01*
Y32481D01*
Y32476D01*
X34287D01*
Y32472D01*
Y32468D01*
Y32463D01*
Y32459D01*
X34283D01*
Y32454D01*
Y32450D01*
Y32446D01*
Y32441D01*
X34278D01*
Y32437D01*
Y32432D01*
Y32428D01*
X34274D01*
Y32424D01*
Y32419D01*
Y32415D01*
Y32410D01*
X34269D01*
Y32406D01*
Y32401D01*
Y32397D01*
X34265D01*
Y32401D01*
Y32406D01*
X34260D01*
Y32410D01*
X34256D01*
Y32415D01*
Y32419D01*
X34252D01*
Y32424D01*
Y32428D01*
X34247D01*
Y32432D01*
X34243D01*
Y32437D01*
Y32441D01*
X34238D01*
Y32446D01*
Y32450D01*
X34234D01*
Y32454D01*
Y32459D01*
X34230D01*
Y32463D01*
X34225D01*
Y32468D01*
X34230D01*
Y32472D01*
X34221D01*
Y32476D01*
Y32481D01*
X34216D01*
Y32485D01*
Y32490D01*
X34212D01*
Y32494D01*
X34208D01*
Y32499D01*
X34212D01*
Y32503D01*
X34203D01*
Y32507D01*
Y32512D01*
X34199D01*
Y32516D01*
X34194D01*
Y32521D01*
Y32525D01*
X34190D01*
Y32529D01*
Y32534D01*
X34185D01*
Y32538D01*
Y32543D01*
X34181D01*
Y32547D01*
X34177D01*
Y32551D01*
Y32556D01*
X34172D01*
Y32560D01*
X34177D01*
Y32565D01*
X34168D01*
Y32569D01*
Y32573D01*
X34163D01*
Y32578D01*
X34159D01*
Y32582D01*
X34163D01*
Y32587D01*
X34155D01*
Y32591D01*
Y32596D01*
X34150D01*
Y32600D01*
Y32604D01*
X34146D01*
Y32609D01*
X34141D01*
Y32613D01*
Y32618D01*
X34137D01*
Y32622D01*
Y32626D01*
X34133D01*
Y32631D01*
X34128D01*
Y32635D01*
Y32640D01*
X34124D01*
Y32644D01*
Y32648D01*
X34119D01*
Y32653D01*
Y32657D01*
X34115D01*
Y32662D01*
X34111D01*
Y32666D01*
Y32671D01*
X34106D01*
Y32675D01*
Y32679D01*
X34102D01*
Y32684D01*
Y32688D01*
X34097D01*
Y32693D01*
X34093D01*
Y32697D01*
X34097D01*
Y32701D01*
X34088D01*
Y32706D01*
Y32710D01*
X34084D01*
Y32715D01*
Y32719D01*
X34080D01*
Y32723D01*
X34075D01*
Y32728D01*
Y32732D01*
X34071D01*
Y32737D01*
Y32741D01*
X34066D01*
Y32745D01*
X34062D01*
Y32750D01*
Y32754D01*
X34058D01*
Y32759D01*
Y32763D01*
X34053D01*
Y32768D01*
Y32772D01*
X34049D01*
Y32776D01*
X34044D01*
Y32781D01*
Y32785D01*
X34040D01*
Y32790D01*
Y32794D01*
X34036D01*
Y32798D01*
Y32803D01*
X34031D01*
Y32807D01*
X34027D01*
Y32812D01*
X34031D01*
Y32816D01*
X34022D01*
Y32820D01*
Y32825D01*
X34018D01*
Y32829D01*
Y32834D01*
X34014D01*
Y32838D01*
X34009D01*
Y32842D01*
Y32847D01*
X34005D01*
Y32851D01*
Y32856D01*
X34000D01*
Y32860D01*
X33996D01*
Y32865D01*
Y32869D01*
X33991D01*
Y32873D01*
Y32878D01*
X33987D01*
Y32882D01*
Y32887D01*
X33983D01*
Y32891D01*
X33978D01*
Y32895D01*
X33983D01*
Y32900D01*
X33974D01*
Y32904D01*
Y32909D01*
X33969D01*
Y32913D01*
Y32917D01*
X33965D01*
Y32922D01*
X33961D01*
Y32926D01*
X33965D01*
Y32931D01*
X33956D01*
Y32935D01*
Y32940D01*
X33952D01*
Y32944D01*
X33947D01*
Y32948D01*
Y32953D01*
X33943D01*
Y32957D01*
Y32962D01*
X33939D01*
Y32966D01*
Y32970D01*
X33934D01*
Y32975D01*
X33930D01*
Y32979D01*
Y32984D01*
X33925D01*
Y32988D01*
Y32992D01*
X33921D01*
Y32997D01*
Y33001D01*
X33916D01*
Y33006D01*
X33912D01*
Y33010D01*
X33916D01*
Y33014D01*
X33908D01*
Y33019D01*
Y33023D01*
X33903D01*
Y33028D01*
Y33032D01*
X33899D01*
Y33037D01*
X33894D01*
Y33041D01*
Y33045D01*
X33890D01*
Y33050D01*
Y33054D01*
X33886D01*
Y33059D01*
X33881D01*
Y33063D01*
Y33067D01*
X33877D01*
Y33072D01*
Y33076D01*
X33872D01*
Y33081D01*
Y33085D01*
X33868D01*
Y33089D01*
X33864D01*
Y33094D01*
Y33098D01*
X33859D01*
Y33103D01*
Y33107D01*
X33855D01*
Y33111D01*
Y33116D01*
X33850D01*
Y33120D01*
X33846D01*
Y33125D01*
X33850D01*
Y33129D01*
X33842D01*
Y33134D01*
Y33138D01*
X33837D01*
Y33142D01*
Y33147D01*
X33833D01*
Y33151D01*
X33828D01*
Y33156D01*
Y33160D01*
X33824D01*
Y33164D01*
Y33169D01*
X33819D01*
Y33173D01*
X33815D01*
Y33178D01*
Y33182D01*
X33811D01*
Y33186D01*
Y33191D01*
X33806D01*
Y33195D01*
Y33200D01*
X33802D01*
Y33204D01*
X33797D01*
Y33208D01*
Y33213D01*
X33793D01*
Y33217D01*
Y33222D01*
X33789D01*
Y33226D01*
Y33231D01*
X33784D01*
Y33235D01*
X33780D01*
Y33239D01*
X33784D01*
Y33244D01*
X33775D01*
Y33248D01*
Y33253D01*
X33771D01*
Y33257D01*
Y33261D01*
X33767D01*
Y33266D01*
X33762D01*
Y33270D01*
Y33275D01*
X33758D01*
Y33279D01*
Y33283D01*
X33753D01*
Y33288D01*
X33749D01*
Y33292D01*
Y33297D01*
X33744D01*
Y33301D01*
Y33306D01*
X33740D01*
Y33310D01*
Y33314D01*
X33736D01*
Y33319D01*
X33731D01*
Y33323D01*
X33736D01*
Y33328D01*
X33727D01*
Y33332D01*
Y33336D01*
X33722D01*
Y33341D01*
Y33345D01*
X33718D01*
Y33350D01*
X33714D01*
Y33354D01*
X33718D01*
Y33358D01*
X33709D01*
Y33363D01*
Y33367D01*
X33705D01*
Y33372D01*
X33700D01*
Y33376D01*
Y33380D01*
X33696D01*
Y33385D01*
Y33389D01*
X33692D01*
Y33394D01*
Y33398D01*
X33687D01*
Y33403D01*
X33683D01*
Y33407D01*
Y33411D01*
X33678D01*
Y33416D01*
Y33420D01*
X33674D01*
Y33425D01*
Y33429D01*
X33670D01*
Y33433D01*
X33665D01*
Y33438D01*
X33670D01*
Y33442D01*
X33661D01*
Y33447D01*
Y33451D01*
X33656D01*
Y33455D01*
Y33460D01*
X33652D01*
Y33464D01*
X33647D01*
Y33469D01*
Y33473D01*
X33643D01*
Y33477D01*
Y33482D01*
X33639D01*
Y33486D01*
X33634D01*
Y33491D01*
Y33495D01*
X33630D01*
Y33500D01*
Y33504D01*
X33625D01*
Y33508D01*
Y33513D01*
X33621D01*
Y33517D01*
X33617D01*
Y33522D01*
Y33526D01*
X33612D01*
Y33530D01*
Y33535D01*
X33608D01*
Y33539D01*
Y33544D01*
X33603D01*
Y33548D01*
X33599D01*
Y33552D01*
X33603D01*
Y33557D01*
X33595D01*
Y33561D01*
Y33566D01*
X33590D01*
Y33570D01*
Y33575D01*
X33586D01*
Y33579D01*
X33581D01*
Y33583D01*
Y33588D01*
X33577D01*
Y33592D01*
Y33597D01*
X33573D01*
Y33601D01*
X33568D01*
Y33605D01*
Y33610D01*
X33564D01*
Y33614D01*
Y33619D01*
X33559D01*
Y33623D01*
Y33627D01*
X33555D01*
Y33632D01*
X33550D01*
Y33636D01*
Y33641D01*
X33546D01*
Y33645D01*
Y33649D01*
X33542D01*
Y33654D01*
Y33658D01*
X33537D01*
Y33663D01*
X33533D01*
Y33667D01*
X33537D01*
Y33672D01*
X33528D01*
Y33676D01*
Y33680D01*
X33524D01*
Y33685D01*
X33520D01*
Y33689D01*
Y33694D01*
X33515D01*
Y33698D01*
Y33702D01*
X33511D01*
Y33707D01*
Y33711D01*
X33506D01*
Y33716D01*
X33502D01*
Y33720D01*
Y33724D01*
X33498D01*
Y33729D01*
Y33733D01*
X33493D01*
Y33738D01*
Y33742D01*
X33489D01*
Y33747D01*
X33484D01*
Y33751D01*
X33489D01*
Y33755D01*
X33480D01*
Y33760D01*
Y33764D01*
X33475D01*
Y33769D01*
Y33773D01*
X33471D01*
Y33777D01*
X33467D01*
Y33782D01*
Y33786D01*
X33462D01*
Y33791D01*
Y33795D01*
X33458D01*
Y33799D01*
X33453D01*
Y33804D01*
Y33808D01*
X33449D01*
Y33813D01*
Y33817D01*
X33445D01*
Y33821D01*
Y33826D01*
X33440D01*
Y33830D01*
X33436D01*
Y33835D01*
Y33839D01*
X33431D01*
Y33844D01*
Y33848D01*
X33427D01*
Y33852D01*
Y33857D01*
X33423D01*
Y33861D01*
X33418D01*
Y33866D01*
X33423D01*
Y33870D01*
X33414D01*
Y33874D01*
Y33879D01*
X33409D01*
Y33883D01*
Y33888D01*
X33405D01*
Y33892D01*
X33401D01*
Y33896D01*
Y33901D01*
X33396D01*
Y33905D01*
Y33910D01*
X33392D01*
Y33914D01*
X33387D01*
Y33918D01*
Y33923D01*
X33383D01*
Y33927D01*
Y33932D01*
X33378D01*
Y33936D01*
Y33941D01*
X33374D01*
Y33945D01*
X33370D01*
Y33949D01*
Y33954D01*
X33365D01*
Y33958D01*
Y33963D01*
X33361D01*
Y33967D01*
Y33971D01*
X33356D01*
Y33976D01*
X33352D01*
Y33980D01*
X33356D01*
Y33985D01*
X33348D01*
Y33989D01*
Y33993D01*
X33343D01*
Y33998D01*
Y34002D01*
X33339D01*
Y34007D01*
X33334D01*
Y34011D01*
Y34016D01*
X33330D01*
Y34020D01*
Y34024D01*
X33326D01*
Y34029D01*
X33321D01*
Y34033D01*
Y34038D01*
X33317D01*
Y34042D01*
Y34046D01*
X33312D01*
Y34051D01*
Y34055D01*
X33308D01*
Y34060D01*
X33304D01*
Y34064D01*
X33308D01*
Y34068D01*
X33299D01*
Y34073D01*
Y34077D01*
X33295D01*
Y34082D01*
Y34086D01*
X33290D01*
Y34090D01*
X33286D01*
Y34095D01*
X33290D01*
Y34099D01*
X33281D01*
Y34104D01*
Y34108D01*
X33277D01*
Y34113D01*
X33273D01*
Y34117D01*
Y34121D01*
X33268D01*
Y34126D01*
Y34130D01*
X33264D01*
Y34135D01*
Y34139D01*
X33273D01*
Y34135D01*
D02*
G37*
G36*
X32955Y33888D02*
X32960D01*
Y33883D01*
Y33879D01*
X32964D01*
Y33874D01*
Y33870D01*
X32968D01*
Y33866D01*
Y33861D01*
X32973D01*
Y33857D01*
X32977D01*
Y33852D01*
Y33848D01*
X32982D01*
Y33844D01*
Y33839D01*
X32986D01*
Y33835D01*
Y33830D01*
X32990D01*
Y33826D01*
X32995D01*
Y33821D01*
X32990D01*
Y33817D01*
X32999D01*
Y33813D01*
Y33808D01*
X33004D01*
Y33804D01*
Y33799D01*
X33008D01*
Y33795D01*
X33012D01*
Y33791D01*
Y33786D01*
X33017D01*
Y33782D01*
Y33777D01*
X33021D01*
Y33773D01*
X33026D01*
Y33769D01*
Y33764D01*
X33030D01*
Y33760D01*
Y33755D01*
X33035D01*
Y33751D01*
Y33747D01*
X33039D01*
Y33742D01*
X33043D01*
Y33738D01*
Y33733D01*
X33048D01*
Y33729D01*
Y33724D01*
X33052D01*
Y33720D01*
Y33716D01*
X33057D01*
Y33711D01*
X33061D01*
Y33707D01*
X33057D01*
Y33702D01*
X33065D01*
Y33698D01*
Y33694D01*
X33070D01*
Y33689D01*
Y33685D01*
X33074D01*
Y33680D01*
X33079D01*
Y33676D01*
Y33672D01*
X33083D01*
Y33667D01*
Y33663D01*
X33087D01*
Y33658D01*
X33092D01*
Y33654D01*
Y33649D01*
X33096D01*
Y33645D01*
Y33641D01*
X33101D01*
Y33636D01*
Y33632D01*
X33105D01*
Y33627D01*
X33109D01*
Y33623D01*
Y33619D01*
X33114D01*
Y33614D01*
Y33610D01*
X33118D01*
Y33605D01*
Y33601D01*
X33123D01*
Y33597D01*
X33127D01*
Y33592D01*
X33123D01*
Y33588D01*
X33132D01*
Y33583D01*
Y33579D01*
X33136D01*
Y33575D01*
Y33570D01*
X33140D01*
Y33566D01*
X33145D01*
Y33561D01*
Y33557D01*
X33149D01*
Y33552D01*
Y33548D01*
X33154D01*
Y33544D01*
X33158D01*
Y33539D01*
Y33535D01*
X33162D01*
Y33530D01*
Y33526D01*
X33167D01*
Y33522D01*
Y33517D01*
X33171D01*
Y33513D01*
X33176D01*
Y33508D01*
X33171D01*
Y33504D01*
X33180D01*
Y33500D01*
Y33495D01*
X33184D01*
Y33491D01*
Y33486D01*
X33189D01*
Y33482D01*
X33193D01*
Y33477D01*
Y33473D01*
X33198D01*
Y33469D01*
Y33464D01*
X33202D01*
Y33460D01*
X33207D01*
Y33455D01*
Y33451D01*
X33211D01*
Y33447D01*
Y33442D01*
X33215D01*
Y33438D01*
Y33433D01*
X33220D01*
Y33429D01*
X33224D01*
Y33425D01*
Y33420D01*
X33229D01*
Y33416D01*
Y33411D01*
X33233D01*
Y33407D01*
Y33403D01*
X33237D01*
Y33398D01*
X33242D01*
Y33394D01*
X33233D01*
Y33389D01*
X33246D01*
Y33385D01*
Y33380D01*
X33251D01*
Y33376D01*
Y33372D01*
X33255D01*
Y33367D01*
X33259D01*
Y33363D01*
Y33358D01*
X33264D01*
Y33354D01*
Y33350D01*
X33268D01*
Y33345D01*
X33273D01*
Y33341D01*
Y33336D01*
X33277D01*
Y33332D01*
Y33328D01*
X33281D01*
Y33323D01*
Y33319D01*
X33286D01*
Y33314D01*
X33290D01*
Y33310D01*
Y33306D01*
X33295D01*
Y33301D01*
Y33297D01*
X33299D01*
Y33292D01*
Y33288D01*
X33304D01*
Y33283D01*
X33308D01*
Y33279D01*
X33304D01*
Y33275D01*
X33312D01*
Y33270D01*
Y33266D01*
X33317D01*
Y33261D01*
Y33257D01*
X33321D01*
Y33253D01*
X33326D01*
Y33248D01*
Y33244D01*
X33330D01*
Y33239D01*
X33321D01*
Y33235D01*
X33312D01*
Y33231D01*
X33304D01*
Y33226D01*
X33299D01*
Y33222D01*
X33290D01*
Y33217D01*
X33281D01*
Y33213D01*
X33273D01*
Y33208D01*
X33268D01*
Y33204D01*
X33259D01*
Y33200D01*
X33251D01*
Y33195D01*
X33242D01*
Y33191D01*
X33237D01*
Y33186D01*
X33229D01*
Y33182D01*
X33220D01*
Y33178D01*
X33215D01*
Y33173D01*
X33207D01*
Y33169D01*
X33198D01*
Y33164D01*
X33189D01*
Y33160D01*
X33184D01*
Y33156D01*
X33176D01*
Y33151D01*
X33167D01*
Y33147D01*
X33158D01*
Y33142D01*
X33154D01*
Y33138D01*
X33145D01*
Y33134D01*
X33136D01*
Y33129D01*
X33127D01*
Y33125D01*
X33123D01*
Y33120D01*
X33114D01*
Y33116D01*
X33105D01*
Y33111D01*
X33101D01*
Y33107D01*
X33092D01*
Y33103D01*
X33083D01*
Y33098D01*
X33074D01*
Y33094D01*
X33070D01*
Y33089D01*
X33061D01*
Y33085D01*
X33052D01*
Y33081D01*
X33043D01*
Y33076D01*
X33039D01*
Y33072D01*
X33030D01*
Y33067D01*
X33021D01*
Y33063D01*
X33012D01*
Y33059D01*
X33008D01*
Y33054D01*
X32999D01*
Y33050D01*
X32990D01*
Y33045D01*
X32986D01*
Y33041D01*
X32977D01*
Y33037D01*
X32968D01*
Y33032D01*
X32960D01*
Y33028D01*
X32955D01*
Y33023D01*
X32946D01*
Y33019D01*
X32938D01*
Y33014D01*
X32929D01*
Y33010D01*
X32924D01*
Y33006D01*
X32915D01*
Y33001D01*
X32907D01*
Y32997D01*
X32902D01*
Y32992D01*
X32893D01*
Y32988D01*
X32885D01*
Y32984D01*
X32876D01*
Y32979D01*
X32871D01*
Y32975D01*
X32863D01*
Y32970D01*
X32854D01*
Y32966D01*
X32845D01*
Y32962D01*
X32840D01*
Y32957D01*
X32832D01*
Y32953D01*
X32823D01*
Y32948D01*
X32814D01*
Y32944D01*
X32810D01*
Y32940D01*
X32801D01*
Y32935D01*
X32792D01*
Y32931D01*
X32788D01*
Y32926D01*
X32779D01*
Y32922D01*
X32770D01*
Y32917D01*
X32761D01*
Y32913D01*
X32757D01*
Y32909D01*
X32748D01*
Y32904D01*
X32739D01*
Y32900D01*
X32730D01*
Y32895D01*
X32726D01*
Y32891D01*
X32717D01*
Y32887D01*
X32708D01*
Y32882D01*
X32699D01*
Y32878D01*
X32695D01*
Y32873D01*
X32686D01*
Y32869D01*
X32677D01*
Y32865D01*
X32673D01*
Y32860D01*
X32664D01*
Y32856D01*
X32655D01*
Y32851D01*
X32646D01*
Y32847D01*
X32642D01*
Y32842D01*
X32633D01*
Y32838D01*
X32624D01*
Y32834D01*
X32616D01*
Y32829D01*
X32611D01*
Y32825D01*
X32602D01*
Y32820D01*
X32594D01*
Y32816D01*
X32585D01*
Y32812D01*
X32580D01*
Y32807D01*
X32571D01*
Y32803D01*
X32563D01*
Y32798D01*
X32558D01*
Y32794D01*
X32549D01*
Y32790D01*
X32541D01*
Y32785D01*
X32532D01*
Y32781D01*
X32527D01*
Y32776D01*
X32519D01*
Y32772D01*
X32510D01*
Y32768D01*
X32501D01*
Y32763D01*
X32497D01*
Y32759D01*
X32488D01*
Y32754D01*
X32479D01*
Y32750D01*
X32474D01*
Y32745D01*
X32470D01*
Y32741D01*
Y32737D01*
X32466D01*
Y32732D01*
Y32728D01*
X32461D01*
Y32723D01*
X32457D01*
Y32719D01*
Y32715D01*
X32452D01*
Y32710D01*
Y32706D01*
X32448D01*
Y32701D01*
X32444D01*
Y32697D01*
Y32693D01*
X32439D01*
Y32688D01*
Y32684D01*
X32435D01*
Y32679D01*
Y32675D01*
X32430D01*
Y32671D01*
X32426D01*
Y32666D01*
Y32662D01*
X32422D01*
Y32657D01*
Y32653D01*
X32417D01*
Y32648D01*
Y32644D01*
X32413D01*
Y32640D01*
X32408D01*
Y32635D01*
Y32631D01*
X32404D01*
Y32626D01*
Y32622D01*
X32399D01*
Y32618D01*
X32395D01*
Y32613D01*
Y32609D01*
X32391D01*
Y32604D01*
Y32600D01*
X32386D01*
Y32596D01*
Y32591D01*
X32382D01*
Y32587D01*
X32377D01*
Y32582D01*
Y32578D01*
X32373D01*
Y32573D01*
Y32569D01*
X32369D01*
Y32565D01*
Y32560D01*
X32364D01*
Y32556D01*
X32360D01*
Y32551D01*
Y32547D01*
X32355D01*
Y32543D01*
Y32538D01*
X32351D01*
Y32534D01*
Y32529D01*
X32347D01*
Y32525D01*
X32342D01*
Y32521D01*
Y32516D01*
X32338D01*
Y32512D01*
Y32507D01*
X32333D01*
Y32503D01*
X32329D01*
Y32499D01*
Y32494D01*
X32325D01*
Y32490D01*
Y32485D01*
X32320D01*
Y32481D01*
Y32476D01*
X32316D01*
Y32472D01*
X32311D01*
Y32468D01*
Y32463D01*
X32307D01*
Y32459D01*
Y32454D01*
X32302D01*
Y32450D01*
Y32446D01*
X32298D01*
Y32441D01*
X32294D01*
Y32437D01*
Y32432D01*
X32289D01*
Y32428D01*
Y32424D01*
X32285D01*
Y32419D01*
Y32415D01*
X32280D01*
Y32410D01*
X32276D01*
Y32406D01*
Y32401D01*
X32272D01*
Y32397D01*
Y32393D01*
X32267D01*
Y32388D01*
X32263D01*
Y32384D01*
Y32379D01*
X32254D01*
Y32375D01*
X32258D01*
Y32371D01*
X32250D01*
Y32366D01*
X32254D01*
Y32362D01*
X32250D01*
Y32357D01*
X32245D01*
Y32353D01*
Y32349D01*
X32241D01*
Y32344D01*
Y32340D01*
X32236D01*
Y32335D01*
Y32331D01*
X32232D01*
Y32327D01*
X32228D01*
Y32322D01*
Y32318D01*
X32223D01*
Y32313D01*
Y32309D01*
X32219D01*
Y32304D01*
Y32300D01*
X32214D01*
Y32296D01*
X32210D01*
Y32291D01*
Y32287D01*
X32205D01*
Y32282D01*
Y32278D01*
X32201D01*
Y32274D01*
X32197D01*
Y32269D01*
Y32265D01*
X32192D01*
Y32260D01*
Y32256D01*
X32188D01*
Y32252D01*
Y32247D01*
X32183D01*
Y32243D01*
X32179D01*
Y32238D01*
Y32234D01*
X32175D01*
Y32230D01*
Y32225D01*
X32170D01*
Y32221D01*
Y32216D01*
X32166D01*
Y32212D01*
X32161D01*
Y32207D01*
Y32203D01*
X32157D01*
Y32199D01*
Y32194D01*
X32153D01*
Y32190D01*
X32148D01*
Y32185D01*
Y32181D01*
X32144D01*
Y32177D01*
Y32172D01*
X32139D01*
Y32168D01*
Y32163D01*
X32135D01*
Y32159D01*
X32130D01*
Y32155D01*
Y32150D01*
X32126D01*
Y32146D01*
Y32141D01*
X32122D01*
Y32137D01*
Y32132D01*
X32117D01*
Y32128D01*
X32113D01*
Y32124D01*
Y32119D01*
X32108D01*
Y32115D01*
Y32110D01*
X32104D01*
Y32106D01*
Y32102D01*
X32100D01*
Y32097D01*
X32095D01*
Y32093D01*
Y32088D01*
X32091D01*
Y32084D01*
Y32080D01*
X32100D01*
Y32084D01*
X32104D01*
Y32088D01*
X32113D01*
Y32093D01*
X32122D01*
Y32097D01*
X32130D01*
Y32102D01*
X32135D01*
Y32106D01*
X32144D01*
Y32110D01*
X32153D01*
Y32115D01*
X32161D01*
Y32119D01*
X32166D01*
Y32124D01*
X32175D01*
Y32128D01*
X32183D01*
Y32132D01*
X32192D01*
Y32137D01*
X32197D01*
Y32141D01*
X32205D01*
Y32146D01*
X32214D01*
Y32150D01*
X32219D01*
Y32155D01*
X32228D01*
Y32159D01*
X32236D01*
Y32163D01*
X32245D01*
Y32168D01*
X32250D01*
Y32172D01*
X32258D01*
Y32177D01*
X32267D01*
Y32181D01*
X32276D01*
Y32185D01*
X32280D01*
Y32190D01*
X32289D01*
Y32194D01*
X32298D01*
Y32199D01*
X32307D01*
Y32203D01*
X32311D01*
Y32207D01*
X32320D01*
Y32212D01*
X32329D01*
Y32216D01*
X32333D01*
Y32221D01*
X32342D01*
Y32225D01*
X32351D01*
Y32230D01*
X32360D01*
Y32234D01*
X32364D01*
Y32238D01*
X32373D01*
Y32243D01*
X32382D01*
Y32247D01*
X32391D01*
Y32252D01*
X32395D01*
Y32256D01*
X32404D01*
Y32260D01*
X32413D01*
Y32265D01*
X32417D01*
Y32269D01*
X32426D01*
Y32274D01*
X32435D01*
Y32278D01*
X32444D01*
Y32282D01*
X32448D01*
Y32287D01*
X32457D01*
Y32291D01*
X32466D01*
Y32296D01*
X32474D01*
Y32300D01*
X32479D01*
Y32304D01*
X32488D01*
Y32309D01*
X32497D01*
Y32313D01*
X32505D01*
Y32318D01*
X32510D01*
Y32322D01*
X32519D01*
Y32327D01*
X32527D01*
Y32331D01*
X32532D01*
Y32335D01*
X32541D01*
Y32340D01*
X32549D01*
Y32344D01*
X32558D01*
Y32349D01*
X32563D01*
Y32353D01*
X32571D01*
Y32357D01*
X32580D01*
Y32362D01*
X32589D01*
Y32366D01*
X32594D01*
Y32371D01*
X32602D01*
Y32375D01*
X32611D01*
Y32379D01*
X32620D01*
Y32384D01*
X32624D01*
Y32388D01*
X32633D01*
Y32393D01*
X32642D01*
Y32397D01*
X32646D01*
Y32401D01*
X32655D01*
Y32406D01*
X32664D01*
Y32410D01*
X32673D01*
Y32415D01*
X32677D01*
Y32419D01*
X32686D01*
Y32424D01*
X32695D01*
Y32428D01*
X32704D01*
Y32432D01*
X32708D01*
Y32437D01*
X32717D01*
Y32441D01*
X32726D01*
Y32446D01*
X32735D01*
Y32450D01*
X32739D01*
Y32454D01*
X32748D01*
Y32459D01*
X32757D01*
Y32463D01*
X32761D01*
Y32468D01*
X32770D01*
Y32472D01*
X32779D01*
Y32476D01*
X32788D01*
Y32481D01*
X32792D01*
Y32485D01*
X32801D01*
Y32490D01*
X32810D01*
Y32494D01*
X32818D01*
Y32499D01*
X32823D01*
Y32503D01*
X32832D01*
Y32507D01*
X32840D01*
Y32512D01*
X32845D01*
Y32516D01*
X32854D01*
Y32521D01*
X32863D01*
Y32525D01*
X32871D01*
Y32529D01*
X32876D01*
Y32534D01*
X32885D01*
Y32538D01*
X32893D01*
Y32543D01*
X32902D01*
Y32547D01*
X32907D01*
Y32551D01*
X32911D01*
Y32547D01*
X32915D01*
Y32551D01*
Y32556D01*
X32924D01*
Y32560D01*
X32933D01*
Y32565D01*
X32938D01*
Y32569D01*
X32946D01*
Y32573D01*
X32955D01*
Y32578D01*
X32960D01*
Y32582D01*
X32968D01*
Y32587D01*
X32977D01*
Y32591D01*
X32986D01*
Y32596D01*
X32990D01*
Y32600D01*
X32999D01*
Y32604D01*
X33008D01*
Y32609D01*
X33017D01*
Y32613D01*
X33021D01*
Y32618D01*
X33030D01*
Y32622D01*
X33039D01*
Y32626D01*
X33048D01*
Y32631D01*
X33052D01*
Y32635D01*
X33061D01*
Y32640D01*
X33070D01*
Y32644D01*
X33074D01*
Y32648D01*
X33083D01*
Y32653D01*
X33092D01*
Y32657D01*
X33101D01*
Y32662D01*
X33105D01*
Y32666D01*
X33114D01*
Y32671D01*
X33123D01*
Y32675D01*
X33132D01*
Y32679D01*
X33136D01*
Y32684D01*
X33145D01*
Y32688D01*
X33154D01*
Y32693D01*
X33158D01*
Y32697D01*
X33167D01*
Y32701D01*
X33176D01*
Y32706D01*
X33184D01*
Y32710D01*
X33189D01*
Y32715D01*
X33198D01*
Y32719D01*
X33207D01*
Y32723D01*
X33215D01*
Y32728D01*
X33220D01*
Y32732D01*
X33229D01*
Y32737D01*
X33237D01*
Y32741D01*
X33246D01*
Y32745D01*
X33251D01*
Y32750D01*
X33259D01*
Y32754D01*
X33268D01*
Y32759D01*
X33273D01*
Y32763D01*
X33281D01*
Y32768D01*
X33290D01*
Y32772D01*
X33299D01*
Y32776D01*
X33304D01*
Y32781D01*
X33312D01*
Y32785D01*
X33321D01*
Y32790D01*
X33330D01*
Y32794D01*
X33334D01*
Y32798D01*
X33339D01*
Y32794D01*
X33343D01*
Y32798D01*
Y32803D01*
X33352D01*
Y32807D01*
X33361D01*
Y32812D01*
X33365D01*
Y32816D01*
X33374D01*
Y32820D01*
X33383D01*
Y32825D01*
X33387D01*
Y32829D01*
X33396D01*
Y32834D01*
X33405D01*
Y32838D01*
X33414D01*
Y32842D01*
X33418D01*
Y32847D01*
X33427D01*
Y32851D01*
X33436D01*
Y32856D01*
X33445D01*
Y32860D01*
X33449D01*
Y32865D01*
X33458D01*
Y32869D01*
X33467D01*
Y32873D01*
X33475D01*
Y32878D01*
X33480D01*
Y32882D01*
X33489D01*
Y32887D01*
X33498D01*
Y32891D01*
X33502D01*
Y32895D01*
X33511D01*
Y32900D01*
X33520D01*
Y32904D01*
X33524D01*
Y32900D01*
X33528D01*
Y32895D01*
Y32891D01*
X33533D01*
Y32887D01*
X33537D01*
Y32882D01*
Y32878D01*
X33542D01*
Y32873D01*
Y32869D01*
X33546D01*
Y32865D01*
Y32860D01*
X33550D01*
Y32856D01*
X33555D01*
Y32851D01*
X33550D01*
Y32847D01*
X33559D01*
Y32842D01*
Y32838D01*
X33564D01*
Y32834D01*
Y32829D01*
X33568D01*
Y32825D01*
X33573D01*
Y32820D01*
Y32816D01*
X33577D01*
Y32812D01*
Y32807D01*
X33581D01*
Y32803D01*
X33586D01*
Y32798D01*
Y32794D01*
X33590D01*
Y32790D01*
Y32785D01*
X33595D01*
Y32781D01*
Y32776D01*
X33599D01*
Y32772D01*
X33603D01*
Y32768D01*
Y32763D01*
X33608D01*
Y32759D01*
Y32754D01*
X33612D01*
Y32750D01*
Y32745D01*
X33617D01*
Y32741D01*
X33621D01*
Y32737D01*
X33617D01*
Y32732D01*
X33625D01*
Y32728D01*
Y32723D01*
X33630D01*
Y32719D01*
Y32715D01*
X33634D01*
Y32710D01*
X33639D01*
Y32706D01*
Y32701D01*
X33643D01*
Y32697D01*
Y32693D01*
X33647D01*
Y32688D01*
X33652D01*
Y32684D01*
Y32679D01*
X33656D01*
Y32675D01*
Y32671D01*
X33661D01*
Y32666D01*
Y32662D01*
X33665D01*
Y32657D01*
X33670D01*
Y32653D01*
X33665D01*
Y32648D01*
X33674D01*
Y32644D01*
Y32640D01*
X33678D01*
Y32635D01*
Y32631D01*
X33683D01*
Y32626D01*
X33687D01*
Y32622D01*
X33683D01*
Y32618D01*
X33692D01*
Y32613D01*
Y32609D01*
X33696D01*
Y32604D01*
X33700D01*
Y32600D01*
Y32596D01*
X33705D01*
Y32591D01*
Y32587D01*
X33709D01*
Y32582D01*
Y32578D01*
X33714D01*
Y32573D01*
X33718D01*
Y32569D01*
Y32565D01*
X33722D01*
Y32560D01*
Y32556D01*
X33727D01*
Y32551D01*
Y32547D01*
X33731D01*
Y32543D01*
X33736D01*
Y32538D01*
X33731D01*
Y32534D01*
X33740D01*
Y32529D01*
Y32525D01*
X33744D01*
Y32521D01*
Y32516D01*
X33749D01*
Y32512D01*
X33753D01*
Y32507D01*
Y32503D01*
X33758D01*
Y32499D01*
Y32494D01*
X33762D01*
Y32490D01*
X33767D01*
Y32485D01*
Y32481D01*
X33771D01*
Y32476D01*
Y32472D01*
X33775D01*
Y32468D01*
Y32463D01*
X33780D01*
Y32459D01*
X33784D01*
Y32454D01*
Y32450D01*
X33789D01*
Y32446D01*
Y32441D01*
X33793D01*
Y32437D01*
Y32432D01*
X33797D01*
Y32428D01*
X33802D01*
Y32424D01*
X33797D01*
Y32419D01*
X33806D01*
Y32415D01*
Y32410D01*
X33811D01*
Y32406D01*
Y32401D01*
X33815D01*
Y32397D01*
X33819D01*
Y32393D01*
Y32388D01*
X33824D01*
Y32384D01*
Y32379D01*
X33828D01*
Y32375D01*
X33833D01*
Y32371D01*
Y32366D01*
X33837D01*
Y32362D01*
Y32357D01*
X33842D01*
Y32353D01*
Y32349D01*
X33846D01*
Y32344D01*
X33850D01*
Y32340D01*
X33846D01*
Y32335D01*
X33855D01*
Y32331D01*
Y32327D01*
X33859D01*
Y32322D01*
Y32318D01*
X33864D01*
Y32313D01*
X33868D01*
Y32309D01*
Y32304D01*
X33872D01*
Y32300D01*
Y32296D01*
X33877D01*
Y32291D01*
X33881D01*
Y32287D01*
Y32282D01*
X33886D01*
Y32278D01*
Y32274D01*
X33890D01*
Y32269D01*
Y32265D01*
X33894D01*
Y32260D01*
X33899D01*
Y32256D01*
Y32252D01*
X33903D01*
Y32247D01*
Y32243D01*
X33908D01*
Y32238D01*
Y32234D01*
X33912D01*
Y32230D01*
X33916D01*
Y32225D01*
X33912D01*
Y32221D01*
X33921D01*
Y32216D01*
Y32212D01*
X33925D01*
Y32207D01*
Y32203D01*
X33930D01*
Y32199D01*
X33934D01*
Y32194D01*
Y32190D01*
X33939D01*
Y32185D01*
Y32181D01*
X33943D01*
Y32177D01*
X33947D01*
Y32172D01*
Y32168D01*
X33952D01*
Y32163D01*
Y32159D01*
X33956D01*
Y32155D01*
Y32150D01*
X33961D01*
Y32146D01*
X33965D01*
Y32141D01*
Y32137D01*
X33969D01*
Y32132D01*
Y32128D01*
X33974D01*
Y32124D01*
Y32119D01*
X33978D01*
Y32115D01*
X33983D01*
Y32110D01*
X33978D01*
Y32106D01*
X33987D01*
Y32102D01*
Y32097D01*
X33991D01*
Y32093D01*
Y32088D01*
X33996D01*
Y32084D01*
X34000D01*
Y32080D01*
Y32075D01*
X34005D01*
Y32071D01*
Y32066D01*
X34009D01*
Y32062D01*
X34014D01*
Y32058D01*
Y32053D01*
X34018D01*
Y32049D01*
Y32044D01*
X34022D01*
Y32040D01*
Y32035D01*
X34027D01*
Y32031D01*
X34031D01*
Y32027D01*
Y32022D01*
X34036D01*
Y32018D01*
Y32013D01*
X34040D01*
Y32009D01*
Y32005D01*
X34044D01*
Y32000D01*
X34049D01*
Y31996D01*
X34044D01*
Y31991D01*
X34053D01*
Y31987D01*
Y31983D01*
X34058D01*
Y31978D01*
X34053D01*
Y31974D01*
X34049D01*
Y31969D01*
Y31965D01*
X34044D01*
Y31961D01*
X34040D01*
Y31956D01*
X34036D01*
Y31952D01*
Y31947D01*
X34031D01*
Y31943D01*
X34027D01*
Y31938D01*
X34022D01*
Y31934D01*
X34018D01*
Y31930D01*
Y31925D01*
X34014D01*
Y31921D01*
X34009D01*
Y31916D01*
X34005D01*
Y31912D01*
X33996D01*
Y31908D01*
Y31903D01*
Y31899D01*
X33991D01*
Y31894D01*
X33987D01*
Y31890D01*
X33983D01*
Y31886D01*
X33978D01*
Y31881D01*
X33974D01*
Y31877D01*
X33969D01*
Y31872D01*
X33965D01*
Y31868D01*
X33961D01*
Y31863D01*
Y31859D01*
X33956D01*
Y31855D01*
X33952D01*
Y31850D01*
X33947D01*
Y31846D01*
X33943D01*
Y31841D01*
X33939D01*
Y31837D01*
X33934D01*
Y31833D01*
X33930D01*
Y31828D01*
X33925D01*
Y31824D01*
X33921D01*
Y31819D01*
X33916D01*
Y31815D01*
X33912D01*
Y31811D01*
X33908D01*
Y31806D01*
X33903D01*
Y31802D01*
X33899D01*
Y31797D01*
X33894D01*
Y31793D01*
X33890D01*
Y31789D01*
X33881D01*
Y31784D01*
X33877D01*
Y31780D01*
X33872D01*
Y31775D01*
X33868D01*
Y31771D01*
X33864D01*
Y31766D01*
X33859D01*
Y31762D01*
X33855D01*
Y31758D01*
X33850D01*
Y31753D01*
X33842D01*
Y31749D01*
X33837D01*
Y31744D01*
X33833D01*
Y31740D01*
X33828D01*
Y31736D01*
X33824D01*
Y31731D01*
X33815D01*
Y31727D01*
X33811D01*
Y31722D01*
X33806D01*
Y31718D01*
X33802D01*
Y31714D01*
X33793D01*
Y31709D01*
X33789D01*
Y31705D01*
X33784D01*
Y31700D01*
X33775D01*
Y31696D01*
X33771D01*
Y31692D01*
X33767D01*
Y31687D01*
X33758D01*
Y31683D01*
X33753D01*
Y31678D01*
X33749D01*
Y31674D01*
X33740D01*
Y31669D01*
X33736D01*
Y31665D01*
X33727D01*
Y31661D01*
X33722D01*
Y31656D01*
X33714D01*
Y31652D01*
X33709D01*
Y31647D01*
X33700D01*
Y31643D01*
X33696D01*
Y31639D01*
X33687D01*
Y31634D01*
X33683D01*
Y31630D01*
X33674D01*
Y31625D01*
X33665D01*
Y31621D01*
X33661D01*
Y31617D01*
X33652D01*
Y31612D01*
X33643D01*
Y31608D01*
X33639D01*
Y31603D01*
X33630D01*
Y31599D01*
X33621D01*
Y31594D01*
X33612D01*
Y31590D01*
X33608D01*
Y31586D01*
X33599D01*
Y31581D01*
X33590D01*
Y31577D01*
X33581D01*
Y31572D01*
X33573D01*
Y31568D01*
X33564D01*
Y31564D01*
X33555D01*
Y31559D01*
X33546D01*
Y31555D01*
X33537D01*
Y31550D01*
X33528D01*
Y31546D01*
X33515D01*
Y31542D01*
X33506D01*
Y31537D01*
X33498D01*
Y31533D01*
X33489D01*
Y31528D01*
X33475D01*
Y31524D01*
X33467D01*
Y31520D01*
X33453D01*
Y31515D01*
X33445D01*
Y31511D01*
X33431D01*
Y31506D01*
X33418D01*
Y31502D01*
X33405D01*
Y31497D01*
X33396D01*
Y31493D01*
X33383D01*
Y31489D01*
X33365D01*
Y31484D01*
X33352D01*
Y31480D01*
X33339D01*
Y31475D01*
X33321D01*
Y31471D01*
X33308D01*
Y31467D01*
X33290D01*
Y31462D01*
X33273D01*
Y31458D01*
X33255D01*
Y31453D01*
X33233D01*
Y31449D01*
X33211D01*
Y31445D01*
X33184D01*
Y31440D01*
X33158D01*
Y31436D01*
X33127D01*
Y31431D01*
X33087D01*
Y31427D01*
X33035D01*
Y31423D01*
X32867D01*
Y31427D01*
X32814D01*
Y31431D01*
X32774D01*
Y31436D01*
X32743D01*
Y31440D01*
X32717D01*
Y31445D01*
X32691D01*
Y31449D01*
X32668D01*
Y31453D01*
X32646D01*
Y31458D01*
X32629D01*
Y31462D01*
X32611D01*
Y31467D01*
X32594D01*
Y31471D01*
X32580D01*
Y31475D01*
X32563D01*
Y31480D01*
X32549D01*
Y31484D01*
X32536D01*
Y31489D01*
X32519D01*
Y31493D01*
X32505D01*
Y31497D01*
X32497D01*
Y31502D01*
X32483D01*
Y31506D01*
X32470D01*
Y31511D01*
X32457D01*
Y31515D01*
X32448D01*
Y31520D01*
X32435D01*
Y31524D01*
X32426D01*
Y31528D01*
X32413D01*
Y31533D01*
X32404D01*
Y31537D01*
X32395D01*
Y31542D01*
X32386D01*
Y31546D01*
X32373D01*
Y31550D01*
X32364D01*
Y31555D01*
X32355D01*
Y31559D01*
X32347D01*
Y31564D01*
X32338D01*
Y31568D01*
X32329D01*
Y31572D01*
X32320D01*
Y31577D01*
X32311D01*
Y31581D01*
X32302D01*
Y31586D01*
X32294D01*
Y31590D01*
X32289D01*
Y31594D01*
X32280D01*
Y31599D01*
X32272D01*
Y31603D01*
X32263D01*
Y31608D01*
X32258D01*
Y31612D01*
X32250D01*
Y31617D01*
X32241D01*
Y31621D01*
X32236D01*
Y31625D01*
X32228D01*
Y31630D01*
X32219D01*
Y31634D01*
X32214D01*
Y31639D01*
X32205D01*
Y31643D01*
X32201D01*
Y31647D01*
X32192D01*
Y31652D01*
X32188D01*
Y31656D01*
X32179D01*
Y31661D01*
X32175D01*
Y31665D01*
X32166D01*
Y31669D01*
X32161D01*
Y31674D01*
X32153D01*
Y31678D01*
X32148D01*
Y31683D01*
X32144D01*
Y31687D01*
X32135D01*
Y31692D01*
X32130D01*
Y31696D01*
X32126D01*
Y31700D01*
X32117D01*
Y31705D01*
X32113D01*
Y31709D01*
X32108D01*
Y31714D01*
X32100D01*
Y31718D01*
X32095D01*
Y31722D01*
X32091D01*
Y31727D01*
X32086D01*
Y31731D01*
X32078D01*
Y31736D01*
X32073D01*
Y31740D01*
X32069D01*
Y31744D01*
X32064D01*
Y31749D01*
X32060D01*
Y31753D01*
X32051D01*
Y31758D01*
X32047D01*
Y31762D01*
X32042D01*
Y31766D01*
X32038D01*
Y31771D01*
X32033D01*
Y31775D01*
X32029D01*
Y31780D01*
X32025D01*
Y31784D01*
X32020D01*
Y31789D01*
X32011D01*
Y31793D01*
X32007D01*
Y31797D01*
X32003D01*
Y31802D01*
X31998D01*
Y31806D01*
X31994D01*
Y31811D01*
X31989D01*
Y31815D01*
X31985D01*
Y31819D01*
X31981D01*
Y31824D01*
X31976D01*
Y31828D01*
X31972D01*
Y31833D01*
X31967D01*
Y31837D01*
X31963D01*
Y31841D01*
X31959D01*
Y31846D01*
X31954D01*
Y31850D01*
X31950D01*
Y31855D01*
X31945D01*
Y31859D01*
X31941D01*
Y31863D01*
Y31868D01*
X31936D01*
Y31872D01*
X31932D01*
Y31877D01*
X31928D01*
Y31881D01*
X31923D01*
Y31886D01*
X31919D01*
Y31890D01*
X31914D01*
Y31894D01*
X31910D01*
Y31899D01*
X31906D01*
Y31903D01*
Y31908D01*
Y31912D01*
X31897D01*
Y31916D01*
X31892D01*
Y31921D01*
X31888D01*
Y31925D01*
X31884D01*
Y31930D01*
Y31934D01*
X31879D01*
Y31938D01*
X31875D01*
Y31943D01*
X31870D01*
Y31947D01*
X31866D01*
Y31952D01*
Y31956D01*
X31861D01*
Y31961D01*
X31857D01*
Y31965D01*
X31853D01*
Y31969D01*
Y31974D01*
X31848D01*
Y31978D01*
X31844D01*
Y31983D01*
X31848D01*
Y31987D01*
Y31991D01*
X31853D01*
Y31996D01*
Y32000D01*
X31857D01*
Y32005D01*
X31861D01*
Y32009D01*
Y32013D01*
X31866D01*
Y32018D01*
Y32022D01*
X31875D01*
Y32027D01*
X31870D01*
Y32031D01*
X31875D01*
Y32035D01*
X31879D01*
Y32040D01*
Y32044D01*
X31884D01*
Y32049D01*
Y32053D01*
X31888D01*
Y32058D01*
Y32062D01*
X31892D01*
Y32066D01*
X31897D01*
Y32071D01*
Y32075D01*
X31901D01*
Y32080D01*
Y32084D01*
X31906D01*
Y32088D01*
X31910D01*
Y32093D01*
Y32097D01*
X31914D01*
Y32102D01*
Y32106D01*
X31919D01*
Y32110D01*
Y32115D01*
X31923D01*
Y32119D01*
X31928D01*
Y32124D01*
Y32128D01*
X31932D01*
Y32132D01*
Y32137D01*
X31936D01*
Y32141D01*
Y32146D01*
X31941D01*
Y32150D01*
X31945D01*
Y32155D01*
Y32159D01*
X31950D01*
Y32163D01*
Y32168D01*
X31954D01*
Y32172D01*
Y32177D01*
X31959D01*
Y32181D01*
X31963D01*
Y32185D01*
Y32190D01*
X31967D01*
Y32194D01*
Y32199D01*
X31972D01*
Y32203D01*
X31976D01*
Y32207D01*
Y32212D01*
X31981D01*
Y32216D01*
Y32221D01*
X31989D01*
Y32225D01*
X31985D01*
Y32230D01*
X31989D01*
Y32234D01*
X31994D01*
Y32238D01*
Y32243D01*
X31998D01*
Y32247D01*
Y32252D01*
X32003D01*
Y32256D01*
Y32260D01*
X32007D01*
Y32265D01*
X32011D01*
Y32269D01*
Y32274D01*
X32016D01*
Y32278D01*
Y32282D01*
X32020D01*
Y32287D01*
Y32291D01*
X32025D01*
Y32296D01*
X32029D01*
Y32300D01*
Y32304D01*
X32033D01*
Y32309D01*
Y32313D01*
X32038D01*
Y32318D01*
X32042D01*
Y32322D01*
Y32327D01*
X32047D01*
Y32331D01*
Y32335D01*
X32056D01*
Y32340D01*
X32051D01*
Y32344D01*
X32056D01*
Y32349D01*
X32060D01*
Y32353D01*
Y32357D01*
X32064D01*
Y32362D01*
Y32366D01*
X32069D01*
Y32371D01*
Y32375D01*
X32073D01*
Y32379D01*
X32078D01*
Y32384D01*
Y32388D01*
X32082D01*
Y32393D01*
Y32397D01*
X32086D01*
Y32401D01*
Y32406D01*
X32091D01*
Y32410D01*
X32095D01*
Y32415D01*
Y32419D01*
X32100D01*
Y32424D01*
Y32428D01*
X32104D01*
Y32432D01*
X32108D01*
Y32437D01*
Y32441D01*
X32113D01*
Y32446D01*
Y32450D01*
X32117D01*
Y32454D01*
Y32459D01*
X32122D01*
Y32463D01*
X32126D01*
Y32468D01*
Y32472D01*
X32130D01*
Y32476D01*
Y32481D01*
X32135D01*
Y32485D01*
Y32490D01*
X32139D01*
Y32494D01*
X32144D01*
Y32499D01*
Y32503D01*
X32148D01*
Y32507D01*
Y32512D01*
X32153D01*
Y32516D01*
X32157D01*
Y32521D01*
Y32525D01*
X32161D01*
Y32529D01*
Y32534D01*
X32170D01*
Y32538D01*
X32166D01*
Y32543D01*
X32170D01*
Y32547D01*
X32175D01*
Y32551D01*
Y32556D01*
X32179D01*
Y32560D01*
Y32565D01*
X32183D01*
Y32569D01*
Y32573D01*
X32188D01*
Y32578D01*
X32192D01*
Y32582D01*
Y32587D01*
X32197D01*
Y32591D01*
Y32596D01*
X32201D01*
Y32600D01*
Y32604D01*
X32205D01*
Y32609D01*
X32210D01*
Y32613D01*
Y32618D01*
X32214D01*
Y32622D01*
Y32626D01*
X32219D01*
Y32631D01*
Y32635D01*
X32223D01*
Y32640D01*
X32228D01*
Y32644D01*
Y32648D01*
X32232D01*
Y32653D01*
Y32657D01*
X32236D01*
Y32662D01*
X32241D01*
Y32666D01*
Y32671D01*
X32245D01*
Y32675D01*
Y32679D01*
X32254D01*
Y32684D01*
X32250D01*
Y32688D01*
X32254D01*
Y32693D01*
X32258D01*
Y32697D01*
Y32701D01*
X32263D01*
Y32706D01*
Y32710D01*
X32267D01*
Y32715D01*
Y32719D01*
X32272D01*
Y32723D01*
X32276D01*
Y32728D01*
Y32732D01*
X32280D01*
Y32737D01*
Y32741D01*
X32285D01*
Y32745D01*
Y32750D01*
X32289D01*
Y32754D01*
X32294D01*
Y32759D01*
Y32763D01*
X32298D01*
Y32768D01*
Y32772D01*
X32302D01*
Y32776D01*
X32307D01*
Y32781D01*
Y32785D01*
X32311D01*
Y32790D01*
Y32794D01*
X32316D01*
Y32798D01*
Y32803D01*
X32320D01*
Y32807D01*
X32325D01*
Y32812D01*
Y32816D01*
X32329D01*
Y32820D01*
Y32825D01*
X32333D01*
Y32829D01*
Y32834D01*
X32338D01*
Y32838D01*
X32342D01*
Y32842D01*
Y32847D01*
X32347D01*
Y32851D01*
Y32856D01*
X32351D01*
Y32860D01*
Y32865D01*
X32355D01*
Y32869D01*
X32360D01*
Y32873D01*
Y32878D01*
X32364D01*
Y32882D01*
Y32887D01*
X32369D01*
Y32891D01*
X32373D01*
Y32895D01*
Y32900D01*
X32377D01*
Y32904D01*
Y32909D01*
X32382D01*
Y32913D01*
Y32917D01*
X32386D01*
Y32922D01*
X32391D01*
Y32926D01*
Y32931D01*
X32395D01*
Y32935D01*
Y32940D01*
X32399D01*
Y32944D01*
Y32948D01*
X32404D01*
Y32953D01*
X32408D01*
Y32957D01*
Y32962D01*
X32413D01*
Y32966D01*
Y32970D01*
X32417D01*
Y32975D01*
X32422D01*
Y32979D01*
Y32984D01*
X32426D01*
Y32988D01*
Y32992D01*
X32430D01*
Y32997D01*
Y33001D01*
X32435D01*
Y33006D01*
X32439D01*
Y33010D01*
Y33014D01*
X32444D01*
Y33019D01*
Y33023D01*
X32448D01*
Y33028D01*
Y33032D01*
X32452D01*
Y33037D01*
X32457D01*
Y33041D01*
Y33045D01*
X32461D01*
Y33050D01*
Y33054D01*
X32466D01*
Y33059D01*
X32470D01*
Y33063D01*
Y33067D01*
X32474D01*
Y33072D01*
Y33076D01*
X32479D01*
Y33081D01*
Y33085D01*
X32483D01*
Y33089D01*
X32488D01*
Y33094D01*
Y33098D01*
X32492D01*
Y33103D01*
Y33107D01*
X32497D01*
Y33111D01*
Y33116D01*
X32501D01*
Y33120D01*
X32505D01*
Y33125D01*
Y33129D01*
X32510D01*
Y33134D01*
Y33138D01*
X32514D01*
Y33142D01*
Y33147D01*
X32519D01*
Y33151D01*
X32523D01*
Y33156D01*
Y33160D01*
X32527D01*
Y33164D01*
Y33169D01*
X32532D01*
Y33173D01*
X32536D01*
Y33178D01*
Y33182D01*
X32541D01*
Y33186D01*
Y33191D01*
X32549D01*
Y33195D01*
X32545D01*
Y33200D01*
X32549D01*
Y33204D01*
X32554D01*
Y33208D01*
Y33213D01*
X32558D01*
Y33217D01*
Y33222D01*
X32563D01*
Y33226D01*
Y33231D01*
X32567D01*
Y33235D01*
X32571D01*
Y33239D01*
Y33244D01*
X32576D01*
Y33248D01*
Y33253D01*
X32580D01*
Y33257D01*
Y33261D01*
X32585D01*
Y33266D01*
X32589D01*
Y33270D01*
Y33275D01*
X32594D01*
Y33279D01*
Y33283D01*
X32598D01*
Y33288D01*
X32602D01*
Y33292D01*
Y33297D01*
X32607D01*
Y33301D01*
Y33306D01*
X32611D01*
Y33310D01*
Y33314D01*
X32616D01*
Y33319D01*
X32620D01*
Y33323D01*
Y33328D01*
X32624D01*
Y33332D01*
Y33336D01*
X32629D01*
Y33341D01*
Y33345D01*
X32633D01*
Y33350D01*
X32638D01*
Y33354D01*
Y33358D01*
X32642D01*
Y33363D01*
Y33367D01*
X32646D01*
Y33372D01*
X32651D01*
Y33376D01*
Y33380D01*
X32655D01*
Y33385D01*
Y33389D01*
X32660D01*
Y33394D01*
Y33398D01*
X32664D01*
Y33403D01*
X32668D01*
Y33407D01*
Y33411D01*
X32677D01*
Y33416D01*
X32673D01*
Y33420D01*
X32677D01*
Y33425D01*
Y33429D01*
X32682D01*
Y33433D01*
X32686D01*
Y33438D01*
Y33442D01*
X32691D01*
Y33447D01*
Y33451D01*
X32695D01*
Y33455D01*
Y33460D01*
X32699D01*
Y33464D01*
X32704D01*
Y33469D01*
Y33473D01*
X32708D01*
Y33477D01*
Y33482D01*
X32713D01*
Y33486D01*
X32717D01*
Y33491D01*
Y33495D01*
X32721D01*
Y33500D01*
Y33504D01*
X32730D01*
Y33508D01*
X32726D01*
Y33513D01*
X32730D01*
Y33517D01*
X32735D01*
Y33522D01*
Y33526D01*
X32739D01*
Y33530D01*
Y33535D01*
X32743D01*
Y33539D01*
Y33544D01*
X32748D01*
Y33548D01*
X32752D01*
Y33552D01*
Y33557D01*
X32757D01*
Y33561D01*
Y33566D01*
X32761D01*
Y33570D01*
X32766D01*
Y33575D01*
Y33579D01*
X32770D01*
Y33583D01*
Y33588D01*
X32779D01*
Y33592D01*
X32774D01*
Y33597D01*
X32779D01*
Y33601D01*
X32783D01*
Y33605D01*
Y33610D01*
X32788D01*
Y33614D01*
Y33619D01*
X32792D01*
Y33623D01*
Y33627D01*
X32796D01*
Y33632D01*
X32801D01*
Y33636D01*
Y33641D01*
X32805D01*
Y33645D01*
Y33649D01*
X32810D01*
Y33654D01*
Y33658D01*
X32814D01*
Y33663D01*
X32818D01*
Y33667D01*
Y33672D01*
X32823D01*
Y33676D01*
Y33680D01*
X32827D01*
Y33685D01*
X32832D01*
Y33689D01*
Y33694D01*
X32836D01*
Y33698D01*
Y33702D01*
X32845D01*
Y33707D01*
X32840D01*
Y33711D01*
X32845D01*
Y33716D01*
X32849D01*
Y33720D01*
Y33724D01*
X32854D01*
Y33729D01*
Y33733D01*
X32858D01*
Y33738D01*
Y33742D01*
X32863D01*
Y33747D01*
X32867D01*
Y33751D01*
Y33755D01*
X32871D01*
Y33760D01*
Y33764D01*
X32876D01*
Y33769D01*
Y33773D01*
X32880D01*
Y33777D01*
X32885D01*
Y33782D01*
Y33786D01*
X32889D01*
Y33791D01*
Y33795D01*
X32893D01*
Y33799D01*
X32898D01*
Y33804D01*
Y33808D01*
X32902D01*
Y33813D01*
Y33817D01*
X32911D01*
Y33821D01*
X32907D01*
Y33826D01*
X32911D01*
Y33830D01*
X32915D01*
Y33835D01*
Y33839D01*
X32920D01*
Y33844D01*
Y33848D01*
X32924D01*
Y33852D01*
Y33857D01*
X32929D01*
Y33861D01*
X32933D01*
Y33866D01*
Y33870D01*
X32938D01*
Y33874D01*
Y33879D01*
X32942D01*
Y33883D01*
X32946D01*
Y33888D01*
Y33892D01*
X32955D01*
Y33888D01*
D02*
G37*
G36*
X32995Y34778D02*
X33092D01*
Y34774D01*
X33145D01*
Y34770D01*
X33184D01*
Y34765D01*
X33220D01*
Y34761D01*
X33251D01*
Y34756D01*
X33277D01*
Y34752D01*
X33304D01*
Y34748D01*
X33326D01*
Y34743D01*
X33348D01*
Y34739D01*
X33370D01*
Y34734D01*
X33392D01*
Y34730D01*
X33409D01*
Y34725D01*
X33427D01*
Y34721D01*
X33445D01*
Y34717D01*
X33462D01*
Y34712D01*
X33480D01*
Y34708D01*
X33493D01*
Y34703D01*
X33511D01*
Y34699D01*
X33524D01*
Y34695D01*
X33537D01*
Y34690D01*
X33550D01*
Y34686D01*
X33564D01*
Y34681D01*
X33581D01*
Y34677D01*
X33590D01*
Y34673D01*
X33603D01*
Y34668D01*
X33617D01*
Y34664D01*
X33630D01*
Y34659D01*
X33643D01*
Y34655D01*
X33652D01*
Y34651D01*
X33665D01*
Y34646D01*
X33678D01*
Y34642D01*
X33687D01*
Y34637D01*
X33700D01*
Y34633D01*
X33709D01*
Y34628D01*
X33718D01*
Y34624D01*
X33731D01*
Y34620D01*
X33740D01*
Y34615D01*
X33749D01*
Y34611D01*
X33762D01*
Y34606D01*
X33771D01*
Y34602D01*
X33780D01*
Y34598D01*
X33789D01*
Y34593D01*
X33797D01*
Y34589D01*
X33806D01*
Y34584D01*
X33815D01*
Y34580D01*
X33828D01*
Y34576D01*
X33837D01*
Y34571D01*
X33846D01*
Y34567D01*
X33855D01*
Y34562D01*
X33859D01*
Y34558D01*
X33868D01*
Y34553D01*
X33877D01*
Y34549D01*
X33886D01*
Y34545D01*
X33894D01*
Y34540D01*
X33903D01*
Y34536D01*
X33912D01*
Y34531D01*
X33916D01*
Y34527D01*
X33925D01*
Y34523D01*
X33934D01*
Y34518D01*
X33943D01*
Y34514D01*
X33947D01*
Y34509D01*
X33956D01*
Y34505D01*
X33965D01*
Y34501D01*
X33969D01*
Y34496D01*
X33978D01*
Y34492D01*
X33987D01*
Y34487D01*
X33991D01*
Y34483D01*
X34000D01*
Y34479D01*
X34009D01*
Y34474D01*
X34014D01*
Y34470D01*
X34022D01*
Y34465D01*
X34027D01*
Y34461D01*
X34036D01*
Y34456D01*
X34040D01*
Y34452D01*
X34049D01*
Y34448D01*
X34053D01*
Y34443D01*
X34062D01*
Y34439D01*
X34066D01*
Y34434D01*
X34075D01*
Y34430D01*
X34080D01*
Y34426D01*
X34088D01*
Y34421D01*
X34093D01*
Y34417D01*
X34097D01*
Y34412D01*
X34106D01*
Y34408D01*
X34111D01*
Y34404D01*
X34119D01*
Y34399D01*
X34124D01*
Y34395D01*
X34128D01*
Y34390D01*
X34137D01*
Y34386D01*
X34141D01*
Y34382D01*
X34146D01*
Y34377D01*
X34155D01*
Y34373D01*
X34159D01*
Y34368D01*
X34163D01*
Y34364D01*
X34168D01*
Y34359D01*
X34177D01*
Y34355D01*
X34181D01*
Y34351D01*
X34185D01*
Y34346D01*
X34194D01*
Y34342D01*
X34199D01*
Y34337D01*
X34203D01*
Y34333D01*
X34208D01*
Y34329D01*
X34212D01*
Y34324D01*
X34221D01*
Y34320D01*
X34225D01*
Y34315D01*
X34230D01*
Y34311D01*
X34234D01*
Y34307D01*
X34238D01*
Y34302D01*
X34247D01*
Y34298D01*
X34252D01*
Y34293D01*
X34256D01*
Y34289D01*
X34260D01*
Y34285D01*
X34265D01*
Y34280D01*
X34269D01*
Y34276D01*
X34274D01*
Y34271D01*
X34278D01*
Y34267D01*
X34287D01*
Y34262D01*
X34291D01*
Y34258D01*
X34296D01*
Y34254D01*
X34300D01*
Y34249D01*
X34305D01*
Y34245D01*
X34309D01*
Y34240D01*
X34313D01*
Y34236D01*
X34318D01*
Y34232D01*
X34322D01*
Y34227D01*
X34327D01*
Y34223D01*
X34331D01*
Y34218D01*
X34335D01*
Y34214D01*
X34340D01*
Y34210D01*
X34344D01*
Y34205D01*
X34349D01*
Y34201D01*
X34353D01*
Y34196D01*
X34357D01*
Y34192D01*
X34362D01*
Y34187D01*
X34366D01*
Y34183D01*
X34371D01*
Y34179D01*
X34375D01*
Y34174D01*
X34380D01*
Y34170D01*
X34384D01*
Y34165D01*
X34388D01*
Y34161D01*
X34393D01*
Y34157D01*
X34397D01*
Y34152D01*
X34402D01*
Y34148D01*
X34406D01*
Y34143D01*
X34410D01*
Y34139D01*
X34415D01*
Y34135D01*
X34419D01*
Y34130D01*
X34415D01*
Y34126D01*
X34424D01*
Y34121D01*
X34428D01*
Y34117D01*
X34432D01*
Y34113D01*
X34437D01*
Y34108D01*
X34441D01*
Y34104D01*
X34446D01*
Y34099D01*
X34450D01*
Y34095D01*
X34454D01*
Y34090D01*
Y34086D01*
X34459D01*
Y34082D01*
X34463D01*
Y34077D01*
X34468D01*
Y34073D01*
X34472D01*
Y34068D01*
X34477D01*
Y34064D01*
Y34060D01*
X34481D01*
Y34055D01*
X34485D01*
Y34051D01*
X34490D01*
Y34046D01*
X34494D01*
Y34042D01*
X34499D01*
Y34038D01*
Y34033D01*
X34503D01*
Y34029D01*
X34507D01*
Y34024D01*
X34512D01*
Y34020D01*
Y34016D01*
X34516D01*
Y34011D01*
X34521D01*
Y34007D01*
X34525D01*
Y34002D01*
X34529D01*
Y33998D01*
Y33993D01*
X34534D01*
Y33989D01*
X34538D01*
Y33985D01*
X34543D01*
Y33980D01*
Y33976D01*
X34547D01*
Y33971D01*
X34551D01*
Y33967D01*
X34556D01*
Y33963D01*
Y33958D01*
X34560D01*
Y33954D01*
X34565D01*
Y33949D01*
Y33945D01*
X34569D01*
Y33941D01*
X34574D01*
Y33936D01*
X34578D01*
Y33932D01*
Y33927D01*
X34582D01*
Y33923D01*
X34587D01*
Y33918D01*
Y33914D01*
X34591D01*
Y33910D01*
X34596D01*
Y33905D01*
Y33901D01*
X34600D01*
Y33896D01*
X34604D01*
Y33892D01*
Y33888D01*
X34609D01*
Y33883D01*
X34613D01*
Y33879D01*
Y33874D01*
X34618D01*
Y33870D01*
X34622D01*
Y33866D01*
Y33861D01*
X34626D01*
Y33857D01*
X34631D01*
Y33852D01*
Y33848D01*
X34635D01*
Y33844D01*
Y33839D01*
X34640D01*
Y33835D01*
X34644D01*
Y33830D01*
Y33826D01*
X34649D01*
Y33821D01*
Y33817D01*
X34653D01*
Y33813D01*
X34657D01*
Y33808D01*
Y33804D01*
X34662D01*
Y33799D01*
Y33795D01*
X34666D01*
Y33791D01*
X34671D01*
Y33786D01*
Y33782D01*
X34675D01*
Y33777D01*
Y33773D01*
X34679D01*
Y33769D01*
Y33764D01*
X34684D01*
Y33760D01*
X34688D01*
Y33755D01*
Y33751D01*
X34693D01*
Y33747D01*
Y33742D01*
X34697D01*
Y33738D01*
Y33733D01*
X34701D01*
Y33729D01*
Y33724D01*
X34706D01*
Y33720D01*
Y33716D01*
X34710D01*
Y33711D01*
Y33707D01*
X34715D01*
Y33702D01*
Y33698D01*
X34719D01*
Y33694D01*
Y33689D01*
X34723D01*
Y33685D01*
Y33680D01*
X34728D01*
Y33676D01*
Y33672D01*
X34732D01*
Y33667D01*
Y33663D01*
X34737D01*
Y33658D01*
Y33654D01*
X34741D01*
Y33649D01*
Y33645D01*
X34746D01*
Y33641D01*
Y33636D01*
X34750D01*
Y33632D01*
Y33627D01*
X34754D01*
Y33623D01*
Y33619D01*
X34759D01*
Y33614D01*
Y33610D01*
X34763D01*
Y33605D01*
Y33601D01*
Y33597D01*
X34768D01*
Y33592D01*
Y33588D01*
X34772D01*
Y33583D01*
Y33579D01*
X34776D01*
Y33575D01*
Y33570D01*
Y33566D01*
X34781D01*
Y33561D01*
Y33557D01*
X34785D01*
Y33552D01*
Y33548D01*
X34790D01*
Y33544D01*
Y33539D01*
Y33535D01*
X34794D01*
Y33530D01*
Y33526D01*
X34798D01*
Y33522D01*
Y33517D01*
Y33513D01*
X34803D01*
Y33508D01*
Y33504D01*
Y33500D01*
X34807D01*
Y33495D01*
Y33491D01*
X34812D01*
Y33486D01*
Y33482D01*
Y33477D01*
X34816D01*
Y33473D01*
Y33469D01*
Y33464D01*
X34820D01*
Y33460D01*
Y33455D01*
Y33451D01*
X34825D01*
Y33447D01*
Y33442D01*
Y33438D01*
X34829D01*
Y33433D01*
Y33429D01*
X34834D01*
Y33425D01*
Y33420D01*
Y33416D01*
X34838D01*
Y33411D01*
Y33407D01*
Y33403D01*
Y33398D01*
X34843D01*
Y33394D01*
Y33389D01*
Y33385D01*
X34847D01*
Y33380D01*
Y33376D01*
Y33372D01*
X34851D01*
Y33367D01*
Y33363D01*
Y33358D01*
X34856D01*
Y33354D01*
Y33350D01*
Y33345D01*
Y33341D01*
X34860D01*
Y33336D01*
Y33332D01*
Y33328D01*
X34865D01*
Y33323D01*
Y33319D01*
Y33314D01*
Y33310D01*
X34869D01*
Y33306D01*
Y33301D01*
Y33297D01*
Y33292D01*
X34873D01*
Y33288D01*
Y33283D01*
Y33279D01*
Y33275D01*
X34878D01*
Y33270D01*
Y33266D01*
Y33261D01*
Y33257D01*
X34882D01*
Y33253D01*
Y33248D01*
Y33244D01*
Y33239D01*
X34887D01*
Y33235D01*
Y33231D01*
Y33226D01*
Y33222D01*
Y33217D01*
X34891D01*
Y33213D01*
Y33208D01*
Y33204D01*
Y33200D01*
Y33195D01*
X34895D01*
Y33191D01*
Y33186D01*
Y33182D01*
Y33178D01*
Y33173D01*
X34900D01*
Y33169D01*
Y33164D01*
Y33160D01*
Y33156D01*
Y33151D01*
X34904D01*
Y33147D01*
Y33142D01*
Y33138D01*
Y33134D01*
Y33129D01*
Y33125D01*
X34909D01*
Y33120D01*
Y33116D01*
Y33111D01*
Y33107D01*
Y33103D01*
Y33098D01*
X34913D01*
Y33094D01*
Y33089D01*
Y33085D01*
Y33081D01*
Y33076D01*
Y33072D01*
Y33067D01*
X34918D01*
Y33063D01*
Y33059D01*
Y33054D01*
Y33050D01*
Y33045D01*
Y33041D01*
Y33037D01*
Y33032D01*
X34922D01*
Y33028D01*
Y33023D01*
Y33019D01*
Y33014D01*
Y33010D01*
Y33006D01*
Y33001D01*
Y32997D01*
Y32992D01*
Y32988D01*
X34926D01*
Y32984D01*
Y32979D01*
Y32975D01*
Y32970D01*
Y32966D01*
Y32962D01*
Y32957D01*
Y32953D01*
Y32948D01*
Y32944D01*
Y32940D01*
Y32935D01*
X34931D01*
Y32931D01*
Y32926D01*
Y32922D01*
Y32917D01*
Y32913D01*
Y32909D01*
Y32904D01*
Y32900D01*
Y32895D01*
Y32891D01*
Y32887D01*
Y32882D01*
Y32878D01*
Y32873D01*
Y32869D01*
Y32865D01*
Y32860D01*
Y32856D01*
Y32851D01*
Y32847D01*
Y32842D01*
Y32838D01*
Y32834D01*
Y32829D01*
X34935D01*
Y32825D01*
Y32820D01*
Y32816D01*
Y32812D01*
Y32807D01*
Y32803D01*
Y32798D01*
Y32794D01*
Y32790D01*
Y32785D01*
Y32781D01*
Y32776D01*
Y32772D01*
Y32768D01*
X34931D01*
Y32763D01*
Y32759D01*
Y32754D01*
Y32750D01*
Y32745D01*
Y32741D01*
Y32737D01*
Y32732D01*
Y32728D01*
Y32723D01*
Y32719D01*
Y32715D01*
Y32710D01*
Y32706D01*
Y32701D01*
Y32697D01*
Y32693D01*
Y32688D01*
Y32684D01*
Y32679D01*
Y32675D01*
Y32671D01*
Y32666D01*
Y32662D01*
X34926D01*
Y32657D01*
Y32653D01*
Y32648D01*
Y32644D01*
Y32640D01*
Y32635D01*
Y32631D01*
Y32626D01*
Y32622D01*
Y32618D01*
Y32613D01*
Y32609D01*
X34922D01*
Y32604D01*
Y32600D01*
Y32596D01*
Y32591D01*
Y32587D01*
Y32582D01*
Y32578D01*
Y32573D01*
Y32569D01*
Y32565D01*
X34918D01*
Y32560D01*
Y32556D01*
Y32551D01*
Y32547D01*
Y32543D01*
Y32538D01*
Y32534D01*
Y32529D01*
X34913D01*
Y32525D01*
Y32521D01*
Y32516D01*
Y32512D01*
Y32507D01*
Y32503D01*
Y32499D01*
X34909D01*
Y32494D01*
Y32490D01*
Y32485D01*
Y32481D01*
Y32476D01*
Y32472D01*
X34904D01*
Y32468D01*
Y32463D01*
Y32459D01*
Y32454D01*
Y32450D01*
Y32446D01*
X34900D01*
Y32441D01*
Y32437D01*
Y32432D01*
Y32428D01*
Y32424D01*
X34895D01*
Y32419D01*
Y32415D01*
Y32410D01*
Y32406D01*
Y32401D01*
X34891D01*
Y32397D01*
Y32393D01*
Y32388D01*
Y32384D01*
Y32379D01*
X34887D01*
Y32375D01*
Y32371D01*
Y32366D01*
Y32362D01*
Y32357D01*
X34882D01*
Y32353D01*
Y32349D01*
Y32344D01*
Y32340D01*
X34878D01*
Y32335D01*
Y32331D01*
Y32327D01*
Y32322D01*
X34873D01*
Y32318D01*
Y32313D01*
Y32309D01*
Y32304D01*
X34869D01*
Y32300D01*
Y32296D01*
Y32291D01*
Y32287D01*
X34865D01*
Y32282D01*
Y32278D01*
Y32274D01*
Y32269D01*
X34860D01*
Y32265D01*
Y32260D01*
Y32256D01*
X34856D01*
Y32252D01*
Y32247D01*
Y32243D01*
Y32238D01*
X34851D01*
Y32234D01*
Y32230D01*
Y32225D01*
X34847D01*
Y32221D01*
Y32216D01*
Y32212D01*
X34843D01*
Y32207D01*
Y32203D01*
Y32199D01*
X34838D01*
Y32194D01*
Y32190D01*
Y32185D01*
Y32181D01*
X34834D01*
Y32177D01*
Y32172D01*
Y32168D01*
X34829D01*
Y32163D01*
Y32159D01*
X34825D01*
Y32155D01*
Y32150D01*
Y32146D01*
X34820D01*
Y32141D01*
Y32137D01*
Y32132D01*
X34816D01*
Y32128D01*
Y32124D01*
Y32119D01*
X34812D01*
Y32115D01*
Y32110D01*
Y32106D01*
X34807D01*
Y32102D01*
Y32097D01*
X34803D01*
Y32093D01*
Y32088D01*
Y32084D01*
X34798D01*
Y32080D01*
Y32075D01*
Y32071D01*
X34794D01*
Y32066D01*
Y32062D01*
X34790D01*
Y32058D01*
Y32053D01*
Y32049D01*
X34785D01*
Y32044D01*
Y32040D01*
X34781D01*
Y32035D01*
Y32031D01*
X34776D01*
Y32027D01*
Y32022D01*
Y32018D01*
X34772D01*
Y32013D01*
Y32009D01*
X34768D01*
Y32005D01*
Y32000D01*
X34763D01*
Y31996D01*
Y31991D01*
Y31987D01*
X34759D01*
Y31983D01*
Y31978D01*
X34754D01*
Y31974D01*
Y31969D01*
X34750D01*
Y31965D01*
Y31961D01*
X34746D01*
Y31956D01*
Y31952D01*
X34741D01*
Y31947D01*
Y31943D01*
X34737D01*
Y31938D01*
Y31934D01*
X34732D01*
Y31930D01*
Y31925D01*
X34728D01*
Y31921D01*
Y31916D01*
X34723D01*
Y31912D01*
Y31908D01*
X34719D01*
Y31903D01*
Y31899D01*
X34715D01*
Y31894D01*
Y31890D01*
X34710D01*
Y31886D01*
Y31881D01*
X34706D01*
Y31877D01*
Y31872D01*
X34701D01*
Y31868D01*
Y31863D01*
X34697D01*
Y31859D01*
Y31855D01*
X34693D01*
Y31850D01*
Y31846D01*
X34688D01*
Y31841D01*
Y31837D01*
X34684D01*
Y31833D01*
X34679D01*
Y31828D01*
Y31824D01*
X34675D01*
Y31819D01*
Y31815D01*
X34671D01*
Y31811D01*
Y31806D01*
X34666D01*
Y31802D01*
X34662D01*
Y31797D01*
Y31793D01*
X34657D01*
Y31789D01*
Y31784D01*
X34653D01*
Y31780D01*
X34649D01*
Y31775D01*
Y31771D01*
X34644D01*
Y31766D01*
Y31762D01*
X34640D01*
Y31758D01*
X34635D01*
Y31753D01*
Y31749D01*
X34631D01*
Y31744D01*
Y31740D01*
X34626D01*
Y31736D01*
X34622D01*
Y31731D01*
Y31727D01*
X34618D01*
Y31722D01*
X34613D01*
Y31718D01*
Y31714D01*
X34609D01*
Y31709D01*
X34604D01*
Y31705D01*
Y31700D01*
X34600D01*
Y31696D01*
X34591D01*
Y31692D01*
X34596D01*
Y31687D01*
X34591D01*
Y31683D01*
X34587D01*
Y31678D01*
Y31674D01*
X34582D01*
Y31669D01*
X34578D01*
Y31665D01*
Y31661D01*
X34574D01*
Y31656D01*
X34569D01*
Y31652D01*
X34565D01*
Y31647D01*
Y31643D01*
X34560D01*
Y31639D01*
X34556D01*
Y31634D01*
Y31630D01*
X34551D01*
Y31625D01*
X34547D01*
Y31621D01*
X34543D01*
Y31617D01*
Y31612D01*
X34538D01*
Y31608D01*
X34534D01*
Y31603D01*
X34529D01*
Y31599D01*
Y31594D01*
X34525D01*
Y31590D01*
X34521D01*
Y31586D01*
X34516D01*
Y31581D01*
X34512D01*
Y31577D01*
Y31572D01*
X34507D01*
Y31568D01*
X34503D01*
Y31564D01*
X34499D01*
Y31559D01*
Y31555D01*
X34494D01*
Y31550D01*
X34490D01*
Y31546D01*
X34485D01*
Y31542D01*
X34481D01*
Y31537D01*
X34477D01*
Y31533D01*
Y31528D01*
X34472D01*
Y31524D01*
X34468D01*
Y31520D01*
X34463D01*
Y31515D01*
X34459D01*
Y31511D01*
X34454D01*
Y31506D01*
Y31502D01*
X34450D01*
Y31497D01*
X34446D01*
Y31493D01*
X34441D01*
Y31489D01*
X34437D01*
Y31484D01*
X34432D01*
Y31480D01*
X34428D01*
Y31475D01*
X34424D01*
Y31471D01*
X34415D01*
Y31467D01*
X34419D01*
Y31462D01*
X34415D01*
Y31458D01*
X34410D01*
Y31453D01*
X34406D01*
Y31449D01*
X34402D01*
Y31445D01*
X34397D01*
Y31440D01*
X34393D01*
Y31436D01*
X34388D01*
Y31431D01*
X34384D01*
Y31427D01*
X34380D01*
Y31423D01*
X34375D01*
Y31418D01*
X34366D01*
Y31414D01*
X34362D01*
Y31409D01*
X34357D01*
Y31405D01*
X34353D01*
Y31400D01*
X34349D01*
Y31396D01*
X34344D01*
Y31392D01*
X34340D01*
Y31387D01*
X34335D01*
Y31383D01*
X34331D01*
Y31378D01*
Y31374D01*
X34327D01*
Y31370D01*
X34322D01*
Y31365D01*
X34318D01*
Y31361D01*
X34313D01*
Y31356D01*
X34309D01*
Y31352D01*
X34305D01*
Y31348D01*
X34300D01*
Y31343D01*
X34296D01*
Y31339D01*
X34291D01*
Y31334D01*
X34287D01*
Y31330D01*
X34283D01*
Y31325D01*
X34269D01*
Y31321D01*
Y31317D01*
X34265D01*
Y31312D01*
X34260D01*
Y31308D01*
X34256D01*
Y31303D01*
X34252D01*
Y31299D01*
X34247D01*
Y31295D01*
X34234D01*
Y31290D01*
Y31286D01*
X34230D01*
Y31281D01*
X34225D01*
Y31277D01*
X34221D01*
Y31273D01*
X34216D01*
Y31268D01*
X34208D01*
Y31264D01*
X34203D01*
Y31259D01*
X34199D01*
Y31255D01*
X34194D01*
Y31251D01*
X34185D01*
Y31246D01*
X34181D01*
Y31242D01*
X34177D01*
Y31237D01*
X34172D01*
Y31233D01*
X34163D01*
Y31228D01*
X34159D01*
Y31224D01*
X34155D01*
Y31220D01*
X34146D01*
Y31215D01*
X34141D01*
Y31211D01*
X34137D01*
Y31206D01*
X34128D01*
Y31202D01*
X34124D01*
Y31198D01*
X34119D01*
Y31193D01*
X34111D01*
Y31189D01*
X34106D01*
Y31184D01*
X34097D01*
Y31180D01*
X34093D01*
Y31176D01*
X34088D01*
Y31171D01*
X34080D01*
Y31167D01*
X34075D01*
Y31162D01*
X34066D01*
Y31158D01*
X34062D01*
Y31154D01*
X34053D01*
Y31149D01*
X34049D01*
Y31145D01*
X34040D01*
Y31140D01*
X34036D01*
Y31136D01*
X34027D01*
Y31131D01*
X34022D01*
Y31127D01*
X34014D01*
Y31123D01*
X34009D01*
Y31118D01*
X34000D01*
Y31114D01*
X33991D01*
Y31109D01*
X33987D01*
Y31105D01*
X33978D01*
Y31101D01*
X33969D01*
Y31096D01*
X33965D01*
Y31092D01*
X33956D01*
Y31087D01*
X33947D01*
Y31083D01*
X33943D01*
Y31079D01*
X33934D01*
Y31074D01*
X33925D01*
Y31070D01*
X33916D01*
Y31065D01*
X33912D01*
Y31061D01*
X33903D01*
Y31056D01*
X33894D01*
Y31052D01*
X33886D01*
Y31048D01*
X33877D01*
Y31043D01*
X33868D01*
Y31039D01*
X33859D01*
Y31034D01*
X33855D01*
Y31030D01*
X33846D01*
Y31026D01*
X33837D01*
Y31021D01*
X33828D01*
Y31017D01*
X33815D01*
Y31012D01*
X33806D01*
Y31008D01*
X33797D01*
Y31004D01*
X33789D01*
Y30999D01*
X33780D01*
Y30995D01*
X33771D01*
Y30990D01*
X33762D01*
Y30986D01*
X33749D01*
Y30982D01*
X33740D01*
Y30977D01*
X33731D01*
Y30973D01*
X33718D01*
Y30968D01*
X33709D01*
Y30964D01*
X33700D01*
Y30959D01*
X33687D01*
Y30955D01*
X33678D01*
Y30951D01*
X33665D01*
Y30946D01*
X33652D01*
Y30942D01*
X33643D01*
Y30937D01*
X33630D01*
Y30933D01*
X33617D01*
Y30929D01*
X33608D01*
Y30924D01*
X33595D01*
Y30920D01*
X33581D01*
Y30915D01*
X33568D01*
Y30911D01*
X33555D01*
Y30907D01*
X33537D01*
Y30902D01*
X33524D01*
Y30898D01*
X33511D01*
Y30893D01*
X33493D01*
Y30889D01*
X33480D01*
Y30885D01*
X33462D01*
Y30880D01*
X33445D01*
Y30876D01*
X33427D01*
Y30871D01*
X33409D01*
Y30867D01*
X33392D01*
Y30862D01*
X33370D01*
Y30858D01*
X33352D01*
Y30854D01*
X33326D01*
Y30849D01*
X33304D01*
Y30845D01*
X33277D01*
Y30840D01*
X33251D01*
Y30836D01*
X33220D01*
Y30832D01*
X33184D01*
Y30827D01*
X33140D01*
Y30823D01*
X33087D01*
Y30818D01*
X32982D01*
Y30814D01*
X32920D01*
Y30818D01*
X32814D01*
Y30823D01*
X32761D01*
Y30827D01*
X32717D01*
Y30832D01*
X32682D01*
Y30836D01*
X32651D01*
Y30840D01*
X32624D01*
Y30845D01*
X32598D01*
Y30849D01*
X32576D01*
Y30854D01*
X32554D01*
Y30858D01*
X32532D01*
Y30862D01*
X32510D01*
Y30867D01*
X32492D01*
Y30871D01*
X32474D01*
Y30876D01*
X32457D01*
Y30880D01*
X32439D01*
Y30885D01*
X32422D01*
Y30889D01*
X32408D01*
Y30893D01*
X32391D01*
Y30898D01*
X32377D01*
Y30902D01*
X32364D01*
Y30907D01*
X32351D01*
Y30911D01*
X32333D01*
Y30915D01*
X32320D01*
Y30920D01*
X32311D01*
Y30924D01*
X32298D01*
Y30929D01*
X32285D01*
Y30933D01*
X32272D01*
Y30937D01*
X32258D01*
Y30942D01*
X32250D01*
Y30946D01*
X32236D01*
Y30951D01*
X32223D01*
Y30955D01*
X32214D01*
Y30959D01*
X32201D01*
Y30964D01*
X32192D01*
Y30968D01*
X32183D01*
Y30973D01*
X32170D01*
Y30977D01*
X32161D01*
Y30982D01*
X32153D01*
Y30986D01*
X32139D01*
Y30990D01*
X32130D01*
Y30995D01*
X32122D01*
Y30999D01*
X32113D01*
Y31004D01*
X32104D01*
Y31008D01*
X32095D01*
Y31012D01*
X32086D01*
Y31017D01*
X32078D01*
Y31021D01*
X32069D01*
Y31026D01*
X32060D01*
Y31030D01*
X32051D01*
Y31034D01*
X32042D01*
Y31039D01*
X32033D01*
Y31043D01*
X32025D01*
Y31048D01*
X32016D01*
Y31052D01*
X32007D01*
Y31056D01*
X31998D01*
Y31061D01*
X31989D01*
Y31065D01*
X31985D01*
Y31070D01*
X31976D01*
Y31074D01*
X31967D01*
Y31079D01*
X31959D01*
Y31083D01*
X31954D01*
Y31087D01*
X31945D01*
Y31092D01*
X31936D01*
Y31096D01*
X31932D01*
Y31101D01*
X31923D01*
Y31105D01*
X31914D01*
Y31109D01*
X31910D01*
Y31114D01*
X31901D01*
Y31118D01*
X31892D01*
Y31123D01*
X31888D01*
Y31127D01*
X31879D01*
Y31131D01*
X31875D01*
Y31136D01*
X31866D01*
Y31140D01*
X31861D01*
Y31145D01*
X31853D01*
Y31149D01*
X31848D01*
Y31154D01*
X31839D01*
Y31158D01*
X31835D01*
Y31162D01*
X31826D01*
Y31167D01*
X31822D01*
Y31171D01*
Y31176D01*
X31817D01*
Y31171D01*
X31813D01*
Y31176D01*
X31809D01*
Y31180D01*
X31804D01*
Y31184D01*
X31795D01*
Y31189D01*
X31791D01*
Y31193D01*
X31782D01*
Y31198D01*
X31778D01*
Y31202D01*
X31773D01*
Y31206D01*
X31764D01*
Y31211D01*
X31760D01*
Y31215D01*
X31756D01*
Y31220D01*
X31747D01*
Y31224D01*
X31742D01*
Y31228D01*
X31738D01*
Y31233D01*
X31734D01*
Y31237D01*
X31725D01*
Y31242D01*
X31720D01*
Y31246D01*
X31716D01*
Y31251D01*
X31707D01*
Y31255D01*
X31703D01*
Y31259D01*
X31698D01*
Y31264D01*
X31694D01*
Y31268D01*
X31690D01*
Y31273D01*
X31681D01*
Y31277D01*
X31676D01*
Y31281D01*
X31672D01*
Y31286D01*
X31667D01*
Y31290D01*
X31663D01*
Y31295D01*
X31654D01*
Y31299D01*
X31650D01*
Y31303D01*
X31645D01*
Y31308D01*
X31641D01*
Y31312D01*
X31637D01*
Y31317D01*
X31632D01*
Y31321D01*
X31628D01*
Y31325D01*
X31623D01*
Y31330D01*
X31615D01*
Y31334D01*
X31610D01*
Y31339D01*
X31606D01*
Y31343D01*
X31601D01*
Y31348D01*
X31597D01*
Y31352D01*
X31592D01*
Y31356D01*
X31588D01*
Y31361D01*
X31584D01*
Y31365D01*
X31579D01*
Y31370D01*
X31575D01*
Y31374D01*
X31570D01*
Y31378D01*
X31566D01*
Y31383D01*
X31562D01*
Y31387D01*
X31557D01*
Y31392D01*
X31553D01*
Y31396D01*
X31548D01*
Y31400D01*
X31544D01*
Y31405D01*
X31540D01*
Y31409D01*
X31535D01*
Y31414D01*
X31531D01*
Y31418D01*
X31526D01*
Y31423D01*
X31522D01*
Y31427D01*
X31526D01*
Y31431D01*
Y31436D01*
X31531D01*
Y31440D01*
X31535D01*
Y31445D01*
Y31449D01*
X31540D01*
Y31453D01*
Y31458D01*
X31544D01*
Y31462D01*
X31548D01*
Y31467D01*
Y31471D01*
X31553D01*
Y31475D01*
Y31480D01*
X31562D01*
Y31484D01*
X31557D01*
Y31489D01*
X31562D01*
Y31493D01*
X31566D01*
Y31497D01*
Y31502D01*
X31570D01*
Y31506D01*
Y31511D01*
X31575D01*
Y31515D01*
Y31520D01*
X31579D01*
Y31524D01*
X31584D01*
Y31528D01*
Y31533D01*
X31588D01*
Y31537D01*
Y31542D01*
X31592D01*
Y31546D01*
X31597D01*
Y31550D01*
Y31555D01*
X31601D01*
Y31559D01*
Y31564D01*
X31610D01*
Y31568D01*
X31606D01*
Y31572D01*
X31610D01*
Y31577D01*
X31615D01*
Y31581D01*
Y31586D01*
X31619D01*
Y31590D01*
Y31594D01*
X31623D01*
Y31599D01*
Y31603D01*
X31628D01*
Y31608D01*
X31632D01*
Y31612D01*
Y31617D01*
X31637D01*
Y31621D01*
Y31625D01*
X31641D01*
Y31630D01*
Y31634D01*
X31645D01*
Y31639D01*
X31650D01*
Y31643D01*
Y31647D01*
X31654D01*
Y31652D01*
Y31656D01*
X31659D01*
Y31661D01*
X31663D01*
Y31665D01*
Y31669D01*
X31667D01*
Y31674D01*
Y31678D01*
X31676D01*
Y31683D01*
X31672D01*
Y31687D01*
X31676D01*
Y31692D01*
X31681D01*
Y31696D01*
Y31700D01*
X31685D01*
Y31705D01*
Y31709D01*
X31690D01*
Y31714D01*
Y31718D01*
X31694D01*
Y31722D01*
X31698D01*
Y31727D01*
Y31731D01*
X31703D01*
Y31736D01*
Y31740D01*
X31707D01*
Y31744D01*
Y31749D01*
X31712D01*
Y31753D01*
X31716D01*
Y31758D01*
Y31762D01*
X31720D01*
Y31766D01*
Y31771D01*
X31725D01*
Y31766D01*
X31729D01*
Y31762D01*
X31734D01*
Y31758D01*
X31738D01*
Y31753D01*
X31742D01*
Y31749D01*
Y31744D01*
X31747D01*
Y31740D01*
X31751D01*
Y31736D01*
X31756D01*
Y31731D01*
X31760D01*
Y31727D01*
X31764D01*
Y31722D01*
X31769D01*
Y31718D01*
X31773D01*
Y31714D01*
X31778D01*
Y31709D01*
Y31705D01*
X31782D01*
Y31700D01*
X31787D01*
Y31696D01*
X31791D01*
Y31692D01*
X31795D01*
Y31687D01*
X31800D01*
Y31683D01*
X31804D01*
Y31678D01*
X31809D01*
Y31674D01*
X31813D01*
Y31669D01*
X31817D01*
Y31665D01*
X31822D01*
Y31661D01*
X31826D01*
Y31656D01*
X31831D01*
Y31652D01*
X31835D01*
Y31647D01*
X31839D01*
Y31643D01*
X31844D01*
Y31639D01*
X31848D01*
Y31634D01*
X31853D01*
Y31630D01*
X31857D01*
Y31625D01*
X31866D01*
Y31621D01*
X31870D01*
Y31617D01*
X31875D01*
Y31612D01*
X31879D01*
Y31608D01*
X31884D01*
Y31603D01*
X31888D01*
Y31599D01*
X31892D01*
Y31594D01*
X31897D01*
Y31590D01*
X31906D01*
Y31586D01*
X31910D01*
Y31581D01*
X31914D01*
Y31577D01*
X31919D01*
Y31572D01*
X31923D01*
Y31568D01*
X31928D01*
Y31564D01*
X31936D01*
Y31559D01*
X31941D01*
Y31555D01*
X31945D01*
Y31550D01*
X31950D01*
Y31546D01*
X31959D01*
Y31542D01*
X31963D01*
Y31537D01*
X31967D01*
Y31533D01*
X31972D01*
Y31528D01*
X31981D01*
Y31524D01*
X31985D01*
Y31520D01*
X31989D01*
Y31515D01*
X31998D01*
Y31511D01*
X32003D01*
Y31506D01*
X32007D01*
Y31502D01*
X32016D01*
Y31497D01*
X32020D01*
Y31493D01*
X32029D01*
Y31489D01*
X32033D01*
Y31484D01*
X32042D01*
Y31480D01*
X32047D01*
Y31475D01*
X32051D01*
Y31471D01*
X32060D01*
Y31467D01*
X32064D01*
Y31462D01*
X32073D01*
Y31458D01*
X32078D01*
Y31453D01*
X32086D01*
Y31449D01*
X32095D01*
Y31445D01*
X32100D01*
Y31440D01*
X32108D01*
Y31436D01*
X32113D01*
Y31431D01*
X32122D01*
Y31427D01*
X32130D01*
Y31423D01*
X32135D01*
Y31418D01*
X32144D01*
Y31414D01*
X32153D01*
Y31409D01*
X32161D01*
Y31405D01*
X32166D01*
Y31400D01*
X32175D01*
Y31396D01*
X32183D01*
Y31392D01*
X32192D01*
Y31387D01*
X32201D01*
Y31383D01*
X32210D01*
Y31378D01*
X32214D01*
Y31374D01*
X32223D01*
Y31370D01*
X32232D01*
Y31365D01*
X32241D01*
Y31361D01*
X32250D01*
Y31356D01*
X32263D01*
Y31352D01*
X32272D01*
Y31348D01*
X32280D01*
Y31343D01*
X32289D01*
Y31339D01*
X32298D01*
Y31334D01*
X32307D01*
Y31330D01*
X32320D01*
Y31325D01*
X32329D01*
Y31321D01*
X32342D01*
Y31317D01*
X32351D01*
Y31312D01*
X32360D01*
Y31308D01*
X32373D01*
Y31303D01*
X32386D01*
Y31299D01*
X32395D01*
Y31295D01*
X32408D01*
Y31290D01*
X32422D01*
Y31286D01*
X32435D01*
Y31281D01*
X32448D01*
Y31277D01*
X32461D01*
Y31273D01*
X32474D01*
Y31268D01*
X32488D01*
Y31264D01*
X32505D01*
Y31259D01*
X32519D01*
Y31255D01*
X32536D01*
Y31251D01*
X32554D01*
Y31246D01*
X32571D01*
Y31242D01*
X32589D01*
Y31237D01*
X32607D01*
Y31233D01*
X32629D01*
Y31228D01*
X32651D01*
Y31224D01*
X32673D01*
Y31220D01*
X32699D01*
Y31215D01*
X32730D01*
Y31211D01*
X32766D01*
Y31206D01*
X32810D01*
Y31202D01*
X32871D01*
Y31198D01*
X33030D01*
Y31202D01*
X33092D01*
Y31206D01*
X33136D01*
Y31211D01*
X33167D01*
Y31215D01*
X33198D01*
Y31220D01*
X33224D01*
Y31224D01*
X33251D01*
Y31228D01*
X33273D01*
Y31233D01*
X33295D01*
Y31237D01*
X33312D01*
Y31242D01*
X33330D01*
Y31246D01*
X33348D01*
Y31251D01*
X33365D01*
Y31255D01*
X33383D01*
Y31259D01*
X33396D01*
Y31264D01*
X33414D01*
Y31268D01*
X33427D01*
Y31273D01*
X33440D01*
Y31277D01*
X33453D01*
Y31281D01*
X33467D01*
Y31286D01*
X33480D01*
Y31290D01*
X33493D01*
Y31295D01*
X33502D01*
Y31299D01*
X33515D01*
Y31303D01*
X33528D01*
Y31308D01*
X33537D01*
Y31312D01*
X33550D01*
Y31317D01*
X33559D01*
Y31321D01*
X33573D01*
Y31325D01*
X33581D01*
Y31330D01*
X33590D01*
Y31334D01*
X33603D01*
Y31339D01*
X33612D01*
Y31343D01*
X33621D01*
Y31348D01*
X33630D01*
Y31352D01*
X33639D01*
Y31356D01*
X33647D01*
Y31361D01*
X33656D01*
Y31365D01*
X33665D01*
Y31370D01*
X33674D01*
Y31374D01*
X33683D01*
Y31378D01*
X33692D01*
Y31383D01*
X33700D01*
Y31387D01*
X33709D01*
Y31392D01*
X33718D01*
Y31396D01*
X33727D01*
Y31400D01*
X33736D01*
Y31405D01*
X33740D01*
Y31409D01*
X33749D01*
Y31414D01*
X33758D01*
Y31418D01*
X33762D01*
Y31423D01*
X33771D01*
Y31427D01*
X33780D01*
Y31431D01*
X33784D01*
Y31436D01*
X33793D01*
Y31440D01*
X33802D01*
Y31445D01*
X33806D01*
Y31449D01*
X33815D01*
Y31453D01*
X33819D01*
Y31458D01*
X33828D01*
Y31462D01*
X33833D01*
Y31467D01*
X33842D01*
Y31471D01*
X33846D01*
Y31475D01*
X33855D01*
Y31480D01*
X33859D01*
Y31484D01*
X33868D01*
Y31489D01*
X33872D01*
Y31493D01*
X33881D01*
Y31497D01*
X33886D01*
Y31502D01*
X33890D01*
Y31506D01*
X33899D01*
Y31511D01*
X33903D01*
Y31515D01*
X33912D01*
Y31520D01*
X33916D01*
Y31524D01*
X33921D01*
Y31528D01*
X33925D01*
Y31533D01*
X33934D01*
Y31537D01*
X33939D01*
Y31542D01*
X33943D01*
Y31546D01*
X33952D01*
Y31550D01*
X33956D01*
Y31555D01*
X33961D01*
Y31559D01*
X33965D01*
Y31564D01*
X33969D01*
Y31568D01*
X33978D01*
Y31572D01*
X33983D01*
Y31577D01*
X33987D01*
Y31581D01*
X33991D01*
Y31586D01*
X33996D01*
Y31590D01*
X34005D01*
Y31594D01*
X34009D01*
Y31599D01*
X34014D01*
Y31603D01*
X34018D01*
Y31608D01*
X34022D01*
Y31612D01*
X34027D01*
Y31617D01*
X34031D01*
Y31621D01*
X34036D01*
Y31625D01*
X34040D01*
Y31630D01*
X34044D01*
Y31634D01*
X34053D01*
Y31639D01*
X34062D01*
Y31643D01*
Y31647D01*
X34066D01*
Y31652D01*
X34071D01*
Y31656D01*
X34075D01*
Y31661D01*
X34080D01*
Y31665D01*
X34084D01*
Y31669D01*
X34088D01*
Y31674D01*
X34093D01*
Y31678D01*
X34097D01*
Y31683D01*
X34102D01*
Y31687D01*
X34111D01*
Y31692D01*
Y31696D01*
X34115D01*
Y31700D01*
Y31705D01*
X34119D01*
Y31709D01*
X34124D01*
Y31714D01*
X34128D01*
Y31718D01*
X34133D01*
Y31722D01*
X34137D01*
Y31727D01*
X34141D01*
Y31731D01*
X34146D01*
Y31736D01*
X34150D01*
Y31740D01*
X34155D01*
Y31744D01*
X34159D01*
Y31749D01*
Y31753D01*
X34163D01*
Y31758D01*
X34168D01*
Y31762D01*
X34172D01*
Y31766D01*
X34177D01*
Y31771D01*
X34181D01*
Y31775D01*
X34185D01*
Y31780D01*
Y31784D01*
X34190D01*
Y31789D01*
X34194D01*
Y31793D01*
X34199D01*
Y31797D01*
X34203D01*
Y31802D01*
Y31806D01*
X34208D01*
Y31811D01*
X34212D01*
Y31815D01*
X34216D01*
Y31819D01*
X34221D01*
Y31824D01*
Y31828D01*
X34225D01*
Y31833D01*
X34230D01*
Y31837D01*
X34234D01*
Y31841D01*
Y31846D01*
X34238D01*
Y31850D01*
X34243D01*
Y31855D01*
X34247D01*
Y31859D01*
Y31863D01*
X34252D01*
Y31868D01*
X34256D01*
Y31872D01*
Y31877D01*
X34260D01*
Y31881D01*
X34265D01*
Y31886D01*
Y31890D01*
X34269D01*
Y31894D01*
X34274D01*
Y31899D01*
X34278D01*
Y31903D01*
Y31908D01*
X34283D01*
Y31912D01*
X34287D01*
Y31916D01*
Y31921D01*
X34291D01*
Y31925D01*
X34296D01*
Y31930D01*
Y31934D01*
X34300D01*
Y31938D01*
Y31943D01*
X34305D01*
Y31947D01*
X34309D01*
Y31952D01*
Y31956D01*
X34313D01*
Y31961D01*
X34318D01*
Y31965D01*
Y31969D01*
X34322D01*
Y31974D01*
Y31978D01*
X34327D01*
Y31983D01*
X34331D01*
Y31987D01*
Y31991D01*
X34335D01*
Y31996D01*
Y32000D01*
X34340D01*
Y32005D01*
Y32009D01*
X34344D01*
Y32013D01*
X34349D01*
Y32018D01*
Y32022D01*
X34353D01*
Y32027D01*
Y32031D01*
X34357D01*
Y32035D01*
Y32040D01*
X34362D01*
Y32044D01*
Y32049D01*
X34366D01*
Y32053D01*
Y32058D01*
X34371D01*
Y32062D01*
X34375D01*
Y32066D01*
Y32071D01*
X34380D01*
Y32075D01*
Y32080D01*
X34384D01*
Y32084D01*
Y32088D01*
X34388D01*
Y32093D01*
Y32097D01*
X34393D01*
Y32102D01*
Y32106D01*
Y32110D01*
X34397D01*
Y32115D01*
Y32119D01*
X34402D01*
Y32124D01*
Y32128D01*
X34406D01*
Y32132D01*
Y32137D01*
X34410D01*
Y32141D01*
Y32146D01*
X34415D01*
Y32150D01*
Y32155D01*
X34419D01*
Y32159D01*
Y32163D01*
Y32168D01*
X34424D01*
Y32172D01*
Y32177D01*
X34428D01*
Y32181D01*
Y32185D01*
Y32190D01*
X34432D01*
Y32194D01*
Y32199D01*
X34437D01*
Y32203D01*
Y32207D01*
X34441D01*
Y32212D01*
Y32216D01*
Y32221D01*
X34446D01*
Y32225D01*
Y32230D01*
Y32234D01*
X34450D01*
Y32238D01*
Y32243D01*
X34454D01*
Y32247D01*
Y32252D01*
Y32256D01*
X34459D01*
Y32260D01*
Y32265D01*
Y32269D01*
X34463D01*
Y32274D01*
Y32278D01*
Y32282D01*
X34468D01*
Y32287D01*
Y32291D01*
Y32296D01*
X34472D01*
Y32300D01*
Y32304D01*
Y32309D01*
X34477D01*
Y32313D01*
Y32318D01*
Y32322D01*
X34481D01*
Y32327D01*
Y32331D01*
Y32335D01*
X34485D01*
Y32340D01*
Y32344D01*
Y32349D01*
Y32353D01*
X34490D01*
Y32357D01*
Y32362D01*
Y32366D01*
X34494D01*
Y32371D01*
Y32375D01*
Y32379D01*
Y32384D01*
X34499D01*
Y32388D01*
Y32393D01*
Y32397D01*
Y32401D01*
X34503D01*
Y32406D01*
Y32410D01*
Y32415D01*
Y32419D01*
X34507D01*
Y32424D01*
Y32428D01*
Y32432D01*
Y32437D01*
X34512D01*
Y32441D01*
Y32446D01*
Y32450D01*
Y32454D01*
X34516D01*
Y32459D01*
Y32463D01*
Y32468D01*
Y32472D01*
Y32476D01*
X34521D01*
Y32481D01*
Y32485D01*
Y32490D01*
Y32494D01*
Y32499D01*
X34525D01*
Y32503D01*
Y32507D01*
Y32512D01*
Y32516D01*
Y32521D01*
X34529D01*
Y32525D01*
Y32529D01*
Y32534D01*
Y32538D01*
Y32543D01*
Y32547D01*
X34534D01*
Y32551D01*
Y32556D01*
Y32560D01*
Y32565D01*
Y32569D01*
Y32573D01*
Y32578D01*
X34538D01*
Y32582D01*
Y32587D01*
Y32591D01*
Y32596D01*
Y32600D01*
Y32604D01*
Y32609D01*
Y32613D01*
X34543D01*
Y32618D01*
Y32622D01*
Y32626D01*
Y32631D01*
Y32635D01*
Y32640D01*
Y32644D01*
Y32648D01*
Y32653D01*
Y32657D01*
X34547D01*
Y32662D01*
Y32666D01*
Y32671D01*
Y32675D01*
Y32679D01*
Y32684D01*
Y32688D01*
Y32693D01*
Y32697D01*
Y32701D01*
Y32706D01*
Y32710D01*
Y32715D01*
Y32719D01*
X34551D01*
Y32723D01*
Y32728D01*
Y32732D01*
Y32737D01*
Y32741D01*
Y32745D01*
Y32750D01*
Y32754D01*
Y32759D01*
Y32763D01*
Y32768D01*
Y32772D01*
Y32776D01*
Y32781D01*
Y32785D01*
Y32790D01*
Y32794D01*
Y32798D01*
Y32803D01*
Y32807D01*
Y32812D01*
Y32816D01*
Y32820D01*
Y32825D01*
Y32829D01*
Y32834D01*
Y32838D01*
Y32842D01*
Y32847D01*
Y32851D01*
Y32856D01*
Y32860D01*
Y32865D01*
Y32869D01*
Y32873D01*
Y32878D01*
X34547D01*
Y32882D01*
Y32887D01*
Y32891D01*
Y32895D01*
Y32900D01*
Y32904D01*
Y32909D01*
Y32913D01*
Y32917D01*
Y32922D01*
Y32926D01*
Y32931D01*
Y32935D01*
Y32940D01*
X34543D01*
Y32944D01*
Y32948D01*
Y32953D01*
Y32957D01*
Y32962D01*
Y32966D01*
Y32970D01*
Y32975D01*
Y32979D01*
Y32984D01*
X34538D01*
Y32988D01*
Y32992D01*
Y32997D01*
Y33001D01*
Y33006D01*
Y33010D01*
Y33014D01*
Y33019D01*
X34534D01*
Y33023D01*
Y33028D01*
Y33032D01*
Y33037D01*
Y33041D01*
Y33045D01*
Y33050D01*
X34529D01*
Y33054D01*
Y33059D01*
Y33063D01*
Y33067D01*
Y33072D01*
Y33076D01*
X34525D01*
Y33081D01*
Y33085D01*
Y33089D01*
Y33094D01*
Y33098D01*
X34521D01*
Y33103D01*
Y33107D01*
Y33111D01*
Y33116D01*
Y33120D01*
X34516D01*
Y33125D01*
Y33129D01*
Y33134D01*
Y33138D01*
Y33142D01*
X34512D01*
Y33147D01*
Y33151D01*
Y33156D01*
Y33160D01*
X34507D01*
Y33164D01*
Y33169D01*
Y33173D01*
Y33178D01*
X34503D01*
Y33182D01*
Y33186D01*
Y33191D01*
Y33195D01*
X34499D01*
Y33200D01*
Y33204D01*
Y33208D01*
Y33213D01*
X34494D01*
Y33217D01*
Y33222D01*
Y33226D01*
Y33231D01*
X34490D01*
Y33235D01*
Y33239D01*
Y33244D01*
X34485D01*
Y33248D01*
Y33253D01*
Y33257D01*
Y33261D01*
X34481D01*
Y33266D01*
Y33270D01*
Y33275D01*
X34477D01*
Y33279D01*
Y33283D01*
Y33288D01*
X34472D01*
Y33292D01*
Y33297D01*
Y33301D01*
X34468D01*
Y33306D01*
Y33310D01*
Y33314D01*
X34463D01*
Y33319D01*
Y33323D01*
Y33328D01*
X34459D01*
Y33332D01*
Y33336D01*
Y33341D01*
X34454D01*
Y33345D01*
Y33350D01*
Y33354D01*
X34450D01*
Y33358D01*
Y33363D01*
X34446D01*
Y33367D01*
Y33372D01*
Y33376D01*
X34441D01*
Y33380D01*
Y33385D01*
Y33389D01*
X34437D01*
Y33394D01*
Y33398D01*
X34432D01*
Y33403D01*
Y33407D01*
X34428D01*
Y33411D01*
Y33416D01*
Y33420D01*
X34424D01*
Y33425D01*
Y33429D01*
X34419D01*
Y33433D01*
Y33438D01*
Y33442D01*
X34415D01*
Y33447D01*
Y33451D01*
X34410D01*
Y33455D01*
Y33460D01*
X34406D01*
Y33464D01*
Y33469D01*
X34402D01*
Y33473D01*
Y33477D01*
X34397D01*
Y33482D01*
Y33486D01*
X34393D01*
Y33491D01*
Y33495D01*
Y33500D01*
X34388D01*
Y33504D01*
Y33508D01*
X34384D01*
Y33513D01*
Y33517D01*
X34380D01*
Y33522D01*
Y33526D01*
X34375D01*
Y33530D01*
Y33535D01*
X34371D01*
Y33539D01*
X34366D01*
Y33544D01*
Y33548D01*
X34362D01*
Y33552D01*
Y33557D01*
X34357D01*
Y33561D01*
Y33566D01*
X34353D01*
Y33570D01*
Y33575D01*
X34349D01*
Y33579D01*
Y33583D01*
X34344D01*
Y33588D01*
X34340D01*
Y33592D01*
Y33597D01*
X34335D01*
Y33601D01*
Y33605D01*
X34331D01*
Y33610D01*
Y33614D01*
X34327D01*
Y33619D01*
X34322D01*
Y33623D01*
Y33627D01*
X34318D01*
Y33632D01*
Y33636D01*
X34313D01*
Y33641D01*
X34309D01*
Y33645D01*
Y33649D01*
X34305D01*
Y33654D01*
X34300D01*
Y33658D01*
Y33663D01*
X34296D01*
Y33667D01*
Y33672D01*
X34291D01*
Y33676D01*
X34287D01*
Y33680D01*
Y33685D01*
X34283D01*
Y33689D01*
X34278D01*
Y33694D01*
Y33698D01*
X34274D01*
Y33702D01*
X34269D01*
Y33707D01*
X34265D01*
Y33711D01*
Y33716D01*
X34260D01*
Y33720D01*
X34256D01*
Y33724D01*
Y33729D01*
X34252D01*
Y33733D01*
X34247D01*
Y33738D01*
Y33742D01*
X34243D01*
Y33747D01*
X34238D01*
Y33751D01*
X34234D01*
Y33755D01*
Y33760D01*
X34230D01*
Y33764D01*
X34225D01*
Y33769D01*
X34221D01*
Y33773D01*
Y33777D01*
X34216D01*
Y33782D01*
X34212D01*
Y33786D01*
X34208D01*
Y33791D01*
X34203D01*
Y33795D01*
Y33799D01*
X34199D01*
Y33804D01*
X34194D01*
Y33808D01*
X34190D01*
Y33813D01*
X34185D01*
Y33817D01*
Y33821D01*
X34181D01*
Y33826D01*
X34177D01*
Y33830D01*
X34172D01*
Y33835D01*
X34168D01*
Y33839D01*
X34163D01*
Y33844D01*
X34159D01*
Y33848D01*
Y33852D01*
X34155D01*
Y33857D01*
X34150D01*
Y33861D01*
X34146D01*
Y33866D01*
X34141D01*
Y33870D01*
X34137D01*
Y33874D01*
X34133D01*
Y33879D01*
X34128D01*
Y33883D01*
X34124D01*
Y33888D01*
Y33892D01*
X34119D01*
Y33896D01*
X34115D01*
Y33901D01*
X34111D01*
Y33905D01*
X34106D01*
Y33910D01*
X34102D01*
Y33914D01*
X34097D01*
Y33918D01*
X34093D01*
Y33923D01*
X34088D01*
Y33927D01*
X34084D01*
Y33932D01*
X34080D01*
Y33936D01*
X34075D01*
Y33941D01*
X34071D01*
Y33945D01*
X34066D01*
Y33949D01*
X34062D01*
Y33954D01*
X34058D01*
Y33958D01*
X34053D01*
Y33963D01*
X34049D01*
Y33967D01*
X34044D01*
Y33971D01*
X34036D01*
Y33976D01*
X34031D01*
Y33980D01*
X34027D01*
Y33985D01*
X34022D01*
Y33989D01*
X34018D01*
Y33993D01*
X34014D01*
Y33998D01*
X34009D01*
Y34002D01*
X34005D01*
Y34007D01*
X33996D01*
Y34011D01*
X33991D01*
Y34016D01*
X33987D01*
Y34020D01*
X33983D01*
Y34024D01*
X33978D01*
Y34029D01*
X33974D01*
Y34033D01*
X33965D01*
Y34038D01*
X33961D01*
Y34042D01*
X33956D01*
Y34046D01*
X33952D01*
Y34051D01*
X33943D01*
Y34055D01*
X33939D01*
Y34060D01*
X33934D01*
Y34064D01*
X33930D01*
Y34068D01*
X33921D01*
Y34073D01*
X33916D01*
Y34077D01*
X33912D01*
Y34082D01*
X33903D01*
Y34086D01*
X33899D01*
Y34090D01*
X33894D01*
Y34095D01*
X33886D01*
Y34099D01*
X33881D01*
Y34104D01*
X33872D01*
Y34108D01*
X33868D01*
Y34113D01*
X33859D01*
Y34117D01*
X33855D01*
Y34121D01*
X33850D01*
Y34126D01*
X33842D01*
Y34130D01*
X33837D01*
Y34135D01*
X33828D01*
Y34139D01*
X33824D01*
Y34143D01*
X33815D01*
Y34148D01*
X33806D01*
Y34152D01*
X33802D01*
Y34157D01*
X33793D01*
Y34161D01*
X33789D01*
Y34165D01*
X33780D01*
Y34170D01*
X33771D01*
Y34174D01*
X33767D01*
Y34179D01*
X33758D01*
Y34183D01*
X33749D01*
Y34187D01*
X33740D01*
Y34192D01*
X33736D01*
Y34196D01*
X33727D01*
Y34201D01*
X33718D01*
Y34205D01*
X33709D01*
Y34210D01*
X33700D01*
Y34214D01*
X33692D01*
Y34218D01*
X33683D01*
Y34223D01*
X33674D01*
Y34227D01*
X33665D01*
Y34232D01*
X33656D01*
Y34236D01*
X33647D01*
Y34240D01*
X33639D01*
Y34245D01*
X33630D01*
Y34249D01*
X33621D01*
Y34254D01*
X33612D01*
Y34258D01*
X33603D01*
Y34262D01*
X33590D01*
Y34267D01*
X33581D01*
Y34271D01*
X33573D01*
Y34276D01*
X33559D01*
Y34280D01*
X33550D01*
Y34285D01*
X33537D01*
Y34289D01*
X33528D01*
Y34293D01*
X33515D01*
Y34298D01*
X33502D01*
Y34302D01*
X33493D01*
Y34307D01*
X33480D01*
Y34311D01*
X33467D01*
Y34315D01*
X33453D01*
Y34320D01*
X33440D01*
Y34324D01*
X33427D01*
Y34329D01*
X33414D01*
Y34333D01*
X33396D01*
Y34337D01*
X33383D01*
Y34342D01*
X33365D01*
Y34346D01*
X33348D01*
Y34351D01*
X33330D01*
Y34355D01*
X33312D01*
Y34359D01*
X33295D01*
Y34364D01*
X33273D01*
Y34368D01*
X33251D01*
Y34373D01*
X33224D01*
Y34377D01*
X33198D01*
Y34382D01*
X33167D01*
Y34386D01*
X33136D01*
Y34390D01*
X33092D01*
Y34395D01*
X33026D01*
Y34399D01*
X32876D01*
Y34395D01*
X32810D01*
Y34390D01*
X32766D01*
Y34386D01*
X32735D01*
Y34382D01*
X32704D01*
Y34377D01*
X32677D01*
Y34373D01*
X32651D01*
Y34368D01*
X32629D01*
Y34364D01*
X32607D01*
Y34359D01*
X32589D01*
Y34355D01*
X32571D01*
Y34351D01*
X32554D01*
Y34346D01*
X32536D01*
Y34342D01*
X32519D01*
Y34337D01*
X32505D01*
Y34333D01*
X32488D01*
Y34329D01*
X32474D01*
Y34324D01*
X32461D01*
Y34320D01*
X32448D01*
Y34315D01*
X32435D01*
Y34311D01*
X32422D01*
Y34307D01*
X32408D01*
Y34302D01*
X32395D01*
Y34298D01*
X32386D01*
Y34293D01*
X32373D01*
Y34289D01*
X32360D01*
Y34285D01*
X32351D01*
Y34280D01*
X32342D01*
Y34276D01*
X32329D01*
Y34271D01*
X32320D01*
Y34267D01*
X32307D01*
Y34262D01*
X32298D01*
Y34258D01*
X32289D01*
Y34254D01*
X32280D01*
Y34249D01*
X32272D01*
Y34245D01*
X32263D01*
Y34240D01*
X32250D01*
Y34236D01*
X32241D01*
Y34232D01*
X32232D01*
Y34227D01*
X32223D01*
Y34223D01*
X32214D01*
Y34218D01*
X32210D01*
Y34214D01*
X32201D01*
Y34210D01*
X32192D01*
Y34205D01*
X32183D01*
Y34201D01*
X32175D01*
Y34196D01*
X32166D01*
Y34192D01*
X32161D01*
Y34187D01*
X32153D01*
Y34183D01*
X32144D01*
Y34179D01*
X32135D01*
Y34174D01*
X32130D01*
Y34170D01*
X32122D01*
Y34165D01*
X32113D01*
Y34161D01*
X32108D01*
Y34157D01*
X32100D01*
Y34152D01*
X32095D01*
Y34148D01*
X32086D01*
Y34143D01*
X32078D01*
Y34139D01*
X32073D01*
Y34135D01*
X32064D01*
Y34130D01*
X32060D01*
Y34126D01*
X32051D01*
Y34121D01*
X32047D01*
Y34117D01*
X32042D01*
Y34113D01*
X32033D01*
Y34108D01*
X32029D01*
Y34104D01*
X32020D01*
Y34099D01*
X32016D01*
Y34095D01*
X32007D01*
Y34090D01*
X32003D01*
Y34086D01*
X31998D01*
Y34082D01*
X31989D01*
Y34077D01*
X31985D01*
Y34073D01*
X31981D01*
Y34068D01*
X31972D01*
Y34064D01*
X31967D01*
Y34060D01*
X31963D01*
Y34055D01*
X31959D01*
Y34051D01*
X31950D01*
Y34046D01*
X31945D01*
Y34042D01*
X31941D01*
Y34038D01*
X31936D01*
Y34033D01*
X31928D01*
Y34029D01*
X31923D01*
Y34024D01*
X31919D01*
Y34020D01*
X31914D01*
Y34016D01*
X31910D01*
Y34011D01*
X31906D01*
Y34007D01*
X31897D01*
Y34002D01*
X31892D01*
Y33998D01*
X31888D01*
Y33993D01*
X31884D01*
Y33989D01*
X31879D01*
Y33985D01*
X31875D01*
Y33980D01*
X31870D01*
Y33976D01*
X31866D01*
Y33971D01*
X31857D01*
Y33967D01*
X31853D01*
Y33963D01*
X31848D01*
Y33958D01*
X31844D01*
Y33954D01*
X31839D01*
Y33949D01*
X31835D01*
Y33945D01*
X31831D01*
Y33941D01*
X31826D01*
Y33936D01*
X31822D01*
Y33932D01*
X31817D01*
Y33927D01*
X31813D01*
Y33923D01*
X31809D01*
Y33918D01*
X31804D01*
Y33914D01*
X31800D01*
Y33910D01*
X31795D01*
Y33905D01*
X31791D01*
Y33901D01*
X31787D01*
Y33896D01*
X31782D01*
Y33892D01*
X31778D01*
Y33888D01*
Y33883D01*
X31773D01*
Y33879D01*
X31769D01*
Y33874D01*
X31764D01*
Y33870D01*
X31760D01*
Y33866D01*
X31756D01*
Y33861D01*
X31751D01*
Y33857D01*
X31747D01*
Y33852D01*
X31742D01*
Y33848D01*
Y33844D01*
X31738D01*
Y33839D01*
X31734D01*
Y33835D01*
X31729D01*
Y33830D01*
X31725D01*
Y33826D01*
X31720D01*
Y33821D01*
X31716D01*
Y33817D01*
Y33813D01*
X31712D01*
Y33808D01*
X31707D01*
Y33804D01*
X31703D01*
Y33799D01*
X31698D01*
Y33795D01*
Y33791D01*
X31694D01*
Y33786D01*
X31690D01*
Y33782D01*
X31685D01*
Y33777D01*
X31681D01*
Y33773D01*
Y33769D01*
X31676D01*
Y33764D01*
X31672D01*
Y33760D01*
X31667D01*
Y33755D01*
Y33751D01*
X31663D01*
Y33747D01*
X31659D01*
Y33742D01*
X31654D01*
Y33738D01*
Y33733D01*
X31650D01*
Y33729D01*
X31645D01*
Y33724D01*
Y33720D01*
X31641D01*
Y33716D01*
X31637D01*
Y33711D01*
Y33707D01*
X31632D01*
Y33702D01*
X31628D01*
Y33698D01*
X31623D01*
Y33694D01*
Y33689D01*
X31619D01*
Y33685D01*
X31615D01*
Y33680D01*
Y33676D01*
X31610D01*
Y33672D01*
X31606D01*
Y33667D01*
Y33663D01*
X31601D01*
Y33658D01*
Y33654D01*
X31597D01*
Y33649D01*
X31592D01*
Y33645D01*
Y33641D01*
X31588D01*
Y33636D01*
X31584D01*
Y33632D01*
Y33627D01*
X31579D01*
Y33623D01*
Y33619D01*
X31575D01*
Y33614D01*
X31570D01*
Y33610D01*
Y33605D01*
X31566D01*
Y33601D01*
Y33597D01*
X31562D01*
Y33592D01*
Y33588D01*
X31557D01*
Y33583D01*
X31553D01*
Y33579D01*
Y33575D01*
X31548D01*
Y33570D01*
Y33566D01*
X31544D01*
Y33561D01*
Y33557D01*
X31540D01*
Y33552D01*
Y33548D01*
X31535D01*
Y33544D01*
Y33539D01*
X31531D01*
Y33535D01*
X31526D01*
Y33530D01*
Y33526D01*
X31522D01*
Y33522D01*
Y33517D01*
X31518D01*
Y33513D01*
Y33508D01*
X31513D01*
Y33504D01*
Y33500D01*
X31509D01*
Y33495D01*
Y33491D01*
Y33486D01*
X31504D01*
Y33482D01*
Y33477D01*
X31500D01*
Y33473D01*
Y33469D01*
X31495D01*
Y33464D01*
Y33460D01*
X31491D01*
Y33455D01*
Y33451D01*
X31487D01*
Y33447D01*
Y33442D01*
X31482D01*
Y33438D01*
Y33433D01*
Y33429D01*
X31478D01*
Y33425D01*
Y33420D01*
X31473D01*
Y33416D01*
Y33411D01*
Y33407D01*
X31469D01*
Y33403D01*
Y33398D01*
X31465D01*
Y33394D01*
Y33389D01*
X31460D01*
Y33385D01*
Y33380D01*
Y33376D01*
X31456D01*
Y33372D01*
Y33367D01*
Y33363D01*
X31451D01*
Y33358D01*
Y33354D01*
X31447D01*
Y33350D01*
Y33345D01*
Y33341D01*
X31443D01*
Y33336D01*
Y33332D01*
Y33328D01*
X31438D01*
Y33323D01*
Y33319D01*
Y33314D01*
X31434D01*
Y33310D01*
Y33306D01*
Y33301D01*
X31429D01*
Y33297D01*
Y33292D01*
Y33288D01*
X31425D01*
Y33283D01*
Y33279D01*
Y33275D01*
X31421D01*
Y33270D01*
Y33266D01*
Y33261D01*
X31416D01*
Y33257D01*
Y33253D01*
Y33248D01*
Y33244D01*
X31412D01*
Y33239D01*
Y33235D01*
Y33231D01*
X31407D01*
Y33226D01*
Y33222D01*
Y33217D01*
Y33213D01*
X31403D01*
Y33208D01*
Y33204D01*
Y33200D01*
Y33195D01*
X31398D01*
Y33191D01*
Y33186D01*
Y33182D01*
Y33178D01*
X31394D01*
Y33173D01*
Y33169D01*
Y33164D01*
Y33160D01*
X31390D01*
Y33156D01*
Y33151D01*
Y33147D01*
Y33142D01*
X31385D01*
Y33138D01*
Y33134D01*
Y33129D01*
Y33125D01*
Y33120D01*
X31381D01*
Y33116D01*
Y33111D01*
Y33107D01*
Y33103D01*
Y33098D01*
X31376D01*
Y33094D01*
Y33089D01*
Y33085D01*
Y33081D01*
Y33076D01*
X31372D01*
Y33072D01*
Y33067D01*
Y33063D01*
Y33059D01*
Y33054D01*
Y33050D01*
X31368D01*
Y33045D01*
Y33041D01*
Y33037D01*
Y33032D01*
Y33028D01*
Y33023D01*
Y33019D01*
X31363D01*
Y33014D01*
Y33010D01*
Y33006D01*
Y33001D01*
Y32997D01*
Y32992D01*
Y32988D01*
Y32984D01*
X31359D01*
Y32979D01*
Y32975D01*
Y32970D01*
Y32966D01*
Y32962D01*
Y32957D01*
Y32953D01*
Y32948D01*
Y32944D01*
Y32940D01*
X31354D01*
Y32935D01*
Y32931D01*
Y32926D01*
Y32922D01*
Y32917D01*
Y32913D01*
Y32909D01*
Y32904D01*
Y32900D01*
Y32895D01*
Y32891D01*
Y32887D01*
Y32882D01*
Y32878D01*
X31350D01*
Y32873D01*
Y32869D01*
Y32865D01*
Y32860D01*
Y32856D01*
Y32851D01*
Y32847D01*
Y32842D01*
Y32838D01*
Y32834D01*
Y32829D01*
Y32825D01*
Y32820D01*
Y32816D01*
Y32812D01*
Y32807D01*
Y32803D01*
Y32798D01*
Y32794D01*
Y32790D01*
Y32785D01*
Y32781D01*
Y32776D01*
Y32772D01*
Y32768D01*
Y32763D01*
Y32759D01*
Y32754D01*
Y32750D01*
Y32745D01*
Y32741D01*
Y32737D01*
Y32732D01*
Y32728D01*
Y32723D01*
Y32719D01*
X31354D01*
Y32715D01*
Y32710D01*
Y32706D01*
Y32701D01*
Y32697D01*
Y32693D01*
Y32688D01*
Y32684D01*
Y32679D01*
Y32675D01*
Y32671D01*
Y32666D01*
Y32662D01*
Y32657D01*
X31359D01*
Y32653D01*
Y32648D01*
Y32644D01*
Y32640D01*
Y32635D01*
Y32631D01*
Y32626D01*
Y32622D01*
Y32618D01*
Y32613D01*
X31363D01*
Y32609D01*
Y32604D01*
Y32600D01*
Y32596D01*
Y32591D01*
Y32587D01*
Y32582D01*
Y32578D01*
X31368D01*
Y32573D01*
Y32569D01*
Y32565D01*
Y32560D01*
Y32556D01*
Y32551D01*
Y32547D01*
X31372D01*
Y32543D01*
Y32538D01*
Y32534D01*
Y32529D01*
Y32525D01*
Y32521D01*
X31376D01*
Y32516D01*
Y32512D01*
Y32507D01*
Y32503D01*
Y32499D01*
X31381D01*
Y32494D01*
Y32490D01*
Y32485D01*
Y32481D01*
Y32476D01*
X31385D01*
Y32472D01*
Y32468D01*
Y32463D01*
Y32459D01*
Y32454D01*
X31390D01*
Y32450D01*
Y32446D01*
Y32441D01*
Y32437D01*
X31394D01*
Y32432D01*
Y32428D01*
Y32424D01*
Y32419D01*
X31398D01*
Y32415D01*
Y32410D01*
Y32406D01*
Y32401D01*
X31403D01*
Y32397D01*
Y32393D01*
Y32388D01*
Y32384D01*
X31407D01*
Y32379D01*
Y32375D01*
Y32371D01*
Y32366D01*
X31412D01*
Y32362D01*
Y32357D01*
Y32353D01*
X31416D01*
Y32349D01*
Y32344D01*
Y32340D01*
Y32335D01*
X31421D01*
Y32331D01*
Y32327D01*
Y32322D01*
X31425D01*
Y32318D01*
Y32313D01*
Y32309D01*
X31429D01*
Y32304D01*
Y32300D01*
Y32296D01*
X31434D01*
Y32291D01*
Y32287D01*
Y32282D01*
X31438D01*
Y32278D01*
Y32274D01*
Y32269D01*
X31443D01*
Y32265D01*
Y32260D01*
Y32256D01*
X31447D01*
Y32252D01*
Y32247D01*
Y32243D01*
X31451D01*
Y32238D01*
Y32234D01*
X31456D01*
Y32230D01*
Y32225D01*
Y32221D01*
X31460D01*
Y32216D01*
Y32212D01*
Y32207D01*
X31465D01*
Y32203D01*
Y32199D01*
X31469D01*
Y32194D01*
Y32190D01*
X31473D01*
Y32185D01*
Y32181D01*
Y32177D01*
X31478D01*
Y32172D01*
Y32168D01*
X31482D01*
Y32163D01*
Y32159D01*
Y32155D01*
X31487D01*
Y32150D01*
Y32146D01*
Y32141D01*
Y32137D01*
X31482D01*
Y32132D01*
Y32128D01*
X31478D01*
Y32124D01*
Y32119D01*
X31473D01*
Y32115D01*
X31469D01*
Y32110D01*
Y32106D01*
X31465D01*
Y32102D01*
Y32097D01*
X31460D01*
Y32093D01*
X31456D01*
Y32088D01*
Y32084D01*
X31451D01*
Y32080D01*
Y32075D01*
X31443D01*
Y32071D01*
X31447D01*
Y32066D01*
X31443D01*
Y32062D01*
X31438D01*
Y32058D01*
Y32053D01*
X31434D01*
Y32049D01*
Y32044D01*
X31429D01*
Y32040D01*
Y32035D01*
X31425D01*
Y32031D01*
X31421D01*
Y32027D01*
Y32022D01*
X31416D01*
Y32018D01*
Y32013D01*
X31412D01*
Y32009D01*
Y32005D01*
X31407D01*
Y32000D01*
X31403D01*
Y31996D01*
Y31991D01*
X31398D01*
Y31987D01*
Y31983D01*
X31394D01*
Y31978D01*
X31390D01*
Y31974D01*
Y31969D01*
X31385D01*
Y31965D01*
Y31961D01*
X31376D01*
Y31956D01*
X31381D01*
Y31952D01*
X31376D01*
Y31947D01*
X31372D01*
Y31943D01*
Y31938D01*
X31368D01*
Y31934D01*
Y31930D01*
X31363D01*
Y31925D01*
Y31921D01*
X31359D01*
Y31916D01*
X31354D01*
Y31912D01*
Y31908D01*
X31350D01*
Y31903D01*
Y31899D01*
X31346D01*
Y31894D01*
Y31890D01*
X31341D01*
Y31886D01*
X31337D01*
Y31881D01*
Y31877D01*
X31332D01*
Y31872D01*
Y31868D01*
X31328D01*
Y31863D01*
X31323D01*
Y31859D01*
Y31855D01*
X31319D01*
Y31850D01*
Y31846D01*
X31310D01*
Y31841D01*
X31315D01*
Y31837D01*
X31310D01*
Y31833D01*
X31306D01*
Y31828D01*
Y31824D01*
X31301D01*
Y31819D01*
Y31815D01*
X31297D01*
Y31811D01*
Y31806D01*
X31293D01*
Y31802D01*
X31288D01*
Y31797D01*
Y31793D01*
X31284D01*
Y31789D01*
Y31784D01*
X31279D01*
Y31780D01*
X31275D01*
Y31775D01*
Y31771D01*
X31271D01*
Y31766D01*
Y31762D01*
X31266D01*
Y31758D01*
X31262D01*
Y31762D01*
X31257D01*
Y31766D01*
Y31771D01*
X31253D01*
Y31775D01*
Y31780D01*
X31249D01*
Y31784D01*
X31244D01*
Y31789D01*
Y31793D01*
X31240D01*
Y31797D01*
Y31802D01*
X31235D01*
Y31806D01*
X31231D01*
Y31811D01*
Y31815D01*
X31226D01*
Y31819D01*
Y31824D01*
X31222D01*
Y31828D01*
Y31833D01*
X31218D01*
Y31837D01*
X31213D01*
Y31841D01*
Y31846D01*
X31209D01*
Y31850D01*
Y31855D01*
X31204D01*
Y31859D01*
Y31863D01*
X31200D01*
Y31868D01*
Y31872D01*
X31196D01*
Y31877D01*
Y31881D01*
X31191D01*
Y31886D01*
Y31890D01*
X31187D01*
Y31894D01*
Y31899D01*
X31182D01*
Y31903D01*
Y31908D01*
X31178D01*
Y31912D01*
Y31916D01*
X31174D01*
Y31921D01*
Y31925D01*
X31169D01*
Y31930D01*
Y31934D01*
X31165D01*
Y31938D01*
Y31943D01*
X31160D01*
Y31947D01*
Y31952D01*
X31156D01*
Y31956D01*
Y31961D01*
X31152D01*
Y31965D01*
Y31969D01*
X31147D01*
Y31974D01*
Y31978D01*
X31143D01*
Y31983D01*
Y31987D01*
X31138D01*
Y31991D01*
Y31996D01*
Y32000D01*
X31134D01*
Y32005D01*
Y32009D01*
X31129D01*
Y32013D01*
Y32018D01*
X31125D01*
Y32022D01*
Y32027D01*
Y32031D01*
X31121D01*
Y32035D01*
Y32040D01*
X31116D01*
Y32044D01*
Y32049D01*
X31112D01*
Y32053D01*
Y32058D01*
Y32062D01*
X31107D01*
Y32066D01*
Y32071D01*
X31103D01*
Y32075D01*
Y32080D01*
Y32084D01*
X31099D01*
Y32088D01*
Y32093D01*
Y32097D01*
X31094D01*
Y32102D01*
Y32106D01*
X31090D01*
Y32110D01*
Y32115D01*
Y32119D01*
X31085D01*
Y32124D01*
Y32128D01*
Y32132D01*
X31081D01*
Y32137D01*
Y32141D01*
Y32146D01*
X31077D01*
Y32150D01*
Y32155D01*
Y32159D01*
X31072D01*
Y32163D01*
Y32168D01*
X31068D01*
Y32172D01*
Y32177D01*
Y32181D01*
Y32185D01*
X31063D01*
Y32190D01*
Y32194D01*
Y32199D01*
X31059D01*
Y32203D01*
Y32207D01*
Y32212D01*
X31054D01*
Y32216D01*
Y32221D01*
Y32225D01*
X31050D01*
Y32230D01*
Y32234D01*
Y32238D01*
X31046D01*
Y32243D01*
Y32247D01*
Y32252D01*
Y32256D01*
X31041D01*
Y32260D01*
Y32265D01*
Y32269D01*
X31037D01*
Y32274D01*
Y32278D01*
Y32282D01*
Y32287D01*
X31032D01*
Y32291D01*
Y32296D01*
Y32300D01*
Y32304D01*
X31028D01*
Y32309D01*
Y32313D01*
Y32318D01*
Y32322D01*
X31024D01*
Y32327D01*
Y32331D01*
Y32335D01*
Y32340D01*
X31019D01*
Y32344D01*
Y32349D01*
Y32353D01*
Y32357D01*
X31015D01*
Y32362D01*
Y32366D01*
Y32371D01*
Y32375D01*
Y32379D01*
X31010D01*
Y32384D01*
Y32388D01*
Y32393D01*
Y32397D01*
Y32401D01*
X31006D01*
Y32406D01*
Y32410D01*
Y32415D01*
Y32419D01*
Y32424D01*
X31002D01*
Y32428D01*
Y32432D01*
Y32437D01*
Y32441D01*
Y32446D01*
X30997D01*
Y32450D01*
Y32454D01*
Y32459D01*
Y32463D01*
Y32468D01*
Y32472D01*
X30993D01*
Y32476D01*
Y32481D01*
Y32485D01*
Y32490D01*
Y32494D01*
Y32499D01*
X30988D01*
Y32503D01*
Y32507D01*
Y32512D01*
Y32516D01*
Y32521D01*
Y32525D01*
Y32529D01*
X30984D01*
Y32534D01*
Y32538D01*
Y32543D01*
Y32547D01*
Y32551D01*
Y32556D01*
Y32560D01*
Y32565D01*
X30980D01*
Y32569D01*
Y32573D01*
Y32578D01*
Y32582D01*
Y32587D01*
Y32591D01*
Y32596D01*
Y32600D01*
Y32604D01*
Y32609D01*
X30975D01*
Y32613D01*
Y32618D01*
Y32622D01*
Y32626D01*
Y32631D01*
Y32635D01*
Y32640D01*
Y32644D01*
Y32648D01*
Y32653D01*
Y32657D01*
Y32662D01*
X30971D01*
Y32666D01*
Y32671D01*
Y32675D01*
Y32679D01*
Y32684D01*
Y32688D01*
Y32693D01*
Y32697D01*
Y32701D01*
Y32706D01*
Y32710D01*
Y32715D01*
Y32719D01*
Y32723D01*
Y32728D01*
Y32732D01*
Y32737D01*
Y32741D01*
Y32745D01*
Y32750D01*
Y32754D01*
Y32759D01*
Y32763D01*
Y32768D01*
X30966D01*
Y32772D01*
Y32776D01*
Y32781D01*
Y32785D01*
Y32790D01*
Y32794D01*
Y32798D01*
Y32803D01*
Y32807D01*
Y32812D01*
Y32816D01*
Y32820D01*
Y32825D01*
Y32829D01*
X30971D01*
Y32834D01*
Y32838D01*
Y32842D01*
Y32847D01*
Y32851D01*
Y32856D01*
Y32860D01*
Y32865D01*
Y32869D01*
Y32873D01*
Y32878D01*
Y32882D01*
Y32887D01*
Y32891D01*
Y32895D01*
Y32900D01*
Y32904D01*
Y32909D01*
Y32913D01*
Y32917D01*
Y32922D01*
Y32926D01*
Y32931D01*
Y32935D01*
X30975D01*
Y32940D01*
Y32944D01*
Y32948D01*
Y32953D01*
Y32957D01*
Y32962D01*
Y32966D01*
Y32970D01*
Y32975D01*
Y32979D01*
Y32984D01*
Y32988D01*
X30980D01*
Y32992D01*
Y32997D01*
Y33001D01*
Y33006D01*
Y33010D01*
Y33014D01*
Y33019D01*
Y33023D01*
Y33028D01*
Y33032D01*
X30984D01*
Y33037D01*
Y33041D01*
Y33045D01*
Y33050D01*
Y33054D01*
Y33059D01*
Y33063D01*
Y33067D01*
X30988D01*
Y33072D01*
Y33076D01*
Y33081D01*
Y33085D01*
Y33089D01*
Y33094D01*
Y33098D01*
X30993D01*
Y33103D01*
Y33107D01*
Y33111D01*
Y33116D01*
Y33120D01*
Y33125D01*
X30997D01*
Y33129D01*
Y33134D01*
Y33138D01*
Y33142D01*
Y33147D01*
Y33151D01*
X31002D01*
Y33156D01*
Y33160D01*
Y33164D01*
Y33169D01*
Y33173D01*
X31006D01*
Y33178D01*
Y33182D01*
Y33186D01*
Y33191D01*
Y33195D01*
X31010D01*
Y33200D01*
Y33204D01*
Y33208D01*
Y33213D01*
Y33217D01*
X31015D01*
Y33222D01*
Y33226D01*
Y33231D01*
Y33235D01*
Y33239D01*
X31019D01*
Y33244D01*
Y33248D01*
Y33253D01*
Y33257D01*
X31024D01*
Y33261D01*
Y33266D01*
Y33270D01*
Y33275D01*
X31028D01*
Y33279D01*
Y33283D01*
Y33288D01*
Y33292D01*
X31032D01*
Y33297D01*
Y33301D01*
Y33306D01*
Y33310D01*
X31037D01*
Y33314D01*
Y33319D01*
Y33323D01*
Y33328D01*
X31041D01*
Y33332D01*
Y33336D01*
Y33341D01*
X31046D01*
Y33345D01*
Y33350D01*
Y33354D01*
Y33358D01*
X31050D01*
Y33363D01*
Y33367D01*
Y33372D01*
X31054D01*
Y33376D01*
Y33380D01*
Y33385D01*
X31059D01*
Y33389D01*
Y33394D01*
Y33398D01*
X31063D01*
Y33403D01*
Y33407D01*
Y33411D01*
X31068D01*
Y33416D01*
Y33420D01*
Y33425D01*
Y33429D01*
X31072D01*
Y33433D01*
Y33438D01*
X31077D01*
Y33442D01*
Y33447D01*
Y33451D01*
X31081D01*
Y33455D01*
Y33460D01*
Y33464D01*
X31085D01*
Y33469D01*
Y33473D01*
Y33477D01*
X31090D01*
Y33482D01*
Y33486D01*
Y33491D01*
X31094D01*
Y33495D01*
Y33500D01*
X31099D01*
Y33504D01*
Y33508D01*
Y33513D01*
X31103D01*
Y33517D01*
Y33522D01*
Y33526D01*
X31107D01*
Y33530D01*
Y33535D01*
X31112D01*
Y33539D01*
Y33544D01*
Y33548D01*
X31116D01*
Y33552D01*
Y33557D01*
X31121D01*
Y33561D01*
Y33566D01*
X31125D01*
Y33570D01*
Y33575D01*
Y33579D01*
X31129D01*
Y33583D01*
Y33588D01*
X31134D01*
Y33592D01*
Y33597D01*
X31138D01*
Y33601D01*
Y33605D01*
Y33610D01*
X31143D01*
Y33614D01*
Y33619D01*
X31147D01*
Y33623D01*
Y33627D01*
X31152D01*
Y33632D01*
Y33636D01*
X31156D01*
Y33641D01*
Y33645D01*
X31160D01*
Y33649D01*
Y33654D01*
X31165D01*
Y33658D01*
Y33663D01*
X31169D01*
Y33667D01*
Y33672D01*
X31174D01*
Y33676D01*
Y33680D01*
X31178D01*
Y33685D01*
Y33689D01*
X31182D01*
Y33694D01*
Y33698D01*
X31187D01*
Y33702D01*
Y33707D01*
X31191D01*
Y33711D01*
Y33716D01*
X31196D01*
Y33720D01*
Y33724D01*
X31200D01*
Y33729D01*
Y33733D01*
X31204D01*
Y33738D01*
Y33742D01*
X31209D01*
Y33747D01*
Y33751D01*
X31213D01*
Y33755D01*
Y33760D01*
X31218D01*
Y33764D01*
X31222D01*
Y33769D01*
Y33773D01*
X31226D01*
Y33777D01*
Y33782D01*
X31231D01*
Y33786D01*
Y33791D01*
X31235D01*
Y33795D01*
X31240D01*
Y33799D01*
Y33804D01*
X31244D01*
Y33808D01*
Y33813D01*
X31249D01*
Y33817D01*
X31253D01*
Y33821D01*
Y33826D01*
X31257D01*
Y33830D01*
Y33835D01*
X31262D01*
Y33839D01*
X31266D01*
Y33844D01*
Y33848D01*
X31271D01*
Y33852D01*
Y33857D01*
X31275D01*
Y33861D01*
X31279D01*
Y33866D01*
Y33870D01*
X31284D01*
Y33874D01*
X31288D01*
Y33879D01*
Y33883D01*
X31293D01*
Y33888D01*
X31297D01*
Y33892D01*
Y33896D01*
X31301D01*
Y33901D01*
X31306D01*
Y33905D01*
Y33910D01*
X31310D01*
Y33914D01*
X31315D01*
Y33918D01*
Y33923D01*
X31319D01*
Y33927D01*
X31323D01*
Y33932D01*
Y33936D01*
X31328D01*
Y33941D01*
X31332D01*
Y33945D01*
X31337D01*
Y33949D01*
Y33954D01*
X31341D01*
Y33958D01*
X31346D01*
Y33963D01*
Y33967D01*
X31350D01*
Y33971D01*
X31354D01*
Y33976D01*
X31359D01*
Y33980D01*
Y33985D01*
X31363D01*
Y33989D01*
X31368D01*
Y33993D01*
X31372D01*
Y33998D01*
Y34002D01*
X31376D01*
Y34007D01*
X31381D01*
Y34011D01*
X31385D01*
Y34016D01*
X31390D01*
Y34020D01*
Y34024D01*
X31394D01*
Y34029D01*
X31398D01*
Y34033D01*
X31403D01*
Y34038D01*
Y34042D01*
X31407D01*
Y34046D01*
X31412D01*
Y34051D01*
X31416D01*
Y34055D01*
X31421D01*
Y34060D01*
X31425D01*
Y34064D01*
Y34068D01*
X31429D01*
Y34073D01*
X31434D01*
Y34077D01*
X31438D01*
Y34082D01*
X31443D01*
Y34086D01*
X31447D01*
Y34090D01*
Y34095D01*
X31451D01*
Y34099D01*
X31456D01*
Y34104D01*
X31460D01*
Y34108D01*
X31465D01*
Y34113D01*
X31469D01*
Y34117D01*
X31473D01*
Y34121D01*
X31478D01*
Y34126D01*
X31487D01*
Y34130D01*
X31482D01*
Y34135D01*
X31487D01*
Y34139D01*
X31491D01*
Y34143D01*
X31495D01*
Y34148D01*
X31500D01*
Y34152D01*
X31504D01*
Y34157D01*
X31509D01*
Y34161D01*
X31513D01*
Y34165D01*
X31518D01*
Y34170D01*
X31522D01*
Y34174D01*
X31526D01*
Y34179D01*
X31531D01*
Y34183D01*
X31535D01*
Y34187D01*
X31540D01*
Y34192D01*
X31544D01*
Y34196D01*
X31548D01*
Y34201D01*
X31553D01*
Y34205D01*
X31557D01*
Y34210D01*
X31562D01*
Y34214D01*
X31566D01*
Y34218D01*
X31570D01*
Y34223D01*
X31575D01*
Y34227D01*
X31579D01*
Y34232D01*
X31584D01*
Y34236D01*
X31588D01*
Y34240D01*
X31592D01*
Y34245D01*
X31597D01*
Y34249D01*
X31601D01*
Y34254D01*
X31606D01*
Y34258D01*
X31610D01*
Y34262D01*
X31615D01*
Y34267D01*
X31623D01*
Y34271D01*
X31628D01*
Y34276D01*
X31632D01*
Y34280D01*
X31637D01*
Y34285D01*
X31641D01*
Y34289D01*
X31645D01*
Y34293D01*
X31650D01*
Y34298D01*
X31654D01*
Y34302D01*
X31663D01*
Y34307D01*
X31667D01*
Y34311D01*
X31672D01*
Y34315D01*
X31676D01*
Y34320D01*
X31681D01*
Y34324D01*
X31690D01*
Y34329D01*
X31694D01*
Y34333D01*
X31698D01*
Y34337D01*
X31703D01*
Y34342D01*
X31707D01*
Y34346D01*
X31716D01*
Y34351D01*
X31720D01*
Y34355D01*
X31725D01*
Y34359D01*
X31734D01*
Y34364D01*
X31738D01*
Y34368D01*
X31742D01*
Y34373D01*
X31747D01*
Y34377D01*
X31756D01*
Y34382D01*
X31760D01*
Y34386D01*
X31764D01*
Y34390D01*
X31773D01*
Y34395D01*
X31778D01*
Y34399D01*
X31782D01*
Y34404D01*
X31791D01*
Y34408D01*
X31795D01*
Y34412D01*
X31804D01*
Y34417D01*
X31809D01*
Y34421D01*
X31813D01*
Y34426D01*
X31822D01*
Y34430D01*
X31826D01*
Y34434D01*
X31835D01*
Y34439D01*
X31839D01*
Y34443D01*
X31848D01*
Y34448D01*
X31853D01*
Y34452D01*
X31861D01*
Y34456D01*
X31866D01*
Y34461D01*
X31875D01*
Y34465D01*
X31879D01*
Y34470D01*
X31888D01*
Y34474D01*
X31892D01*
Y34479D01*
X31901D01*
Y34483D01*
X31910D01*
Y34487D01*
X31914D01*
Y34492D01*
X31923D01*
Y34496D01*
X31932D01*
Y34501D01*
X31936D01*
Y34505D01*
X31945D01*
Y34509D01*
X31954D01*
Y34514D01*
X31959D01*
Y34518D01*
X31967D01*
Y34523D01*
X31976D01*
Y34527D01*
X31985D01*
Y34531D01*
X31989D01*
Y34536D01*
X31998D01*
Y34540D01*
X32007D01*
Y34545D01*
X32016D01*
Y34549D01*
X32025D01*
Y34553D01*
X32033D01*
Y34558D01*
X32042D01*
Y34562D01*
X32051D01*
Y34567D01*
X32060D01*
Y34571D01*
X32069D01*
Y34576D01*
X32078D01*
Y34580D01*
X32086D01*
Y34584D01*
X32095D01*
Y34589D01*
X32104D01*
Y34593D01*
X32113D01*
Y34598D01*
X32122D01*
Y34602D01*
X32130D01*
Y34606D01*
X32139D01*
Y34611D01*
X32153D01*
Y34615D01*
X32161D01*
Y34620D01*
X32170D01*
Y34624D01*
X32183D01*
Y34628D01*
X32192D01*
Y34633D01*
X32201D01*
Y34637D01*
X32214D01*
Y34642D01*
X32223D01*
Y34646D01*
X32236D01*
Y34651D01*
X32250D01*
Y34655D01*
X32258D01*
Y34659D01*
X32272D01*
Y34664D01*
X32285D01*
Y34668D01*
X32298D01*
Y34673D01*
X32311D01*
Y34677D01*
X32320D01*
Y34681D01*
X32338D01*
Y34686D01*
X32351D01*
Y34690D01*
X32364D01*
Y34695D01*
X32377D01*
Y34699D01*
X32391D01*
Y34703D01*
X32408D01*
Y34708D01*
X32422D01*
Y34712D01*
X32439D01*
Y34717D01*
X32457D01*
Y34721D01*
X32474D01*
Y34725D01*
X32492D01*
Y34730D01*
X32510D01*
Y34734D01*
X32532D01*
Y34739D01*
X32554D01*
Y34743D01*
X32576D01*
Y34748D01*
X32598D01*
Y34752D01*
X32624D01*
Y34756D01*
X32651D01*
Y34761D01*
X32682D01*
Y34765D01*
X32717D01*
Y34770D01*
X32757D01*
Y34774D01*
X32810D01*
Y34778D01*
X32907D01*
Y34783D01*
X32995D01*
Y34778D01*
D02*
G37*
G36*
X35061Y29913D02*
Y29822D01*
X34744Y29822D01*
X34427Y29822D01*
Y29913D01*
X34533Y30019D01*
X34744Y30019D01*
X34956Y30019D01*
X35061Y29913D01*
D02*
G37*
G36*
Y28338D02*
Y28248D01*
X34744Y28248D01*
X34427Y28248D01*
Y28338D01*
X34533Y28444D01*
X34744Y28444D01*
X34956Y28444D01*
X35061Y28338D01*
D02*
G37*
G36*
X11735Y26878D02*
X11629Y26773D01*
X11417Y26773D01*
X11206Y26773D01*
X11100Y26878D01*
Y26969D01*
X11417Y26969D01*
X11735Y26969D01*
Y26878D01*
D02*
G37*
G36*
X35061Y26763D02*
Y26673D01*
X34744Y26673D01*
X34427Y26673D01*
Y26763D01*
X34533Y26869D01*
X34744Y26869D01*
X34956Y26869D01*
X35061Y26763D01*
D02*
G37*
G36*
X11735Y25303D02*
X11629Y25198D01*
X11417Y25198D01*
X11206Y25198D01*
X11100Y25303D01*
Y25394D01*
X11417Y25394D01*
X11735Y25394D01*
Y25303D01*
D02*
G37*
G36*
X35061Y25189D02*
Y25098D01*
X34744Y25098D01*
X34427Y25098D01*
Y25189D01*
X34533Y25294D01*
X34744Y25294D01*
X34956Y25294D01*
X35061Y25189D01*
D02*
G37*
G36*
X11735Y23729D02*
X11629Y23623D01*
X11417Y23623D01*
X11206Y23623D01*
X11100Y23729D01*
Y23819D01*
X11417Y23819D01*
X11735Y23819D01*
Y23729D01*
D02*
G37*
G36*
X35061Y23614D02*
Y23523D01*
X34744Y23523D01*
X34427Y23523D01*
Y23614D01*
X34533Y23720D01*
X34744Y23720D01*
X34956Y23720D01*
X35061Y23614D01*
D02*
G37*
G36*
X11735Y22154D02*
X11629Y22048D01*
X11417Y22048D01*
X11206Y22048D01*
X11100Y22154D01*
Y22245D01*
X11417Y22245D01*
X11735Y22245D01*
Y22154D01*
D02*
G37*
G36*
X35061Y22039D02*
Y21948D01*
X34744Y21948D01*
X34427Y21948D01*
Y22039D01*
X34533Y22145D01*
X34744Y22145D01*
X34956Y22145D01*
X35061Y22039D01*
D02*
G37*
G36*
X15650Y21555D02*
X15650Y21238D01*
X15559D01*
X15454Y21344D01*
X15454Y21555D01*
X15454Y21767D01*
X15559Y21872D01*
X15650D01*
X15650Y21555D01*
D02*
G37*
G36*
X35061Y20464D02*
Y20373D01*
X34744Y20373D01*
X34427Y20373D01*
Y20464D01*
X34533Y20570D01*
X34744Y20570D01*
X34956Y20570D01*
X35061Y20464D01*
D02*
G37*
G36*
X25669Y20374D02*
X25315D01*
X25492Y20728D01*
X25669Y20374D01*
D02*
G37*
G36*
X35061Y18889D02*
Y18799D01*
X34744Y18799D01*
X34427Y18799D01*
Y18889D01*
X34533Y18995D01*
X34744Y18995D01*
X34956Y18995D01*
X35061Y18889D01*
D02*
G37*
G36*
X10803Y18874D02*
X11028Y18650D01*
X10963Y18586D01*
X10814Y18586D01*
X10664Y18735D01*
X10515Y18885D01*
X10515Y19034D01*
X10579Y19098D01*
X10803Y18874D01*
D02*
G37*
G36*
X35061Y17315D02*
Y17224D01*
X34744Y17224D01*
X34427Y17224D01*
Y17315D01*
X34533Y17420D01*
X34744Y17420D01*
X34956Y17420D01*
X35061Y17315D01*
D02*
G37*
G36*
X28936Y13991D02*
X28936Y13780D01*
X28936Y13568D01*
X28830Y13462D01*
X28740D01*
X28740Y13780D01*
X28740Y14097D01*
X28830D01*
X28936Y13991D01*
D02*
G37*
G36*
X27361D02*
X27361Y13780D01*
X27361Y13568D01*
X27256Y13462D01*
X27165D01*
X27165Y13780D01*
X27165Y14097D01*
X27256D01*
X27361Y13991D01*
D02*
G37*
G36*
X25786D02*
X25786Y13780D01*
X25786Y13568D01*
X25681Y13462D01*
X25590D01*
X25590Y13780D01*
X25590Y14097D01*
X25681D01*
X25786Y13991D01*
D02*
G37*
G36*
X22637D02*
X22637Y13780D01*
X22637Y13568D01*
X22531Y13462D01*
X22440D01*
X22440Y13780D01*
X22440Y14097D01*
X22531D01*
X22637Y13991D01*
D02*
G37*
G36*
X21062D02*
X21062Y13780D01*
X21062Y13568D01*
X20956Y13462D01*
X20866D01*
X20866Y13780D01*
X20866Y14097D01*
X20956D01*
X21062Y13991D01*
D02*
G37*
G36*
X19487D02*
X19487Y13780D01*
X19487Y13568D01*
X19382Y13462D01*
X19291D01*
X19291Y13780D01*
X19291Y14097D01*
X19382D01*
X19487Y13991D01*
D02*
G37*
G36*
X17912D02*
X17912Y13780D01*
X17912Y13568D01*
X17807Y13462D01*
X17716D01*
X17716Y13780D01*
X17716Y14097D01*
X17807D01*
X17912Y13991D01*
D02*
G37*
G36*
X16338D02*
X16338Y13780D01*
X16338Y13568D01*
X16232Y13462D01*
X16141D01*
X16141Y13780D01*
X16141Y14097D01*
X16232D01*
X16338Y13991D01*
D02*
G37*
G36*
X14763D02*
X14763Y13780D01*
X14763Y13568D01*
X14657Y13462D01*
X14566D01*
X14566Y13780D01*
X14566Y14097D01*
X14657D01*
X14763Y13991D01*
D02*
G37*
G36*
X24212Y13991D02*
X24212Y13780D01*
X24212Y13568D01*
X24106Y13462D01*
X24015D01*
X24015Y13780D01*
X24015Y14097D01*
X24106D01*
X24212Y13991D01*
D02*
G37*
%LPC*%
G36*
X33202Y33460D02*
X33198D01*
Y33455D01*
X33202D01*
Y33460D01*
D02*
G37*
G36*
X32091Y32080D02*
X32086D01*
Y32075D01*
X32091D01*
Y32080D01*
D02*
G37*
%LPD*%
D10*
X21368Y24921D02*
G03*
X21368Y24921I-49J0D01*
G01*
D11*
X33750Y3963D02*
X36030D01*
X33750D02*
Y7963D01*
X36030D01*
Y224D02*
Y11701D01*
X22022Y224D02*
X36030D01*
X22022D02*
Y11701D01*
X36030D01*
X0Y36220D02*
X36220D01*
X-0Y12008D02*
X0Y36220D01*
X36220Y0D02*
X36220Y36220D01*
X-0Y12008D02*
X6705Y12008D01*
X18713Y-0D02*
X36220Y0D01*
X6705Y12008D02*
X18713Y-0D01*
D12*
X27657Y23307D02*
Y23583D01*
X28445Y23307D02*
Y23583D01*
X27657Y23307D02*
X28445D01*
X27657Y23583D02*
Y24724D01*
X27697D01*
X28445Y23583D02*
Y24724D01*
X27697D02*
X28445D01*
Y23071D02*
Y23346D01*
X27657Y23071D02*
Y23346D01*
X28445D01*
Y21929D02*
Y23071D01*
X28406Y21929D02*
X28445D01*
X27657D02*
Y23071D01*
Y21929D02*
X28406D01*
X19370Y24744D02*
Y24941D01*
X20000D01*
Y24744D02*
Y24941D01*
Y23681D02*
Y24744D01*
X19370Y23681D02*
X20000D01*
X19370D02*
Y24744D01*
X27402Y24035D02*
X27598D01*
X27598Y23406D02*
X27598Y24035D01*
X27402Y23406D02*
X27598Y23406D01*
X26339Y23406D02*
X27402D01*
X26339D02*
X26339Y24035D01*
X27402Y24035D01*
Y23248D02*
X27598Y23248D01*
X27598Y22618D01*
X27402D02*
X27598D01*
X26339Y22618D02*
X27402Y22618D01*
X26339Y23248D02*
X26339Y22618D01*
X26339Y23248D02*
X27402D01*
X19291Y24843D02*
Y25118D01*
X18504Y24843D02*
Y25118D01*
X19291D01*
Y23701D02*
Y24843D01*
X19252Y23701D02*
X19291D01*
X18504D02*
Y24843D01*
Y23701D02*
X19252D01*
X23504Y16496D02*
Y16693D01*
Y16496D02*
X24134D01*
Y16693D01*
X23504D02*
Y17756D01*
X24134Y16693D02*
Y17756D01*
X23504D02*
X24134D01*
X24016Y15374D02*
Y15768D01*
X23701Y15374D02*
X24016D01*
X22835D02*
Y15768D01*
Y15374D02*
X23150D01*
X23346Y17559D02*
Y17756D01*
X22717D02*
X23346D01*
X22717Y17559D02*
Y17756D01*
X23346Y16496D02*
Y17559D01*
X22717Y16496D02*
Y17559D01*
Y16496D02*
X23346D01*
X23858Y14154D02*
X24055D01*
Y14783D01*
X23858D02*
X24055D01*
X22795Y14154D02*
X23858D01*
X22795Y14783D02*
X23858D01*
X22795Y14154D02*
Y14783D01*
X3634Y30488D02*
X4634D01*
X3634D02*
Y33488D01*
X4634D01*
Y30488D02*
Y33488D01*
X3634Y31500D02*
X4634D01*
X3634Y24976D02*
X4634D01*
X3634D02*
Y27976D01*
X4634D01*
Y24976D02*
Y27976D01*
X3634Y25988D02*
X4634D01*
X3634Y13953D02*
X4634D01*
X3634D02*
Y16953D01*
X4634D01*
Y13953D02*
Y16953D01*
X3634Y14965D02*
X4634D01*
X3634Y19465D02*
X4634D01*
X3634D02*
Y22465D01*
X4634D01*
Y19465D02*
Y22465D01*
X3634Y20476D02*
X4634D01*
X2736Y31654D02*
Y31850D01*
Y31654D02*
X3366D01*
Y31850D01*
X2736D02*
Y32913D01*
X3366Y31850D02*
Y32913D01*
X2736D02*
X3366D01*
X2736Y26142D02*
Y26339D01*
Y26142D02*
X3366D01*
Y26339D01*
X2736D02*
Y27402D01*
X3366Y26339D02*
Y27402D01*
X2736D02*
X3366D01*
X2736Y15118D02*
Y15315D01*
Y15118D02*
X3366D01*
Y15315D01*
X2736D02*
Y16378D01*
X3366Y15315D02*
Y16378D01*
X2736D02*
X3366D01*
X2736Y20630D02*
Y20827D01*
Y20630D02*
X3366D01*
Y20827D01*
X2736D02*
Y21890D01*
X3366Y20827D02*
Y21890D01*
X2736D02*
X3366D01*
X2461Y30807D02*
Y33169D01*
X1083Y30807D02*
Y33169D01*
X1476Y31437D02*
X2067D01*
Y32539D01*
X1476D02*
X2067D01*
X1476Y31437D02*
Y32539D01*
X1083Y30807D02*
X1378D01*
X1378Y30807D01*
X2165D02*
X2461D01*
X2461Y30807D01*
X2165Y33169D02*
X2461D01*
X2165Y33169D02*
X2165Y33169D01*
X1083Y33169D02*
X1378D01*
X1083Y33169D02*
X1083Y33169D01*
X4634Y33488D02*
X5634D01*
Y30488D02*
Y33488D01*
X4634Y30488D02*
X5634D01*
X4634D02*
Y33488D01*
Y32476D02*
X5634D01*
X2461Y25295D02*
Y27657D01*
X1083Y25295D02*
Y27657D01*
X1476Y25925D02*
X2067D01*
Y27028D01*
X1476D02*
X2067D01*
X1476Y25925D02*
Y27028D01*
X1083Y25295D02*
X1378D01*
X1378Y25295D01*
X2165D02*
X2461D01*
X2461Y25295D01*
X2165Y27657D02*
X2461D01*
X2165Y27657D02*
X2165Y27657D01*
X1083Y27657D02*
X1378D01*
X1083Y27657D02*
X1083Y27657D01*
X4634Y27976D02*
X5634D01*
Y24976D02*
Y27976D01*
X4634Y24976D02*
X5634D01*
X4634D02*
Y27976D01*
Y26965D02*
X5634D01*
X2461Y14272D02*
Y16634D01*
X1083Y14272D02*
Y16634D01*
X1476Y14902D02*
X2067D01*
Y16004D01*
X1476D02*
X2067D01*
X1476Y14902D02*
Y16004D01*
X1083Y14272D02*
X1378D01*
X1378Y14272D01*
X2165D02*
X2461D01*
X2461Y14272D01*
X2165Y16634D02*
X2461D01*
X2165Y16634D02*
X2165Y16634D01*
X1083Y16634D02*
X1378D01*
X1083Y16634D02*
X1083Y16634D01*
X4634Y16953D02*
X5634D01*
Y13953D02*
Y16953D01*
X4634Y13953D02*
X5634D01*
X4634D02*
Y16953D01*
Y15941D02*
X5634D01*
X2461Y19783D02*
Y22146D01*
X1083Y19783D02*
Y22146D01*
X1476Y20413D02*
X2067D01*
Y21516D01*
X1476D02*
X2067D01*
X1476Y20413D02*
Y21516D01*
X1083Y19783D02*
X1378D01*
X1378Y19783D01*
X2165D02*
X2461D01*
X2461Y19783D01*
X2165Y22146D02*
X2461D01*
X2165Y22146D02*
X2165Y22146D01*
X1083Y22146D02*
X1378D01*
X1083Y22146D02*
X1083Y22146D01*
X4634Y22465D02*
X5634D01*
Y19465D02*
Y22465D01*
X4634Y19465D02*
X5634D01*
X4634D02*
Y22465D01*
Y21453D02*
X5634D01*
X2657Y33051D02*
X3406D01*
X2657D02*
Y34193D01*
X3406Y33051D02*
X3445D01*
Y34193D01*
X2657Y34469D02*
X3445D01*
X2657Y34193D02*
Y34469D01*
X3445Y34193D02*
Y34469D01*
X2657Y27539D02*
X3406D01*
X2657D02*
Y28681D01*
X3406Y27539D02*
X3445D01*
Y28681D01*
X2657Y28957D02*
X3445D01*
X2657Y28681D02*
Y28957D01*
X3445Y28681D02*
Y28957D01*
X2657Y16516D02*
X3406D01*
X2657D02*
Y17657D01*
X3406Y16516D02*
X3445D01*
Y17657D01*
X2657Y17933D02*
X3445D01*
X2657Y17657D02*
Y17933D01*
X3445Y17657D02*
Y17933D01*
X2657Y22028D02*
X3406D01*
X2657D02*
Y23169D01*
X3406Y22028D02*
X3445D01*
Y23169D01*
X2657Y23445D02*
X3445D01*
X2657Y23169D02*
Y23445D01*
X3445Y23169D02*
Y23445D01*
X14508Y21240D02*
X14705D01*
Y21870D01*
X14508D02*
X14705D01*
X13445Y21240D02*
X14508D01*
X13445Y21870D02*
X14508D01*
X13445Y21240D02*
Y21870D01*
X10765Y18391D02*
X10904Y18530D01*
X10459Y18975D02*
X10904Y18530D01*
X10320Y18836D02*
X10459Y18975D01*
X10014Y17639D02*
X10765Y18391D01*
X9568Y18084D02*
X10320Y18836D01*
X9568Y18084D02*
X10014Y17639D01*
X18380Y21731D02*
X18519Y21592D01*
X17934Y21286D02*
X18380Y21731D01*
X17934Y21286D02*
X18073Y21147D01*
X18519Y21592D02*
X19270Y20840D01*
X18073Y21147D02*
X18825Y20395D01*
X19270Y20840D01*
X9308Y21706D02*
X10978Y20036D01*
X10282Y22681D02*
X11952Y21010D01*
X10031Y21539D02*
X10449Y21957D01*
X10031Y21539D02*
X10811Y20760D01*
X11228Y21177D01*
X10449Y21957D02*
X11228Y21177D01*
X10073Y22472D02*
X10282Y22681D01*
X10073Y22472D02*
X10073D01*
X9308Y21706D02*
X9516Y21915D01*
X9308Y21706D02*
Y21706D01*
X10978Y20036D02*
X11187Y20245D01*
X11187D01*
X11743Y20801D02*
X11952Y21010D01*
Y21010D01*
X26890Y19449D02*
Y20512D01*
X26260D02*
X26890D01*
X26260Y19449D02*
Y20512D01*
Y19252D02*
Y19449D01*
Y19252D02*
X26890D01*
Y19449D01*
X23484Y21280D02*
X24547D01*
X23484Y20650D02*
Y21280D01*
Y20650D02*
X24547D01*
X24744D01*
Y21280D01*
X24547D02*
X24744D01*
X27343Y25157D02*
Y26220D01*
Y25157D02*
X27972D01*
Y26220D01*
Y26417D01*
X27343D02*
X27972D01*
X27343Y26220D02*
Y26417D01*
X20395Y25466D02*
X21147Y26218D01*
X20395Y25466D02*
X20840Y25021D01*
X21592Y25773D01*
X21731Y25912D01*
X21286Y26357D02*
X21731Y25912D01*
X21147Y26218D02*
X21286Y26357D01*
X28051Y25177D02*
X28799D01*
X28051D02*
Y26319D01*
X28799Y25177D02*
X28839D01*
Y26319D01*
X28051Y26594D02*
X28839D01*
X28051Y26319D02*
Y26594D01*
X28839Y26319D02*
Y26594D01*
X19693Y26057D02*
X20222Y25528D01*
X19693Y26057D02*
X20500Y26864D01*
X20222Y25528D02*
X20250Y25500D01*
X21057Y26307D01*
X20695Y27059D02*
X21252Y26502D01*
X20500Y26864D02*
X20695Y27059D01*
X21057Y26307D02*
X21252Y26502D01*
X23307Y19823D02*
Y20571D01*
X24449D01*
X23307Y19783D02*
Y19823D01*
Y19783D02*
X24449D01*
X24724D02*
Y20571D01*
X24449D02*
X24724D01*
X24449Y19783D02*
X24724D01*
X27008Y20591D02*
X27756D01*
Y19449D02*
Y20591D01*
X26969D02*
X27008D01*
X26969Y19449D02*
Y20591D01*
Y19173D02*
X27756D01*
Y19449D01*
X26969Y19173D02*
Y19449D01*
X9941Y28583D02*
X10295Y28937D01*
Y31260D01*
X9429Y28583D02*
X9941D01*
X7972D02*
X8484D01*
X7618Y28937D02*
X7972Y28583D01*
X7618Y28937D02*
Y31260D01*
X9429D02*
X10295D01*
X7618D02*
X8484D01*
X11791Y26929D02*
Y27126D01*
Y26929D02*
X12421D01*
Y27126D01*
X11791D02*
Y28189D01*
X12421Y27126D02*
Y28189D01*
X11791D02*
X12421D01*
X11791Y25354D02*
Y25551D01*
Y25354D02*
X12421D01*
Y25551D01*
X11791D02*
Y26614D01*
X12421Y25551D02*
Y26614D01*
X11791D02*
X12421D01*
X11791Y23780D02*
Y23976D01*
Y23780D02*
X12421D01*
Y23976D01*
X11791D02*
Y25039D01*
X12421Y23976D02*
Y25039D01*
X11791D02*
X12421D01*
X11791Y22205D02*
Y22402D01*
Y22205D02*
X12421D01*
Y22402D01*
X11791D02*
Y23465D01*
X12421Y22402D02*
Y23465D01*
X11791D02*
X12421D01*
X14409Y14154D02*
X14606D01*
Y14783D01*
X14409D02*
X14606D01*
X13346Y14154D02*
X14409D01*
X13346Y14783D02*
X14409D01*
X13346Y14154D02*
Y14783D01*
X15984Y14154D02*
X16181D01*
Y14783D01*
X15984D02*
X16181D01*
X14921Y14154D02*
X15984D01*
X14921Y14783D02*
X15984D01*
X14921Y14154D02*
Y14783D01*
X17559Y14154D02*
X17756D01*
Y14783D01*
X17559D02*
X17756D01*
X16496Y14154D02*
X17559D01*
X16496Y14783D02*
X17559D01*
X16496Y14154D02*
Y14783D01*
X19134Y14154D02*
X19331D01*
Y14783D01*
X19134D02*
X19331D01*
X18071Y14154D02*
X19134D01*
X18071Y14783D02*
X19134D01*
X18071Y14154D02*
Y14783D01*
X20709Y14154D02*
X20906D01*
Y14783D01*
X20709D02*
X20906D01*
X19646Y14154D02*
X20709D01*
X19646Y14783D02*
X20709D01*
X19646Y14154D02*
Y14783D01*
X22283Y14154D02*
X22480D01*
Y14783D01*
X22283D02*
X22480D01*
X21220Y14154D02*
X22283D01*
X21220Y14783D02*
X22283D01*
X21220Y14154D02*
Y14783D01*
X25433Y14154D02*
X25630D01*
Y14783D01*
X25433D02*
X25630D01*
X24370Y14154D02*
X25433D01*
X24370Y14783D02*
X25433D01*
X24370Y14154D02*
Y14783D01*
X27008Y14154D02*
X27205D01*
Y14783D01*
X27008D02*
X27205D01*
X25945Y14154D02*
X27008D01*
X25945Y14783D02*
X27008D01*
X25945Y14154D02*
Y14783D01*
X28583Y14154D02*
X28780D01*
Y14783D01*
X28583D02*
X28780D01*
X27520Y14154D02*
X28583D01*
X27520Y14783D02*
X28583D01*
X27520Y14154D02*
Y14783D01*
X34370Y17067D02*
Y17264D01*
X33740D02*
X34370D01*
X33740Y17067D02*
Y17264D01*
X34370Y16004D02*
Y17067D01*
X33740Y16004D02*
Y17067D01*
Y16004D02*
X34370D01*
Y18642D02*
Y18839D01*
X33740D02*
X34370D01*
X33740Y18642D02*
Y18839D01*
X34370Y17579D02*
Y18642D01*
X33740Y17579D02*
Y18642D01*
Y17579D02*
X34370D01*
Y20217D02*
Y20413D01*
X33740D02*
X34370D01*
X33740Y20217D02*
Y20413D01*
X34370Y19154D02*
Y20217D01*
X33740Y19154D02*
Y20217D01*
Y19154D02*
X34370D01*
Y21791D02*
Y21988D01*
X33740D02*
X34370D01*
X33740Y21791D02*
Y21988D01*
X34370Y20728D02*
Y21791D01*
X33740Y20728D02*
Y21791D01*
Y20728D02*
X34370D01*
Y23366D02*
Y23563D01*
X33740D02*
X34370D01*
X33740Y23366D02*
Y23563D01*
X34370Y22303D02*
Y23366D01*
X33740Y22303D02*
Y23366D01*
Y22303D02*
X34370D01*
Y24941D02*
Y25138D01*
X33740D02*
X34370D01*
X33740Y24941D02*
Y25138D01*
X34370Y23878D02*
Y24941D01*
X33740Y23878D02*
Y24941D01*
Y23878D02*
X34370D01*
Y26516D02*
Y26713D01*
X33740D02*
X34370D01*
X33740Y26516D02*
Y26713D01*
X34370Y25453D02*
Y26516D01*
X33740Y25453D02*
Y26516D01*
Y25453D02*
X34370D01*
Y28091D02*
Y28287D01*
X33740D02*
X34370D01*
X33740Y28091D02*
Y28287D01*
X34370Y27028D02*
Y28091D01*
X33740Y27028D02*
Y28091D01*
Y27028D02*
X34370D01*
Y29665D02*
Y29862D01*
X33740D02*
X34370D01*
X33740Y29665D02*
Y29862D01*
X34370Y28602D02*
Y29665D01*
X33740Y28602D02*
Y29665D01*
Y28602D02*
X34370D01*
X28898Y34370D02*
X29094D01*
X28898Y33740D02*
Y34370D01*
Y33740D02*
X29094D01*
Y34370D02*
X30157D01*
X29094Y33740D02*
X30157D01*
Y34370D01*
X27323D02*
X27520D01*
X27323Y33740D02*
Y34370D01*
Y33740D02*
X27520D01*
Y34370D02*
X28583D01*
X27520Y33740D02*
X28583D01*
Y34370D01*
X25748D02*
X25945D01*
X25748Y33740D02*
Y34370D01*
Y33740D02*
X25945D01*
Y34370D02*
X27008D01*
X25945Y33740D02*
X27008D01*
Y34370D01*
X24173D02*
X24370D01*
X24173Y33740D02*
Y34370D01*
Y33740D02*
X24370D01*
Y34370D02*
X25433D01*
X24370Y33740D02*
X25433D01*
Y34370D01*
X22598D02*
X22795D01*
X22598Y33740D02*
Y34370D01*
Y33740D02*
X22795D01*
Y34370D02*
X23858D01*
X22795Y33740D02*
X23858D01*
Y34370D01*
X21024D02*
X21220D01*
X21024Y33740D02*
Y34370D01*
Y33740D02*
X21220D01*
Y34370D02*
X22283D01*
X21220Y33740D02*
X22283D01*
Y34370D01*
X19449D02*
X19646D01*
X19449Y33740D02*
Y34370D01*
Y33740D02*
X19646D01*
Y34370D02*
X20709D01*
X19646Y33740D02*
X20709D01*
Y34370D01*
X17874D02*
X18071D01*
X17874Y33740D02*
Y34370D01*
Y33740D02*
X18071D01*
Y34370D02*
X19134D01*
X18071Y33740D02*
X19134D01*
Y34370D01*
X16299D02*
X16496D01*
X16299Y33740D02*
Y34370D01*
Y33740D02*
X16496D01*
Y34370D02*
X17559D01*
X16496Y33740D02*
X17559D01*
Y34370D01*
X14724D02*
X14921D01*
X14724Y33740D02*
Y34370D01*
Y33740D02*
X14921D01*
Y34370D02*
X15984D01*
X14921Y33740D02*
X15984D01*
Y34370D01*
X13150D02*
X13346D01*
X13150Y33740D02*
Y34370D01*
Y33740D02*
X13346D01*
Y34370D02*
X14409D01*
X13346Y33740D02*
X14409D01*
Y34370D01*
X11575D02*
X11772D01*
X11575Y33740D02*
Y34370D01*
Y33740D02*
X11772D01*
Y34370D02*
X12835D01*
X11772Y33740D02*
X12835D01*
Y34370D01*
X15197Y27638D02*
X15394D01*
Y28268D01*
X15197D02*
X15394D01*
X14134Y27638D02*
X15197D01*
X14134Y28268D02*
X15197D01*
X14134Y27638D02*
Y28268D01*
X15197Y26063D02*
X15394D01*
Y26693D01*
X15197D02*
X15394D01*
X14134Y26063D02*
X15197D01*
X14134Y26693D02*
X15197D01*
X14134Y26063D02*
Y26693D01*
X15197Y24488D02*
X15394D01*
Y25118D01*
X15197D02*
X15394D01*
X14134Y24488D02*
X15197D01*
X14134Y25118D02*
X15197D01*
X14134Y24488D02*
Y25118D01*
X15197Y22913D02*
X15394D01*
Y23543D01*
X15197D02*
X15394D01*
X14134Y22913D02*
X15197D01*
X14134Y23543D02*
X15197D01*
X14134Y22913D02*
Y23543D01*
X13898Y17559D02*
Y17756D01*
X13268D02*
X13898D01*
X13268Y17559D02*
Y17756D01*
X13898Y16496D02*
Y17559D01*
X13268Y16496D02*
Y17559D01*
Y16496D02*
X13898D01*
X15472Y17559D02*
Y17756D01*
X14843D02*
X15472D01*
X14843Y17559D02*
Y17756D01*
X15472Y16496D02*
Y17559D01*
X14843Y16496D02*
Y17559D01*
Y16496D02*
X15472D01*
X17047Y17559D02*
Y17756D01*
X16417D02*
X17047D01*
X16417Y17559D02*
Y17756D01*
X17047Y16496D02*
Y17559D01*
X16417Y16496D02*
Y17559D01*
Y16496D02*
X17047D01*
X18622Y17559D02*
Y17756D01*
X17992D02*
X18622D01*
X17992Y17559D02*
Y17756D01*
X18622Y16496D02*
Y17559D01*
X17992Y16496D02*
Y17559D01*
Y16496D02*
X18622D01*
X20197Y17559D02*
Y17756D01*
X19567D02*
X20197D01*
X19567Y17559D02*
Y17756D01*
X20197Y16496D02*
Y17559D01*
X19567Y16496D02*
Y17559D01*
Y16496D02*
X20197D01*
X21772Y17559D02*
Y17756D01*
X21142D02*
X21772D01*
X21142Y17559D02*
Y17756D01*
X21772Y16496D02*
Y17559D01*
X21142Y16496D02*
Y17559D01*
Y16496D02*
X21772D01*
X24921Y17559D02*
Y17756D01*
X24291D02*
X24921D01*
X24291Y17559D02*
Y17756D01*
X24921Y16496D02*
Y17559D01*
X24291Y16496D02*
Y17559D01*
Y16496D02*
X24921D01*
X26496Y17559D02*
Y17756D01*
X25866D02*
X26496D01*
X25866Y17559D02*
Y17756D01*
X26496Y16496D02*
Y17559D01*
X25866Y16496D02*
Y17559D01*
Y16496D02*
X26496D01*
X28071Y17559D02*
Y17756D01*
X27441D02*
X28071D01*
X27441Y17559D02*
Y17756D01*
X28071Y16496D02*
Y17559D01*
X27441Y16496D02*
Y17559D01*
Y16496D02*
X28071D01*
X30768Y16555D02*
X30965D01*
X30768Y15925D02*
Y16555D01*
Y15925D02*
X30965D01*
Y16555D02*
X32028D01*
X30965Y15925D02*
X32028D01*
Y16555D01*
X30768Y18130D02*
X30965D01*
X30768Y17500D02*
Y18130D01*
Y17500D02*
X30965D01*
Y18130D02*
X32028D01*
X30965Y17500D02*
X32028D01*
Y18130D01*
X30768Y19705D02*
X30965D01*
X30768Y19075D02*
Y19705D01*
Y19075D02*
X30965D01*
Y19705D02*
X32028D01*
X30965Y19075D02*
X32028D01*
Y19705D01*
X30768Y21280D02*
X30965D01*
X30768Y20650D02*
Y21280D01*
Y20650D02*
X30965D01*
Y21280D02*
X32028D01*
X30965Y20650D02*
X32028D01*
Y21280D01*
X30768Y22854D02*
X30965D01*
X30768Y22224D02*
Y22854D01*
Y22224D02*
X30965D01*
Y22854D02*
X32028D01*
X30965Y22224D02*
X32028D01*
Y22854D01*
X30768Y24429D02*
X30965D01*
X30768Y23799D02*
Y24429D01*
Y23799D02*
X30965D01*
Y24429D02*
X32028D01*
X30965Y23799D02*
X32028D01*
Y24429D01*
X30768Y26004D02*
X30965D01*
X30768Y25374D02*
Y26004D01*
Y25374D02*
X30965D01*
Y26004D02*
X32028D01*
X30965Y25374D02*
X32028D01*
Y26004D01*
X30768Y27579D02*
X30965D01*
X30768Y26949D02*
Y27579D01*
Y26949D02*
X30965D01*
Y27579D02*
X32028D01*
X30965Y26949D02*
X32028D01*
Y27579D01*
X30768Y29154D02*
X30965D01*
X30768Y28524D02*
Y29154D01*
Y28524D02*
X30965D01*
Y29154D02*
X32028D01*
X30965Y28524D02*
X32028D01*
Y29154D01*
X29606Y30768D02*
Y30965D01*
Y30768D02*
X30236D01*
Y30965D01*
X29606D02*
Y32028D01*
X30236Y30965D02*
Y32028D01*
X29606D02*
X30236D01*
X28031Y30768D02*
Y30965D01*
Y30768D02*
X28661D01*
Y30965D01*
X28031D02*
Y32028D01*
X28661Y30965D02*
Y32028D01*
X28031D02*
X28661D01*
X26457Y30768D02*
Y30965D01*
Y30768D02*
X27087D01*
Y30965D01*
X26457D02*
Y32028D01*
X27087Y30965D02*
Y32028D01*
X26457D02*
X27087D01*
X24882Y30768D02*
Y30965D01*
Y30768D02*
X25512D01*
Y30965D01*
X24882D02*
Y32028D01*
X25512Y30965D02*
Y32028D01*
X24882D02*
X25512D01*
X23307Y30768D02*
Y30965D01*
Y30768D02*
X23937D01*
Y30965D01*
X23307D02*
Y32028D01*
X23937Y30965D02*
Y32028D01*
X23307D02*
X23937D01*
X21732Y30768D02*
Y30965D01*
Y30768D02*
X22362D01*
Y30965D01*
X21732D02*
Y32028D01*
X22362Y30965D02*
Y32028D01*
X21732D02*
X22362D01*
X20157Y30768D02*
Y30965D01*
Y30768D02*
X20787D01*
Y30965D01*
X20157D02*
Y32028D01*
X20787Y30965D02*
Y32028D01*
X20157D02*
X20787D01*
X18583Y30768D02*
Y30965D01*
Y30768D02*
X19213D01*
Y30965D01*
X18583D02*
Y32028D01*
X19213Y30965D02*
Y32028D01*
X18583D02*
X19213D01*
X17008Y30768D02*
Y30965D01*
Y30768D02*
X17638D01*
Y30965D01*
X17008D02*
Y32028D01*
X17638Y30965D02*
Y32028D01*
X17008D02*
X17638D01*
X15433Y30768D02*
Y30965D01*
Y30768D02*
X16063D01*
Y30965D01*
X15433D02*
Y32028D01*
X16063Y30965D02*
Y32028D01*
X15433D02*
X16063D01*
X13858Y30768D02*
Y30965D01*
Y30768D02*
X14488D01*
Y30965D01*
X13858D02*
Y32028D01*
X14488Y30965D02*
Y32028D01*
X13858D02*
X14488D01*
X12283Y30768D02*
Y30965D01*
Y30768D02*
X12913D01*
Y30965D01*
X12283D02*
Y32028D01*
X12913Y30965D02*
Y32028D01*
X12283D02*
X12913D01*
X14134Y27480D02*
X14331D01*
X14134Y26850D02*
Y27480D01*
Y26850D02*
X14331D01*
Y27480D02*
X15394D01*
X14331Y26850D02*
X15394D01*
Y27480D01*
X14134Y25906D02*
X14331D01*
X14134Y25276D02*
Y25906D01*
Y25276D02*
X14331D01*
Y25906D02*
X15394D01*
X14331Y25276D02*
X15394D01*
Y25906D01*
X14134Y24331D02*
X14331D01*
X14134Y23701D02*
Y24331D01*
Y23701D02*
X14331D01*
Y24331D02*
X15394D01*
X14331Y23701D02*
X15394D01*
Y24331D01*
X14134Y22756D02*
X14331D01*
X14134Y22126D02*
Y22756D01*
Y22126D02*
X14331D01*
Y22756D02*
X15394D01*
X14331Y22126D02*
X15394D01*
Y22756D01*
X14055Y16496D02*
Y16693D01*
Y16496D02*
X14685D01*
Y16693D01*
X14055D02*
Y17756D01*
X14685Y16693D02*
Y17756D01*
X14055D02*
X14685D01*
X15630Y16496D02*
Y16693D01*
Y16496D02*
X16260D01*
Y16693D01*
X15630D02*
Y17756D01*
X16260Y16693D02*
Y17756D01*
X15630D02*
X16260D01*
X17205Y16496D02*
Y16693D01*
Y16496D02*
X17835D01*
Y16693D01*
X17205D02*
Y17756D01*
X17835Y16693D02*
Y17756D01*
X17205D02*
X17835D01*
X18780Y16496D02*
Y16693D01*
Y16496D02*
X19409D01*
Y16693D01*
X18780D02*
Y17756D01*
X19409Y16693D02*
Y17756D01*
X18780D02*
X19409D01*
X20354Y16496D02*
Y16693D01*
Y16496D02*
X20984D01*
Y16693D01*
X20354D02*
Y17756D01*
X20984Y16693D02*
Y17756D01*
X20354D02*
X20984D01*
X21929Y16496D02*
Y16693D01*
Y16496D02*
X22559D01*
Y16693D01*
X21929D02*
Y17756D01*
X22559Y16693D02*
Y17756D01*
X21929D02*
X22559D01*
X25079Y16496D02*
Y16693D01*
Y16496D02*
X25709D01*
Y16693D01*
X25079D02*
Y17756D01*
X25709Y16693D02*
Y17756D01*
X25079D02*
X25709D01*
X26654Y16496D02*
Y16693D01*
Y16496D02*
X27283D01*
Y16693D01*
X26654D02*
Y17756D01*
X27283Y16693D02*
Y17756D01*
X26654D02*
X27283D01*
X28228Y16496D02*
Y16693D01*
Y16496D02*
X28858D01*
Y16693D01*
X28228D02*
Y17756D01*
X28858Y16693D02*
Y17756D01*
X28228D02*
X28858D01*
X31831Y16713D02*
X32028D01*
Y17343D01*
X31831D02*
X32028D01*
X30768Y16713D02*
X31831D01*
X30768Y17343D02*
X31831D01*
X30768Y16713D02*
Y17343D01*
X31831Y18287D02*
X32028D01*
Y18917D01*
X31831D02*
X32028D01*
X30768Y18287D02*
X31831D01*
X30768Y18917D02*
X31831D01*
X30768Y18287D02*
Y18917D01*
X31831Y19862D02*
X32028D01*
Y20492D01*
X31831D02*
X32028D01*
X30768Y19862D02*
X31831D01*
X30768Y20492D02*
X31831D01*
X30768Y19862D02*
Y20492D01*
X31831Y21437D02*
X32028D01*
Y22067D01*
X31831D02*
X32028D01*
X30768Y21437D02*
X31831D01*
X30768Y22067D02*
X31831D01*
X30768Y21437D02*
Y22067D01*
X31831Y23012D02*
X32028D01*
Y23642D01*
X31831D02*
X32028D01*
X30768Y23012D02*
X31831D01*
X30768Y23642D02*
X31831D01*
X30768Y23012D02*
Y23642D01*
X31831Y24587D02*
X32028D01*
Y25217D01*
X31831D02*
X32028D01*
X30768Y24587D02*
X31831D01*
X30768Y25217D02*
X31831D01*
X30768Y24587D02*
Y25217D01*
X31831Y26161D02*
X32028D01*
Y26791D01*
X31831D02*
X32028D01*
X30768Y26161D02*
X31831D01*
X30768Y26791D02*
X31831D01*
X30768Y26161D02*
Y26791D01*
X31831Y27736D02*
X32028D01*
Y28366D01*
X31831D02*
X32028D01*
X30768Y27736D02*
X31831D01*
X30768Y28366D02*
X31831D01*
X30768Y27736D02*
Y28366D01*
X31831Y29311D02*
X32028D01*
Y29941D01*
X31831D02*
X32028D01*
X30768Y29311D02*
X31831D01*
X30768Y29941D02*
X31831D01*
X30768Y29311D02*
Y29941D01*
X29449Y31831D02*
Y32028D01*
X28819D02*
X29449D01*
X28819Y31831D02*
Y32028D01*
X29449Y30768D02*
Y31831D01*
X28819Y30768D02*
Y31831D01*
Y30768D02*
X29449D01*
X27874Y31831D02*
Y32028D01*
X27244D02*
X27874D01*
X27244Y31831D02*
Y32028D01*
X27874Y30768D02*
Y31831D01*
X27244Y30768D02*
Y31831D01*
Y30768D02*
X27874D01*
X26299Y31831D02*
Y32028D01*
X25669D02*
X26299D01*
X25669Y31831D02*
Y32028D01*
X26299Y30768D02*
Y31831D01*
X25669Y30768D02*
Y31831D01*
Y30768D02*
X26299D01*
X24724Y31831D02*
Y32028D01*
X24094D02*
X24724D01*
X24094Y31831D02*
Y32028D01*
X24724Y30768D02*
Y31831D01*
X24094Y30768D02*
Y31831D01*
Y30768D02*
X24724D01*
X23150Y31831D02*
Y32028D01*
X22520D02*
X23150D01*
X22520Y31831D02*
Y32028D01*
X23150Y30768D02*
Y31831D01*
X22520Y30768D02*
Y31831D01*
Y30768D02*
X23150D01*
X21575Y31831D02*
Y32028D01*
X20945D02*
X21575D01*
X20945Y31831D02*
Y32028D01*
X21575Y30768D02*
Y31831D01*
X20945Y30768D02*
Y31831D01*
Y30768D02*
X21575D01*
X20000Y31831D02*
Y32028D01*
X19370D02*
X20000D01*
X19370Y31831D02*
Y32028D01*
X20000Y30768D02*
Y31831D01*
X19370Y30768D02*
Y31831D01*
Y30768D02*
X20000D01*
X18425Y31831D02*
Y32028D01*
X17795D02*
X18425D01*
X17795Y31831D02*
Y32028D01*
X18425Y30768D02*
Y31831D01*
X17795Y30768D02*
Y31831D01*
Y30768D02*
X18425D01*
X16850Y31831D02*
Y32028D01*
X16220D02*
X16850D01*
X16220Y31831D02*
Y32028D01*
X16850Y30768D02*
Y31831D01*
X16220Y30768D02*
Y31831D01*
Y30768D02*
X16850D01*
X15276Y31831D02*
Y32028D01*
X14646D02*
X15276D01*
X14646Y31831D02*
Y32028D01*
X15276Y30768D02*
Y31831D01*
X14646Y30768D02*
Y31831D01*
Y30768D02*
X15276D01*
X13701Y31831D02*
Y32028D01*
X13071D02*
X13701D01*
X13071Y31831D02*
Y32028D01*
X13701Y30768D02*
Y31831D01*
X13071Y30768D02*
Y31831D01*
Y30768D02*
X13701D01*
X12126Y31831D02*
Y32028D01*
X11496D02*
X12126D01*
X11496Y31831D02*
Y32028D01*
X12126Y30768D02*
Y31831D01*
X11496Y30768D02*
Y31831D01*
Y30768D02*
X12126D01*
X13012Y26969D02*
X13406D01*
X13012D02*
Y27283D01*
Y28150D02*
X13406D01*
X13012Y27835D02*
Y28150D01*
Y25394D02*
X13406D01*
X13012D02*
Y25709D01*
Y26575D02*
X13406D01*
X13012Y26260D02*
Y26575D01*
Y23819D02*
X13406D01*
X13012D02*
Y24134D01*
Y25000D02*
X13406D01*
X13012Y24685D02*
Y25000D01*
Y22244D02*
X13406D01*
X13012D02*
Y22559D01*
Y23425D02*
X13406D01*
X13012Y23110D02*
Y23425D01*
X14567Y15374D02*
Y15768D01*
X14252Y15374D02*
X14567D01*
X13386D02*
Y15768D01*
Y15374D02*
X13701D01*
X16142D02*
Y15768D01*
X15827Y15374D02*
X16142D01*
X14961D02*
Y15768D01*
Y15374D02*
X15276D01*
X17717D02*
Y15768D01*
X17402Y15374D02*
X17717D01*
X16535D02*
Y15768D01*
Y15374D02*
X16850D01*
X19291D02*
Y15768D01*
X18976Y15374D02*
X19291D01*
X18110D02*
Y15768D01*
Y15374D02*
X18425D01*
X20866D02*
Y15768D01*
X20551Y15374D02*
X20866D01*
X19685D02*
Y15768D01*
Y15374D02*
X20000D01*
X22441D02*
Y15768D01*
X22126Y15374D02*
X22441D01*
X21260D02*
Y15768D01*
Y15374D02*
X21575D01*
X25591D02*
Y15768D01*
X25276Y15374D02*
X25591D01*
X24409D02*
Y15768D01*
Y15374D02*
X24724D01*
X27165D02*
Y15768D01*
X26850Y15374D02*
X27165D01*
X25984D02*
Y15768D01*
Y15374D02*
X26299D01*
X28740D02*
Y15768D01*
X28425Y15374D02*
X28740D01*
X27559D02*
Y15768D01*
Y15374D02*
X27874D01*
X32756Y17224D02*
X33150D01*
Y16909D02*
Y17224D01*
X32756Y16043D02*
X33150D01*
Y16358D01*
X32756Y18799D02*
X33150D01*
Y18484D02*
Y18799D01*
X32756Y17618D02*
X33150D01*
Y17933D01*
X32756Y20374D02*
X33150D01*
Y20059D02*
Y20374D01*
X32756Y19193D02*
X33150D01*
Y19508D01*
X32756Y21949D02*
X33150D01*
Y21634D02*
Y21949D01*
X32756Y20768D02*
X33150D01*
Y21083D01*
X32756Y23524D02*
X33150D01*
Y23209D02*
Y23524D01*
X32756Y22343D02*
X33150D01*
Y22657D01*
X32756Y25098D02*
X33150D01*
Y24783D02*
Y25098D01*
X32756Y23917D02*
X33150D01*
Y24232D01*
X32756Y26673D02*
X33150D01*
Y26358D02*
Y26673D01*
X32756Y25492D02*
X33150D01*
Y25807D01*
X32756Y28248D02*
X33150D01*
Y27933D02*
Y28248D01*
X32756Y27067D02*
X33150D01*
Y27382D01*
X32756Y29823D02*
X33150D01*
Y29508D02*
Y29823D01*
X32756Y28642D02*
X33150D01*
Y28957D01*
X28937Y32756D02*
Y33150D01*
X29252D01*
X30118Y32756D02*
Y33150D01*
X29803D02*
X30118D01*
X27362Y32756D02*
Y33150D01*
X27677D01*
X28543Y32756D02*
Y33150D01*
X28228D02*
X28543D01*
X25787Y32756D02*
Y33150D01*
X26102D01*
X26969Y32756D02*
Y33150D01*
X26654D02*
X26969D01*
X24213Y32756D02*
Y33150D01*
X24528D01*
X25394Y32756D02*
Y33150D01*
X25079D02*
X25394D01*
X22638Y32756D02*
Y33150D01*
X22953D01*
X23819Y32756D02*
Y33150D01*
X23504D02*
X23819D01*
X21063Y32756D02*
Y33150D01*
X21378D01*
X22244Y32756D02*
Y33150D01*
X21929D02*
X22244D01*
X19488Y32756D02*
Y33150D01*
X19803D01*
X20669Y32756D02*
Y33150D01*
X20354D02*
X20669D01*
X17913Y32756D02*
Y33150D01*
X18228D01*
X19094Y32756D02*
Y33150D01*
X18780D02*
X19094D01*
X16339Y32756D02*
Y33150D01*
X16654D01*
X17520Y32756D02*
Y33150D01*
X17205D02*
X17520D01*
X14764Y32756D02*
Y33150D01*
X15079D01*
X15945Y32756D02*
Y33150D01*
X15630D02*
X15945D01*
X13189Y32756D02*
Y33150D01*
X13504D01*
X14370Y32756D02*
Y33150D01*
X14055D02*
X14370D01*
X11614Y32756D02*
Y33150D01*
X11929D01*
X12795Y32756D02*
Y33150D01*
X12480D02*
X12795D01*
D13*
X24035Y14067D02*
X24094D01*
X23917Y14067D02*
X24035D01*
X22775D02*
X23917D01*
X22775Y13492D02*
X23917D01*
X24035D01*
X24035Y13492D02*
X24094D01*
X15571Y21267D02*
X15630D01*
X15630Y21267D02*
X15749D01*
X16890D01*
X15749Y21843D02*
X16890D01*
X15630D02*
X15749D01*
X15571Y21843D02*
X15630D01*
X10951Y18615D02*
X10993Y18657D01*
X10993Y18657D02*
X11076Y18740D01*
X11884Y19548D01*
X10669Y19147D02*
X11477Y19955D01*
X10586Y19064D02*
X10669Y19147D01*
X10544Y19022D02*
X10586Y19064D01*
X24843Y19547D02*
X25000D01*
X24843D02*
Y21594D01*
X26142Y19547D02*
Y21594D01*
X24843Y20728D02*
X26142D01*
X25984Y19547D02*
X26142D01*
X11705Y26890D02*
Y26949D01*
X11705Y26949D02*
Y27067D01*
Y28209D01*
X11130Y27067D02*
Y28209D01*
Y26949D02*
Y27067D01*
X11130Y26890D02*
Y26949D01*
X11705Y25315D02*
Y25375D01*
X11705Y25375D02*
Y25493D01*
Y26634D01*
X11130Y25493D02*
Y26634D01*
Y25375D02*
Y25493D01*
X11130Y25315D02*
Y25375D01*
X11705Y23741D02*
Y23800D01*
X11705Y23800D02*
Y23918D01*
Y25060D01*
X11130Y23918D02*
Y25060D01*
Y23800D02*
Y23918D01*
X11130Y23741D02*
Y23800D01*
X11705Y22166D02*
Y22225D01*
X11705Y22225D02*
Y22343D01*
Y23485D01*
X11130Y22343D02*
Y23485D01*
Y22225D02*
Y22343D01*
X11130Y22166D02*
Y22225D01*
X14586Y14067D02*
X14645D01*
X14468Y14067D02*
X14586D01*
X13326D02*
X14468D01*
X13326Y13492D02*
X14468D01*
X14586D01*
X14586Y13492D02*
X14645D01*
X16161Y14067D02*
X16220D01*
X16043Y14067D02*
X16161D01*
X14901D02*
X16043D01*
X14901Y13492D02*
X16043D01*
X16161D01*
X16161Y13492D02*
X16220D01*
X17736Y14067D02*
X17795D01*
X17618Y14067D02*
X17736D01*
X16476D02*
X17618D01*
X16476Y13492D02*
X17618D01*
X17736D01*
X17736Y13492D02*
X17795D01*
X19310Y14067D02*
X19370D01*
X19192Y14067D02*
X19310D01*
X18051D02*
X19192D01*
X18051Y13492D02*
X19192D01*
X19310D01*
X19310Y13492D02*
X19370D01*
X20885Y14067D02*
X20944D01*
X20767Y14067D02*
X20885D01*
X19625D02*
X20767D01*
X19625Y13492D02*
X20767D01*
X20885D01*
X20885Y13492D02*
X20944D01*
X22460Y14067D02*
X22519D01*
X22342Y14067D02*
X22460D01*
X21200D02*
X22342D01*
X21200Y13492D02*
X22342D01*
X22460D01*
X22460Y13492D02*
X22519D01*
X25610Y14067D02*
X25669D01*
X25492Y14067D02*
X25610D01*
X24350D02*
X25492D01*
X24350Y13492D02*
X25492D01*
X25610D01*
X25610Y13492D02*
X25669D01*
X27185Y14067D02*
X27244D01*
X27066Y14067D02*
X27185D01*
X25925D02*
X27066D01*
X25925Y13492D02*
X27066D01*
X27185D01*
X27185Y13492D02*
X27244D01*
X28759Y14067D02*
X28818D01*
X28641Y14067D02*
X28759D01*
X27499D02*
X28641D01*
X27499Y13492D02*
X28641D01*
X28759D01*
X28759Y13492D02*
X28818D01*
X34456Y17244D02*
Y17303D01*
X34456Y17125D02*
Y17244D01*
Y15984D02*
Y17125D01*
X35032Y15984D02*
Y17125D01*
Y17244D01*
X35032Y17244D02*
Y17303D01*
X34456Y18818D02*
Y18877D01*
X34456Y18700D02*
Y18818D01*
Y17559D02*
Y18700D01*
X35032Y17559D02*
Y18700D01*
Y18818D01*
X35032Y18818D02*
Y18877D01*
X34456Y20393D02*
Y20452D01*
X34456Y20275D02*
Y20393D01*
Y19133D02*
Y20275D01*
X35032Y19133D02*
Y20275D01*
Y20393D01*
X35032Y20393D02*
Y20452D01*
X34456Y21968D02*
Y22027D01*
X34456Y21850D02*
Y21968D01*
Y20708D02*
Y21850D01*
X35032Y20708D02*
Y21850D01*
Y21968D01*
X35032Y21968D02*
Y22027D01*
X34456Y23543D02*
Y23602D01*
X34456Y23425D02*
Y23543D01*
Y22283D02*
Y23425D01*
X35032Y22283D02*
Y23425D01*
Y23543D01*
X35032Y23543D02*
Y23602D01*
X34456Y25118D02*
Y25177D01*
X34456Y24999D02*
Y25118D01*
Y23858D02*
Y24999D01*
X35032Y23858D02*
Y24999D01*
Y25118D01*
X35032Y25118D02*
Y25177D01*
X34456Y26692D02*
Y26751D01*
X34456Y26574D02*
Y26692D01*
Y25433D02*
Y26574D01*
X35032Y25433D02*
Y26574D01*
Y26692D01*
X35032Y26692D02*
Y26751D01*
X34456Y28267D02*
Y28326D01*
X34456Y28149D02*
Y28267D01*
Y27007D02*
Y28149D01*
X35032Y27007D02*
Y28149D01*
Y28267D01*
X35032Y28267D02*
Y28326D01*
X34456Y29842D02*
Y29901D01*
X34456Y29724D02*
Y29842D01*
Y28582D02*
Y29724D01*
X35032Y28582D02*
Y29724D01*
Y29842D01*
X35032Y29842D02*
Y29901D01*
X28859Y34456D02*
X28918D01*
X28918Y34456D02*
X29036D01*
X30178D01*
X29036Y35032D02*
X30178D01*
X28918D02*
X29036D01*
X28859Y35032D02*
X28918D01*
X27284Y34456D02*
X27343D01*
X27343Y34456D02*
X27461D01*
X28603D01*
X27461Y35032D02*
X28603D01*
X27343D02*
X27461D01*
X27284Y35032D02*
X27343D01*
X25709Y34456D02*
X25768D01*
X25768Y34456D02*
X25886D01*
X27028D01*
X25886Y35032D02*
X27028D01*
X25768D02*
X25886D01*
X25709Y35032D02*
X25768D01*
X24134Y34456D02*
X24193D01*
X24193Y34456D02*
X24312D01*
X25453D01*
X24312Y35032D02*
X25453D01*
X24193D02*
X24312D01*
X24134Y35032D02*
X24193D01*
X22560Y34456D02*
X22619D01*
X22619Y34456D02*
X22737D01*
X23878D01*
X22737Y35032D02*
X23878D01*
X22619D02*
X22737D01*
X22560Y35032D02*
X22619D01*
X20985Y34456D02*
X21044D01*
X21044Y34456D02*
X21162D01*
X22304D01*
X21162Y35032D02*
X22304D01*
X21044D02*
X21162D01*
X20985Y35032D02*
X21044D01*
X19410Y34456D02*
X19469D01*
X19469Y34456D02*
X19587D01*
X20729D01*
X19587Y35032D02*
X20729D01*
X19469D02*
X19587D01*
X19410Y35032D02*
X19469D01*
X17835Y34456D02*
X17894D01*
X17894Y34456D02*
X18012D01*
X19154D01*
X18012Y35032D02*
X19154D01*
X17894D02*
X18012D01*
X17835Y35032D02*
X17894D01*
X16260Y34456D02*
X16319D01*
X16319Y34456D02*
X16438D01*
X17579D01*
X16438Y35032D02*
X17579D01*
X16319D02*
X16438D01*
X16260Y35032D02*
X16319D01*
X14686Y34456D02*
X14745D01*
X14745Y34456D02*
X14863D01*
X16004D01*
X14863Y35032D02*
X16004D01*
X14745D02*
X14863D01*
X14686Y35032D02*
X14745D01*
X13111Y34456D02*
X13170D01*
X13170Y34456D02*
X13288D01*
X14430D01*
X13288Y35032D02*
X14430D01*
X13170D02*
X13288D01*
X13111Y35032D02*
X13170D01*
X11536Y34456D02*
X11595D01*
X11595Y34456D02*
X11713D01*
X12855D01*
X11713Y35032D02*
X12855D01*
X11595D02*
X11713D01*
X11536Y35032D02*
X11595D01*
D14*
X12061Y35236D02*
Y35736D01*
X11811Y35486D01*
X12144D01*
X12311Y35653D02*
X12394Y35736D01*
X12561D01*
X12644Y35653D01*
Y35569D01*
X12561Y35486D01*
X12644Y35403D01*
Y35320D01*
X12561Y35236D01*
X12394D01*
X12311Y35320D01*
Y35403D01*
X12394Y35486D01*
X12311Y35569D01*
Y35653D01*
X12394Y35486D02*
X12561D01*
X13636Y35236D02*
Y35736D01*
X13386Y35486D01*
X13719D01*
X13886Y35736D02*
X14219D01*
Y35653D01*
X13886Y35320D01*
Y35236D01*
X15211D02*
Y35736D01*
X14961Y35486D01*
X15294D01*
X15794Y35736D02*
X15627Y35653D01*
X15460Y35486D01*
Y35320D01*
X15544Y35236D01*
X15710D01*
X15794Y35320D01*
Y35403D01*
X15710Y35486D01*
X15460D01*
X16785Y35236D02*
Y35736D01*
X16535Y35486D01*
X16869D01*
X17369Y35736D02*
X17035D01*
Y35486D01*
X17202Y35569D01*
X17285D01*
X17369Y35486D01*
Y35320D01*
X17285Y35236D01*
X17119D01*
X17035Y35320D01*
X18360Y35236D02*
Y35736D01*
X18110Y35486D01*
X18443D01*
X18860Y35236D02*
Y35736D01*
X18610Y35486D01*
X18943D01*
X19935Y35236D02*
Y35736D01*
X19685Y35486D01*
X20018D01*
X20185Y35653D02*
X20268Y35736D01*
X20435D01*
X20518Y35653D01*
Y35569D01*
X20435Y35486D01*
X20351D01*
X20435D01*
X20518Y35403D01*
Y35320D01*
X20435Y35236D01*
X20268D01*
X20185Y35320D01*
X21510Y35236D02*
Y35736D01*
X21260Y35486D01*
X21593D01*
X22093Y35236D02*
X21760D01*
X22093Y35569D01*
Y35653D01*
X22010Y35736D01*
X21843D01*
X21760Y35653D01*
X23085Y35236D02*
Y35736D01*
X22835Y35486D01*
X23168D01*
X23334Y35236D02*
X23501D01*
X23418D01*
Y35736D01*
X23334Y35653D01*
X24659Y35236D02*
Y35736D01*
X24409Y35486D01*
X24743D01*
X24909Y35653D02*
X24993Y35736D01*
X25159D01*
X25243Y35653D01*
Y35320D01*
X25159Y35236D01*
X24993D01*
X24909Y35320D01*
Y35653D01*
X25984D02*
X26068Y35736D01*
X26234D01*
X26317Y35653D01*
Y35569D01*
X26234Y35486D01*
X26151D01*
X26234D01*
X26317Y35403D01*
Y35320D01*
X26234Y35236D01*
X26068D01*
X25984Y35320D01*
X26484D02*
X26567Y35236D01*
X26734D01*
X26817Y35320D01*
Y35653D01*
X26734Y35736D01*
X26567D01*
X26484Y35653D01*
Y35569D01*
X26567Y35486D01*
X26817D01*
X27559Y35653D02*
X27642Y35736D01*
X27809D01*
X27892Y35653D01*
Y35569D01*
X27809Y35486D01*
X27726D01*
X27809D01*
X27892Y35403D01*
Y35320D01*
X27809Y35236D01*
X27642D01*
X27559Y35320D01*
X28059Y35653D02*
X28142Y35736D01*
X28309D01*
X28392Y35653D01*
Y35569D01*
X28309Y35486D01*
X28392Y35403D01*
Y35320D01*
X28309Y35236D01*
X28142D01*
X28059Y35320D01*
Y35403D01*
X28142Y35486D01*
X28059Y35569D01*
Y35653D01*
X28142Y35486D02*
X28309D01*
X29134Y35653D02*
X29217Y35736D01*
X29384D01*
X29467Y35653D01*
Y35569D01*
X29384Y35486D01*
X29300D01*
X29384D01*
X29467Y35403D01*
Y35320D01*
X29384Y35236D01*
X29217D01*
X29134Y35320D01*
X29634Y35736D02*
X29967D01*
Y35653D01*
X29634Y35320D01*
Y35236D01*
X35410Y28740D02*
X35327Y28823D01*
Y28990D01*
X35410Y29073D01*
X35494D01*
X35577Y28990D01*
Y28907D01*
Y28990D01*
X35660Y29073D01*
X35743D01*
X35827Y28990D01*
Y28823D01*
X35743Y28740D01*
X35327Y29573D02*
X35410Y29407D01*
X35577Y29240D01*
X35743D01*
X35827Y29323D01*
Y29490D01*
X35743Y29573D01*
X35660D01*
X35577Y29490D01*
Y29240D01*
X35410Y27165D02*
X35327Y27249D01*
Y27415D01*
X35410Y27499D01*
X35494D01*
X35577Y27415D01*
Y27332D01*
Y27415D01*
X35660Y27499D01*
X35743D01*
X35827Y27415D01*
Y27249D01*
X35743Y27165D01*
X35327Y27998D02*
Y27665D01*
X35577D01*
X35494Y27832D01*
Y27915D01*
X35577Y27998D01*
X35743D01*
X35827Y27915D01*
Y27748D01*
X35743Y27665D01*
X35410Y25591D02*
X35327Y25674D01*
Y25840D01*
X35410Y25924D01*
X35494D01*
X35577Y25840D01*
Y25757D01*
Y25840D01*
X35660Y25924D01*
X35743D01*
X35827Y25840D01*
Y25674D01*
X35743Y25591D01*
X35827Y26340D02*
X35327D01*
X35577Y26090D01*
Y26424D01*
X35410Y24016D02*
X35327Y24099D01*
Y24266D01*
X35410Y24349D01*
X35494D01*
X35577Y24266D01*
Y24182D01*
Y24266D01*
X35660Y24349D01*
X35743D01*
X35827Y24266D01*
Y24099D01*
X35743Y24016D01*
X35827Y24849D02*
Y24516D01*
X35494Y24849D01*
X35410D01*
X35327Y24766D01*
Y24599D01*
X35410Y24516D01*
Y22638D02*
X35327Y22721D01*
Y22888D01*
X35410Y22971D01*
X35494D01*
X35577Y22888D01*
Y22804D01*
Y22888D01*
X35660Y22971D01*
X35743D01*
X35827Y22888D01*
Y22721D01*
X35743Y22638D01*
X35827Y23138D02*
Y23304D01*
Y23221D01*
X35327D01*
X35410Y23138D01*
X35827Y21199D02*
Y20866D01*
X35494Y21199D01*
X35410D01*
X35327Y21116D01*
Y20949D01*
X35410Y20866D01*
Y21366D02*
X35327Y21449D01*
Y21616D01*
X35410Y21699D01*
X35494D01*
X35577Y21616D01*
X35660Y21699D01*
X35743D01*
X35827Y21616D01*
Y21449D01*
X35743Y21366D01*
X35660D01*
X35577Y21449D01*
X35494Y21366D01*
X35410D01*
X35577Y21449D02*
Y21616D01*
X35827Y19625D02*
Y19291D01*
X35494Y19625D01*
X35410D01*
X35327Y19541D01*
Y19375D01*
X35410Y19291D01*
X35327Y19791D02*
Y20124D01*
X35410D01*
X35743Y19791D01*
X35827D01*
Y18050D02*
Y17717D01*
X35494Y18050D01*
X35410D01*
X35327Y17966D01*
Y17800D01*
X35410Y17717D01*
X35327Y18550D02*
X35410Y18383D01*
X35577Y18216D01*
X35743D01*
X35827Y18300D01*
Y18466D01*
X35743Y18550D01*
X35660D01*
X35577Y18466D01*
Y18216D01*
X35827Y16672D02*
Y16339D01*
X35494Y16672D01*
X35410D01*
X35327Y16588D01*
Y16422D01*
X35410Y16339D01*
X35327Y17172D02*
Y16838D01*
X35577D01*
X35494Y17005D01*
Y17088D01*
X35577Y17172D01*
X35743D01*
X35827Y17088D01*
Y16922D01*
X35743Y16838D01*
X21457Y12598D02*
X21623D01*
X21540D01*
Y13098D01*
X21457Y13015D01*
X21873D02*
X21957Y13098D01*
X22123D01*
X22206Y13015D01*
Y12932D01*
X22123Y12848D01*
X22206Y12765D01*
Y12682D01*
X22123Y12598D01*
X21957D01*
X21873Y12682D01*
Y12765D01*
X21957Y12848D01*
X21873Y12932D01*
Y13015D01*
X21957Y12848D02*
X22123D01*
X23031Y12598D02*
X23198D01*
X23115D01*
Y13098D01*
X23031Y13015D01*
X23448Y12682D02*
X23531Y12598D01*
X23698D01*
X23781Y12682D01*
Y13015D01*
X23698Y13098D01*
X23531D01*
X23448Y13015D01*
Y12932D01*
X23531Y12848D01*
X23781D01*
X24940Y12598D02*
X24606D01*
X24940Y12932D01*
Y13015D01*
X24856Y13098D01*
X24690D01*
X24606Y13015D01*
X25106D02*
X25189Y13098D01*
X25356D01*
X25439Y13015D01*
Y12682D01*
X25356Y12598D01*
X25189D01*
X25106Y12682D01*
Y13015D01*
X26514Y12598D02*
X26181D01*
X26514Y12932D01*
Y13015D01*
X26431Y13098D01*
X26264D01*
X26181Y13015D01*
X26681Y12598D02*
X26848D01*
X26764D01*
Y13098D01*
X26681Y13015D01*
X28089Y12598D02*
X27756D01*
X28089Y12932D01*
Y13015D01*
X28006Y13098D01*
X27839D01*
X27756Y13015D01*
X28256D02*
X28339Y13098D01*
X28506D01*
X28589Y13015D01*
Y12932D01*
X28506Y12848D01*
X28422D01*
X28506D01*
X28589Y12765D01*
Y12682D01*
X28506Y12598D01*
X28339D01*
X28256Y12682D01*
X19882Y12598D02*
X20048D01*
X19965D01*
Y13098D01*
X19882Y13015D01*
X20298D02*
X20382Y13098D01*
X20548D01*
X20632Y13015D01*
Y12932D01*
X20548Y12848D01*
X20465D01*
X20548D01*
X20632Y12765D01*
Y12682D01*
X20548Y12598D01*
X20382D01*
X20298Y12682D01*
X18307Y12598D02*
X18474D01*
X18390D01*
Y13098D01*
X18307Y13015D01*
X19057Y12598D02*
X18724D01*
X19057Y12932D01*
Y13015D01*
X18974Y13098D01*
X18807D01*
X18724Y13015D01*
X16732Y12598D02*
X16899D01*
X16816D01*
Y13098D01*
X16732Y13015D01*
X17149Y12598D02*
X17315D01*
X17232D01*
Y13098D01*
X17149Y13015D01*
X15157Y12598D02*
X15324D01*
X15241D01*
Y13098D01*
X15157Y13015D01*
X15574D02*
X15657Y13098D01*
X15824D01*
X15907Y13015D01*
Y12682D01*
X15824Y12598D01*
X15657D01*
X15574Y12682D01*
Y13015D01*
X13780Y12682D02*
X13863Y12598D01*
X14029D01*
X14113Y12682D01*
Y13015D01*
X14029Y13098D01*
X13863D01*
X13780Y13015D01*
Y12932D01*
X13863Y12848D01*
X14113D01*
X10766Y23334D02*
X10600Y23251D01*
X10433Y23085D01*
Y22918D01*
X10516Y22835D01*
X10683D01*
X10766Y22918D01*
Y23001D01*
X10683Y23085D01*
X10433D01*
X10683Y24213D02*
Y24712D01*
X10433Y24463D01*
X10766D01*
X10433Y26007D02*
X10516Y26090D01*
X10683D01*
X10766Y26007D01*
Y25924D01*
X10683Y25840D01*
X10600D01*
X10683D01*
X10766Y25757D01*
Y25674D01*
X10683Y25591D01*
X10516D01*
X10433Y25674D01*
X10766Y27165D02*
X10433D01*
X10766Y27499D01*
Y27582D01*
X10683Y27665D01*
X10516D01*
X10433Y27582D01*
D15*
X4409Y30083D02*
Y30249D01*
Y30166D01*
X3910D01*
X3993Y30083D01*
X4409Y24571D02*
Y24737D01*
Y24654D01*
X3910D01*
X3993Y24571D01*
X4409Y13547D02*
Y13714D01*
Y13631D01*
X3910D01*
X3993Y13547D01*
X4409Y19059D02*
Y19226D01*
Y19142D01*
X3910D01*
X3993Y19059D01*
X4858Y33894D02*
Y33727D01*
Y33810D01*
X5358D01*
X5275Y33894D01*
X4858Y28382D02*
Y28215D01*
Y28299D01*
X5358D01*
X5275Y28382D01*
X4858Y17358D02*
Y17192D01*
Y17275D01*
X5358D01*
X5275Y17358D01*
X4858Y22870D02*
Y22703D01*
Y22787D01*
X5358D01*
X5275Y22870D01*
D16*
X22790Y14018D02*
D03*
Y13541D02*
D03*
X16876Y21317D02*
D03*
Y21794D02*
D03*
X13341Y14018D02*
D03*
Y13541D02*
D03*
X14916Y14018D02*
D03*
Y13541D02*
D03*
X16490Y14018D02*
D03*
Y13541D02*
D03*
X18065Y14018D02*
D03*
Y13541D02*
D03*
X19640Y14018D02*
D03*
Y13541D02*
D03*
X21215Y14018D02*
D03*
Y13541D02*
D03*
X24364Y14018D02*
D03*
Y13541D02*
D03*
X25939Y14018D02*
D03*
Y13541D02*
D03*
X27514Y14018D02*
D03*
Y13541D02*
D03*
X30163Y34506D02*
D03*
Y34983D02*
D03*
X28588Y34506D02*
D03*
Y34983D02*
D03*
X27013Y34506D02*
D03*
Y34983D02*
D03*
X25439Y34506D02*
D03*
Y34983D02*
D03*
X23864Y34506D02*
D03*
Y34983D02*
D03*
X22289Y34506D02*
D03*
Y34983D02*
D03*
X20714Y34506D02*
D03*
Y34983D02*
D03*
X19139Y34506D02*
D03*
Y34983D02*
D03*
X17565Y34506D02*
D03*
Y34983D02*
D03*
X15990Y34506D02*
D03*
Y34983D02*
D03*
X14415Y34506D02*
D03*
Y34983D02*
D03*
X12840Y34506D02*
D03*
Y34983D02*
D03*
D17*
X11839Y19572D02*
D03*
X11501Y19909D02*
D03*
D18*
X24949Y21442D02*
D03*
X26036D02*
D03*
D19*
X11656Y28195D02*
D03*
X11179D02*
D03*
X11656Y26620D02*
D03*
X11179D02*
D03*
X11656Y25045D02*
D03*
X11179D02*
D03*
X11656Y23470D02*
D03*
X11179D02*
D03*
X34506Y15998D02*
D03*
X34983D02*
D03*
X34506Y17573D02*
D03*
X34983D02*
D03*
X34506Y19148D02*
D03*
X34983D02*
D03*
X34506Y20723D02*
D03*
X34983D02*
D03*
X34506Y22298D02*
D03*
X34983D02*
D03*
X34506Y23872D02*
D03*
X34983D02*
D03*
X34506Y25447D02*
D03*
X34983D02*
D03*
X34506Y27022D02*
D03*
X34983D02*
D03*
X34506Y28597D02*
D03*
X34983D02*
D03*
M02*
