G04*
G04 #@! TF.GenerationSoftware,Altium Limited,Altium Designer,19.1.8 (144)*
G04*
G04 Layer_Color=16711935*
%FSLAX24Y24*%
%MOIN*%
G70*
G01*
G75*
%ADD11C,0.0100*%
%ADD46R,0.0651X0.0533*%
%ADD47R,0.0474X0.0434*%
%ADD60R,0.0474X0.0395*%
%ADD62C,0.0710*%
G04:AMPARAMS|DCode=63|XSize=67.1mil|YSize=86.7mil|CornerRadius=33.5mil|HoleSize=0mil|Usage=FLASHONLY|Rotation=0.000|XOffset=0mil|YOffset=0mil|HoleType=Round|Shape=RoundedRectangle|*
%AMROUNDEDRECTD63*
21,1,0.0671,0.0197,0,0,0.0*
21,1,0.0000,0.0867,0,0,0.0*
1,1,0.0671,0.0000,-0.0098*
1,1,0.0671,0.0000,-0.0098*
1,1,0.0671,0.0000,0.0098*
1,1,0.0671,0.0000,0.0098*
%
%ADD63ROUNDEDRECTD63*%
G04:AMPARAMS|DCode=64|XSize=67.1mil|YSize=86.7mil|CornerRadius=0mil|HoleSize=0mil|Usage=FLASHONLY|Rotation=180.000|XOffset=0mil|YOffset=0mil|HoleType=Round|Shape=Octagon|*
%AMOCTAGOND64*
4,1,8,0.0168,-0.0434,-0.0168,-0.0434,-0.0335,-0.0266,-0.0335,0.0266,-0.0168,0.0434,0.0168,0.0434,0.0335,0.0266,0.0335,-0.0266,0.0168,-0.0434,0.0*
%
%ADD64OCTAGOND64*%

%ADD65O,0.0671X0.0867*%
%ADD66R,0.0671X0.0671*%
%ADD67C,0.0430*%
%ADD85R,0.0513X0.0316*%
%ADD86C,0.0552*%
D11*
X0Y36220D02*
X36220D01*
X-0Y12008D02*
X0Y36220D01*
X36220Y0D02*
X36220Y36220D01*
X-0Y12008D02*
X6705Y12008D01*
X18713Y-0D02*
X36220Y0D01*
X6705Y12008D02*
X18713Y-0D01*
D46*
X16634Y28189D02*
D03*
Y28898D02*
D03*
X20079Y28602D02*
D03*
Y27894D02*
D03*
X24016Y26831D02*
D03*
Y26122D02*
D03*
D47*
X17520Y28228D02*
D03*
Y28858D02*
D03*
X20965Y28563D02*
D03*
Y27933D02*
D03*
X24902Y26063D02*
D03*
Y26693D02*
D03*
D60*
X22264Y26575D02*
D03*
X23209Y26201D02*
D03*
Y26949D02*
D03*
D62*
X19250Y5463D02*
D03*
X8850Y14850D02*
D03*
X4134Y28476D02*
D03*
X23031Y18110D02*
D03*
X4134Y32988D02*
D03*
Y31988D02*
D03*
Y27476D02*
D03*
Y26476D02*
D03*
Y16453D02*
D03*
Y15453D02*
D03*
Y21965D02*
D03*
Y20965D02*
D03*
X5134Y30988D02*
D03*
Y31988D02*
D03*
Y25476D02*
D03*
Y26476D02*
D03*
Y14453D02*
D03*
Y15453D02*
D03*
Y19965D02*
D03*
Y20965D02*
D03*
X4134Y33988D02*
D03*
Y17453D02*
D03*
Y22965D02*
D03*
X9850Y14850D02*
D03*
X20250Y6463D02*
D03*
Y7463D02*
D03*
X10850Y14850D02*
D03*
X19250Y6463D02*
D03*
X9850Y15850D02*
D03*
X19250Y7463D02*
D03*
X10850Y15850D02*
D03*
X8850D02*
D03*
X20250Y5463D02*
D03*
X7850Y14850D02*
D03*
X20250Y4463D02*
D03*
X19250D02*
D03*
X7850Y15850D02*
D03*
X15748Y27953D02*
D03*
Y26378D02*
D03*
Y24803D02*
D03*
X15748Y23031D02*
D03*
X13583Y18110D02*
D03*
X15157D02*
D03*
X16732D02*
D03*
X18307D02*
D03*
X19882D02*
D03*
X21457D02*
D03*
X24606Y18012D02*
D03*
X26181Y18110D02*
D03*
X27756D02*
D03*
X30413Y16240D02*
D03*
Y17815D02*
D03*
Y19390D02*
D03*
Y20965D02*
D03*
X30413Y22638D02*
D03*
X30413Y24114D02*
D03*
Y25689D02*
D03*
Y27264D02*
D03*
Y28839D02*
D03*
X29921Y30413D02*
D03*
X28346D02*
D03*
X26772D02*
D03*
X25197D02*
D03*
X23622D02*
D03*
X22047D02*
D03*
X20472D02*
D03*
X18898D02*
D03*
X17323D02*
D03*
X15748D02*
D03*
X14173D02*
D03*
X12598D02*
D03*
D63*
X22750Y884D02*
D03*
Y2041D02*
D03*
X23750Y884D02*
D03*
Y2041D02*
D03*
X24750Y884D02*
D03*
Y2041D02*
D03*
X25750Y884D02*
D03*
Y2041D02*
D03*
X26750Y884D02*
D03*
Y2041D02*
D03*
X27750Y884D02*
D03*
Y2041D02*
D03*
X28750Y884D02*
D03*
Y2041D02*
D03*
X29750Y884D02*
D03*
Y2041D02*
D03*
X30750Y884D02*
D03*
Y2041D02*
D03*
X31750Y884D02*
D03*
Y2041D02*
D03*
X32750Y884D02*
D03*
Y2041D02*
D03*
X33750Y884D02*
D03*
Y2041D02*
D03*
X34750Y884D02*
D03*
Y2041D02*
D03*
X22750Y9884D02*
D03*
Y11041D02*
D03*
X23750Y9884D02*
D03*
Y11041D02*
D03*
X24750Y9884D02*
D03*
Y11041D02*
D03*
X25750Y9884D02*
D03*
Y11041D02*
D03*
X26750Y9884D02*
D03*
Y11041D02*
D03*
X27750Y9884D02*
D03*
Y11041D02*
D03*
X28750Y9884D02*
D03*
Y11041D02*
D03*
X29750Y9884D02*
D03*
Y11041D02*
D03*
X30750Y9884D02*
D03*
Y11041D02*
D03*
X31750Y9884D02*
D03*
Y11041D02*
D03*
X32750Y9884D02*
D03*
Y11041D02*
D03*
D64*
X34750D02*
D03*
D65*
Y9884D02*
D03*
X33750Y11041D02*
D03*
Y9884D02*
D03*
D66*
X4134Y30988D02*
D03*
Y25476D02*
D03*
Y14453D02*
D03*
Y19965D02*
D03*
X5134Y32988D02*
D03*
Y27476D02*
D03*
Y16453D02*
D03*
Y21965D02*
D03*
D67*
X10750Y8963D02*
D03*
X10250Y9463D02*
D03*
X9250Y10463D02*
D03*
X9750Y9963D02*
D03*
X8750Y10963D02*
D03*
X9769Y17692D02*
D03*
X28237Y20484D02*
D03*
X7087Y31496D02*
D03*
Y29921D02*
D03*
Y30709D02*
D03*
X8268Y31102D02*
D03*
X7874Y31496D02*
D03*
X7480Y31890D02*
D03*
X8268D02*
D03*
X7480Y30315D02*
D03*
X28000Y8713D02*
D03*
X27750Y9213D02*
D03*
X17224Y21555D02*
D03*
X7480Y31102D02*
D03*
X7874Y30709D02*
D03*
Y29921D02*
D03*
X8268Y30315D02*
D03*
X9744Y31890D02*
D03*
Y31398D02*
D03*
Y30906D02*
D03*
Y30413D02*
D03*
X3051Y18110D02*
D03*
Y23622D02*
D03*
Y29134D02*
D03*
Y34646D02*
D03*
X17717Y24902D02*
D03*
X20177Y24311D02*
D03*
X17323Y24508D02*
D03*
X9055Y21850D02*
D03*
X13287Y21949D02*
D03*
Y28346D02*
D03*
Y26772D02*
D03*
Y25197D02*
D03*
Y23622D02*
D03*
X17323Y27264D02*
D03*
X17618Y27657D02*
D03*
X12992Y32874D02*
D03*
X14567D02*
D03*
X16142D02*
D03*
X17717D02*
D03*
X19291D02*
D03*
X20866D02*
D03*
X22441D02*
D03*
X24016D02*
D03*
X25591D02*
D03*
X27165D02*
D03*
X28740D02*
D03*
X30315D02*
D03*
X32874Y28445D02*
D03*
Y26870D02*
D03*
Y25295D02*
D03*
Y23720D02*
D03*
Y22146D02*
D03*
Y20571D02*
D03*
Y18996D02*
D03*
Y15846D02*
D03*
Y17421D02*
D03*
X27362Y15650D02*
D03*
X25787D02*
D03*
X24213D02*
D03*
X22608D02*
D03*
X21033D02*
D03*
X19459D02*
D03*
X17884D02*
D03*
X16309D02*
D03*
X13189D02*
D03*
X14764D02*
D03*
X17028Y27657D02*
D03*
X16732Y27264D02*
D03*
X16437Y27657D02*
D03*
X17913Y27264D02*
D03*
X10925Y29232D02*
D03*
Y28642D02*
D03*
X10531Y28346D02*
D03*
X10138Y28642D02*
D03*
X10531Y28937D02*
D03*
Y29528D02*
D03*
X10138Y29232D02*
D03*
X9744Y28346D02*
D03*
Y28937D02*
D03*
Y29528D02*
D03*
X19783Y26476D02*
D03*
X18996D02*
D03*
X19390Y26772D02*
D03*
X18012Y24409D02*
D03*
X17717Y24016D02*
D03*
X18307D02*
D03*
X20276Y21555D02*
D03*
X20571Y22146D02*
D03*
X20276Y20866D02*
D03*
X21260D02*
D03*
X14370Y17913D02*
D03*
X15915D02*
D03*
X17490D02*
D03*
X19065D02*
D03*
X20640D02*
D03*
X20768Y20866D02*
D03*
X29035Y26181D02*
D03*
X29429Y26476D02*
D03*
X29823Y26181D02*
D03*
Y25591D02*
D03*
X29035D02*
D03*
X29429Y25886D02*
D03*
X28642Y22441D02*
D03*
X29429D02*
D03*
X29035Y22146D02*
D03*
X28642Y24213D02*
D03*
X29035Y24508D02*
D03*
X29429Y24213D02*
D03*
X29232Y22933D02*
D03*
Y23720D02*
D03*
X28937Y23327D02*
D03*
X28642Y22933D02*
D03*
Y23720D02*
D03*
X29528Y23327D02*
D03*
X27953Y19488D02*
D03*
X28248Y19094D02*
D03*
X28543Y19488D02*
D03*
X27953Y20177D02*
D03*
X28543D02*
D03*
X24409Y19587D02*
D03*
X24508Y19094D02*
D03*
X23720Y19488D02*
D03*
X24016Y19094D02*
D03*
D85*
X19272Y28622D02*
D03*
Y27874D02*
D03*
X18327Y28622D02*
D03*
Y27874D02*
D03*
Y28248D02*
D03*
D86*
X23031Y23524D02*
D03*
X22323Y22815D02*
D03*
X23031D02*
D03*
X23701D02*
D03*
Y23484D02*
D03*
Y24232D02*
D03*
X23031D02*
D03*
X22323D02*
D03*
Y23524D02*
D03*
M02*
