M48
;Layer_Color=9474304
;FILE_FORMAT=2:4
INCH,LZ
;TYPE=PLATED
T1F00S00C0.0197
T2F00S00C0.0200
T3F00S00C0.0354
T4F00S00C0.0394
%
T01
X022323Y022815
X023031
X023701
Y023484
X023031Y023524
Y024232
X023701
X022323
Y023524
T02
X021033Y01565
X022608
X024213
X025787
X027362
X028248Y019094
X028543Y019488
X027953
X024409Y019587
X024508Y019094
X024016
X02372Y019488
X02064Y017913
X032874Y017421
Y018996
Y015846
X02775Y009213
X028Y008713
X019459Y01565
X017884
X016309
X014764
X013189
X01437Y017913
X015915
X01749
X019065
X009769Y017692
X00925Y010463
X00975Y009963
X01025Y009463
X01075Y008963
X00875Y010963
X003051Y01811
Y023622
Y029134
Y034646
X007087Y031496
Y030709
Y029921
X00748Y030315
Y031102
X007874Y031496
X008268Y031102
Y03189
X00748
X007874Y030709
Y029921
X008268Y030315
X009744Y030413
Y030906
Y031398
Y03189
Y029528
Y028937
Y028346
X010138Y028642
Y029232
X010531Y029528
Y028937
Y028346
X010925Y028642
Y029232
X013287Y028346
Y026772
Y025197
Y023622
Y021949
X017224Y021555
X017717Y024016
X018307
X018012Y024409
X017717Y024902
X017323Y024508
Y027264
X016732
X017028Y027657
X016437
X017618
X017913Y027264
X018996Y026476
X01939Y026772
X019783Y026476
X019291Y032874
X017717
X016142
X014567
X012992
X009055Y02185
X020276Y021555
Y020866
X020768
X02126
X020571Y022146
X020177Y024311
X028642Y024213
Y02372
X029232
X029429Y024213
X029035Y024508
Y025591
Y026181
X029429Y026476
Y025886
X029823Y025591
Y026181
X029528Y023327
X028937
X028642Y022933
Y022441
X029035Y022146
X029429Y022441
X029232Y022933
X028237Y020484
X027953Y020177
X028543
X032874Y020571
Y022146
Y02372
Y025295
Y02687
Y028445
X030315Y032874
X02874
X027165
X025591
X024016
X022441
X020866
T03
X02025Y004463
Y005463
Y006463
Y007463
X021457Y01811
X023031Y01811
X024606Y018012
X026181Y01811
X027756
X030413Y017815
Y01624
Y01939
X019882Y01811
X018307
X016732
X015157
X013583
X01085Y01585
Y01485
X00985
X00885
Y01585
X00985
X00785
Y01485
X005134Y014453
Y015453
Y016453
Y019965
X01925Y007463
Y006463
Y005463
Y004463
X004134Y014453
Y015453
Y016453
Y017453
Y019965
Y020965
Y021965
Y022965
Y025476
Y026476
Y027476
Y028476
Y030988
Y031988
Y032988
Y033988
X005134Y032988
Y031988
Y030988
Y027476
Y026476
Y025476
Y021965
Y020965
X015748Y023031
X015748Y024803
Y026378
Y027953
Y030413
X017323
X018898
X014173
X012598
X020472
X022047
X023622
X025197
X026772
X028346
X029921
X030413Y028839
Y027264
Y025689
Y024114
X030413Y022638
X030413Y020965
T04
X02275Y000963
Y001963
X02375
Y000963
X02475
Y001963
X02575
Y000963
X02675
Y001963
X02775
Y000963
X02875
Y001963
X02975
Y000963
X03075
Y001963
X03175
Y000963
X03275
Y001963
X03375
Y000963
X03475
Y001963
Y009963
Y010963
X03375
X03275
X03175
X03075
X02975
X02875
X02775
X02675
X02575
X02475
X02375
X02275
Y009963
X02375
X02475
X02575
X02675
X02775
X02875
X02975
X03075
X03175
X03275
X03375
M30
