G04*
G04 #@! TF.GenerationSoftware,Altium Limited,Altium Designer,19.1.8 (144)*
G04*
G04 Layer_Color=8388736*
%FSLAX24Y24*%
%MOIN*%
G70*
G01*
G75*
%ADD11C,0.0100*%
%ADD41R,0.2088X0.2088*%
%ADD42O,0.0178X0.0454*%
%ADD43O,0.0178X0.0493*%
%ADD44O,0.0454X0.0178*%
%ADD45O,0.0493X0.0178*%
%ADD46R,0.0651X0.0533*%
%ADD47R,0.0474X0.0434*%
%ADD48R,0.0434X0.0474*%
%ADD49R,0.0474X0.0474*%
%ADD50R,0.0395X0.0474*%
%ADD51R,0.0671X0.0986*%
G04:AMPARAMS|DCode=52|XSize=47.4mil|YSize=43.4mil|CornerRadius=0mil|HoleSize=0mil|Usage=FLASHONLY|Rotation=135.000|XOffset=0mil|YOffset=0mil|HoleType=Round|Shape=Rectangle|*
%AMROTATEDRECTD52*
4,1,4,0.0321,-0.0014,0.0014,-0.0321,-0.0321,0.0014,-0.0014,0.0321,0.0321,-0.0014,0.0*
%
%ADD52ROTATEDRECTD52*%

G04:AMPARAMS|DCode=53|XSize=47.4mil|YSize=43.4mil|CornerRadius=0mil|HoleSize=0mil|Usage=FLASHONLY|Rotation=225.000|XOffset=0mil|YOffset=0mil|HoleType=Round|Shape=Rectangle|*
%AMROTATEDRECTD53*
4,1,4,0.0014,0.0321,0.0321,0.0014,-0.0014,-0.0321,-0.0321,-0.0014,0.0014,0.0321,0.0*
%
%ADD53ROTATEDRECTD53*%

%ADD54P,0.0670X4X90.0*%
G04:AMPARAMS|DCode=55|XSize=98.6mil|YSize=67.1mil|CornerRadius=0mil|HoleSize=0mil|Usage=FLASHONLY|Rotation=315.000|XOffset=0mil|YOffset=0mil|HoleType=Round|Shape=Rectangle|*
%AMROTATEDRECTD55*
4,1,4,-0.0586,0.0111,-0.0111,0.0586,0.0586,-0.0111,0.0111,-0.0586,-0.0586,0.0111,0.0*
%
%ADD55ROTATEDRECTD55*%

%ADD56R,0.0749X0.1045*%
G04:AMPARAMS|DCode=57|XSize=65.1mil|YSize=53.3mil|CornerRadius=0mil|HoleSize=0mil|Usage=FLASHONLY|Rotation=135.000|XOffset=0mil|YOffset=0mil|HoleType=Round|Shape=Rectangle|*
%AMROTATEDRECTD57*
4,1,4,0.0418,-0.0042,0.0042,-0.0418,-0.0418,0.0042,-0.0042,0.0418,0.0418,-0.0042,0.0*
%
%ADD57ROTATEDRECTD57*%

%ADD58R,0.0533X0.0651*%
%ADD59R,0.0710X0.1458*%
%ADD60R,0.0474X0.0395*%
%ADD61R,0.0474X0.0474*%
%ADD62C,0.0710*%
G04:AMPARAMS|DCode=63|XSize=67.1mil|YSize=86.7mil|CornerRadius=33.5mil|HoleSize=0mil|Usage=FLASHONLY|Rotation=0.000|XOffset=0mil|YOffset=0mil|HoleType=Round|Shape=RoundedRectangle|*
%AMROUNDEDRECTD63*
21,1,0.0671,0.0197,0,0,0.0*
21,1,0.0000,0.0867,0,0,0.0*
1,1,0.0671,0.0000,-0.0098*
1,1,0.0671,0.0000,-0.0098*
1,1,0.0671,0.0000,0.0098*
1,1,0.0671,0.0000,0.0098*
%
%ADD63ROUNDEDRECTD63*%
G04:AMPARAMS|DCode=64|XSize=67.1mil|YSize=86.7mil|CornerRadius=0mil|HoleSize=0mil|Usage=FLASHONLY|Rotation=180.000|XOffset=0mil|YOffset=0mil|HoleType=Round|Shape=Octagon|*
%AMOCTAGOND64*
4,1,8,0.0168,-0.0434,-0.0168,-0.0434,-0.0335,-0.0266,-0.0335,0.0266,-0.0168,0.0434,0.0168,0.0434,0.0335,0.0266,0.0335,-0.0266,0.0168,-0.0434,0.0*
%
%ADD64OCTAGOND64*%

%ADD65O,0.0671X0.0867*%
%ADD66R,0.0671X0.0671*%
%ADD67C,0.0430*%
D11*
X0Y36220D02*
X36220D01*
X-0Y12008D02*
X0Y36220D01*
X36220Y0D02*
X36220Y36220D01*
X-0Y12008D02*
X6705Y12008D01*
X18713Y-0D02*
X36220Y0D01*
X6705Y12008D02*
X18713Y-0D01*
D41*
X23031Y23524D02*
D03*
D42*
X21949Y24892D02*
D03*
X24114D02*
D03*
Y22156D02*
D03*
X21949D02*
D03*
D43*
X22146Y24872D02*
D03*
X22343D02*
D03*
X22539D02*
D03*
X22736D02*
D03*
X22933D02*
D03*
X23130D02*
D03*
X23327D02*
D03*
X23524D02*
D03*
X23720D02*
D03*
X23917D02*
D03*
Y22175D02*
D03*
X23720D02*
D03*
X23524D02*
D03*
X23327D02*
D03*
X23130D02*
D03*
X22933D02*
D03*
X22736D02*
D03*
X22539D02*
D03*
X22343D02*
D03*
X22146D02*
D03*
D44*
X24400Y24606D02*
D03*
Y22441D02*
D03*
X21663D02*
D03*
Y24606D02*
D03*
D45*
X24380Y24409D02*
D03*
Y24213D02*
D03*
Y24016D02*
D03*
Y23819D02*
D03*
Y23622D02*
D03*
Y23425D02*
D03*
Y23228D02*
D03*
Y23031D02*
D03*
Y22835D02*
D03*
Y22638D02*
D03*
X21683D02*
D03*
Y22835D02*
D03*
Y23031D02*
D03*
Y23228D02*
D03*
Y23425D02*
D03*
Y23622D02*
D03*
Y23819D02*
D03*
Y24016D02*
D03*
Y24213D02*
D03*
Y24409D02*
D03*
D46*
X28051Y24370D02*
D03*
Y23661D02*
D03*
X28051Y22283D02*
D03*
Y22992D02*
D03*
X18898Y24055D02*
D03*
Y24764D02*
D03*
X3051Y34114D02*
D03*
Y33406D02*
D03*
Y28602D02*
D03*
Y27894D02*
D03*
Y17579D02*
D03*
Y16870D02*
D03*
Y23091D02*
D03*
Y22382D02*
D03*
X28445Y26240D02*
D03*
Y25531D02*
D03*
X27362Y19528D02*
D03*
Y20236D02*
D03*
D47*
X19685Y24626D02*
D03*
Y23996D02*
D03*
X23819Y17441D02*
D03*
Y16811D02*
D03*
X23031Y16811D02*
D03*
Y17441D02*
D03*
X3051Y32598D02*
D03*
Y31969D02*
D03*
Y27087D02*
D03*
Y26457D02*
D03*
Y16063D02*
D03*
Y15433D02*
D03*
Y21575D02*
D03*
Y20945D02*
D03*
X26575Y20197D02*
D03*
Y19567D02*
D03*
X27657Y25472D02*
D03*
Y26102D02*
D03*
X12106Y27874D02*
D03*
Y27244D02*
D03*
Y26299D02*
D03*
Y25669D02*
D03*
Y24724D02*
D03*
Y24094D02*
D03*
Y23150D02*
D03*
Y22520D02*
D03*
X34055Y16319D02*
D03*
Y16949D02*
D03*
Y17894D02*
D03*
Y18524D02*
D03*
Y19469D02*
D03*
Y20098D02*
D03*
Y21043D02*
D03*
Y21673D02*
D03*
Y22618D02*
D03*
Y23248D02*
D03*
Y24193D02*
D03*
Y24823D02*
D03*
Y25768D02*
D03*
Y26398D02*
D03*
Y27343D02*
D03*
Y27972D02*
D03*
Y28917D02*
D03*
Y29547D02*
D03*
X13583Y16811D02*
D03*
Y17441D02*
D03*
X15157Y16811D02*
D03*
Y17441D02*
D03*
X16732Y16811D02*
D03*
Y17441D02*
D03*
X18307Y16811D02*
D03*
Y17441D02*
D03*
X19882Y16811D02*
D03*
Y17441D02*
D03*
X21457Y16811D02*
D03*
Y17441D02*
D03*
X24606Y16811D02*
D03*
Y17441D02*
D03*
X26181Y16811D02*
D03*
Y17441D02*
D03*
X27756Y16811D02*
D03*
Y17441D02*
D03*
X29921Y31713D02*
D03*
Y31083D02*
D03*
X28346Y31713D02*
D03*
Y31083D02*
D03*
X26772Y31713D02*
D03*
Y31083D02*
D03*
X25197Y31713D02*
D03*
Y31083D02*
D03*
X23622Y31713D02*
D03*
Y31083D02*
D03*
X22047Y31713D02*
D03*
Y31083D02*
D03*
X20472Y31713D02*
D03*
Y31083D02*
D03*
X18898Y31713D02*
D03*
Y31083D02*
D03*
X17323Y31713D02*
D03*
Y31083D02*
D03*
X15748Y31713D02*
D03*
Y31083D02*
D03*
X14173Y31713D02*
D03*
Y31083D02*
D03*
X12598Y31713D02*
D03*
Y31083D02*
D03*
X14370Y17441D02*
D03*
Y16811D02*
D03*
X15945Y17441D02*
D03*
Y16811D02*
D03*
X17520Y17441D02*
D03*
Y16811D02*
D03*
X19094Y17441D02*
D03*
Y16811D02*
D03*
X20669Y17441D02*
D03*
Y16811D02*
D03*
X22244Y17441D02*
D03*
Y16811D02*
D03*
X25394Y17441D02*
D03*
Y16811D02*
D03*
X26969Y17441D02*
D03*
Y16811D02*
D03*
X28543Y17441D02*
D03*
Y16811D02*
D03*
X29134Y31083D02*
D03*
Y31713D02*
D03*
X27559Y31083D02*
D03*
Y31713D02*
D03*
X25984Y31083D02*
D03*
Y31713D02*
D03*
X24409Y31083D02*
D03*
Y31713D02*
D03*
X22835Y31083D02*
D03*
Y31713D02*
D03*
X21260Y31083D02*
D03*
Y31713D02*
D03*
X19685Y31083D02*
D03*
Y31713D02*
D03*
X18110Y31083D02*
D03*
Y31713D02*
D03*
X16535Y31083D02*
D03*
Y31713D02*
D03*
X14961Y31083D02*
D03*
Y31713D02*
D03*
X13386Y31083D02*
D03*
Y31713D02*
D03*
X11811Y31083D02*
D03*
Y31713D02*
D03*
D48*
X27283Y23720D02*
D03*
X26654D02*
D03*
X27283Y22933D02*
D03*
X26654Y22933D02*
D03*
X23110Y14469D02*
D03*
X23740D02*
D03*
X13760Y21555D02*
D03*
X14390D02*
D03*
X23799Y20965D02*
D03*
X24429D02*
D03*
X13661Y14469D02*
D03*
X14291D02*
D03*
X15236D02*
D03*
X15866D02*
D03*
X16811D02*
D03*
X17441D02*
D03*
X18386D02*
D03*
X19016D02*
D03*
X19961D02*
D03*
X20591D02*
D03*
X21535D02*
D03*
X22165D02*
D03*
X24685D02*
D03*
X25315D02*
D03*
X26260D02*
D03*
X26890D02*
D03*
X27835D02*
D03*
X28465D02*
D03*
X29843Y34055D02*
D03*
X29213D02*
D03*
X28268D02*
D03*
X27638D02*
D03*
X26693D02*
D03*
X26063D02*
D03*
X25118D02*
D03*
X24488D02*
D03*
X23543D02*
D03*
X22913D02*
D03*
X21969D02*
D03*
X21339D02*
D03*
X20394D02*
D03*
X19764D02*
D03*
X18819D02*
D03*
X18189D02*
D03*
X17244D02*
D03*
X16614D02*
D03*
X15669D02*
D03*
X15039D02*
D03*
X14094D02*
D03*
X13465D02*
D03*
X12520D02*
D03*
X11890D02*
D03*
X14449Y27953D02*
D03*
X15079D02*
D03*
X14449Y26378D02*
D03*
X15079D02*
D03*
X14449Y24803D02*
D03*
X15079D02*
D03*
X14449Y23228D02*
D03*
X15079D02*
D03*
X31713Y16240D02*
D03*
X31083D02*
D03*
X31713Y17815D02*
D03*
X31083D02*
D03*
X31713Y19390D02*
D03*
X31083D02*
D03*
X31713Y20965D02*
D03*
X31083D02*
D03*
X31713Y22539D02*
D03*
X31083D02*
D03*
X31713Y24114D02*
D03*
X31083D02*
D03*
X31713Y25689D02*
D03*
X31083D02*
D03*
X31713Y27264D02*
D03*
X31083D02*
D03*
X31713Y28839D02*
D03*
X31083D02*
D03*
X15079Y27165D02*
D03*
X14449D02*
D03*
X15079Y25591D02*
D03*
X14449D02*
D03*
X15079Y24016D02*
D03*
X14449D02*
D03*
X15079Y22441D02*
D03*
X14449D02*
D03*
X31083Y17028D02*
D03*
X31713D02*
D03*
X31083Y18602D02*
D03*
X31713D02*
D03*
X31083Y20177D02*
D03*
X31713D02*
D03*
X31083Y21752D02*
D03*
X31713D02*
D03*
X31083Y23327D02*
D03*
X31713D02*
D03*
X31083Y24902D02*
D03*
X31713D02*
D03*
X31083Y26476D02*
D03*
X31713D02*
D03*
X31083Y28051D02*
D03*
X31713D02*
D03*
X31083Y29626D02*
D03*
X31713D02*
D03*
D49*
X23091Y13780D02*
D03*
X23760D02*
D03*
X16575Y21555D02*
D03*
X15905D02*
D03*
X13642Y13780D02*
D03*
X14311D02*
D03*
X15217D02*
D03*
X15886D02*
D03*
X16791D02*
D03*
X17461D02*
D03*
X18366D02*
D03*
X19035D02*
D03*
X19941D02*
D03*
X20610D02*
D03*
X21516D02*
D03*
X22185D02*
D03*
X24665D02*
D03*
X25335D02*
D03*
X26240D02*
D03*
X26909D02*
D03*
X27815D02*
D03*
X28484D02*
D03*
X29862Y34744D02*
D03*
X29193D02*
D03*
X28287D02*
D03*
X27618D02*
D03*
X26713D02*
D03*
X26043D02*
D03*
X25138D02*
D03*
X24468D02*
D03*
X23563D02*
D03*
X22894D02*
D03*
X21988D02*
D03*
X21319D02*
D03*
X20413D02*
D03*
X19744D02*
D03*
X18839D02*
D03*
X18169D02*
D03*
X17264D02*
D03*
X16594D02*
D03*
X15689D02*
D03*
X15020D02*
D03*
X14114D02*
D03*
X13445D02*
D03*
X12539D02*
D03*
X11870D02*
D03*
D50*
X23799Y16122D02*
D03*
X23051D02*
D03*
X23425Y15177D02*
D03*
X14350Y16122D02*
D03*
X13602D02*
D03*
X13976Y15177D02*
D03*
X15925Y16122D02*
D03*
X15177D02*
D03*
X15551Y15177D02*
D03*
X17500Y16122D02*
D03*
X16752D02*
D03*
X17126Y15177D02*
D03*
X19075Y16122D02*
D03*
X18327D02*
D03*
X18701Y15177D02*
D03*
X20650Y16122D02*
D03*
X19902D02*
D03*
X20276Y15177D02*
D03*
X22224Y16122D02*
D03*
X21476D02*
D03*
X21850Y15177D02*
D03*
X25374Y16122D02*
D03*
X24626D02*
D03*
X25000Y15177D02*
D03*
X26949Y16122D02*
D03*
X26201D02*
D03*
X26575Y15177D02*
D03*
X28524Y16122D02*
D03*
X27776D02*
D03*
X28150Y15177D02*
D03*
X29154Y32402D02*
D03*
X29902D02*
D03*
X29528Y33346D02*
D03*
X27579Y32402D02*
D03*
X28327D02*
D03*
X27953Y33346D02*
D03*
X26004Y32402D02*
D03*
X26752D02*
D03*
X26378Y33346D02*
D03*
X24429Y32402D02*
D03*
X25177D02*
D03*
X24803Y33346D02*
D03*
X22854Y32402D02*
D03*
X23602D02*
D03*
X23228Y33346D02*
D03*
X21280Y32402D02*
D03*
X22028D02*
D03*
X21654Y33346D02*
D03*
X19705Y32402D02*
D03*
X20453D02*
D03*
X20079Y33346D02*
D03*
X18130Y32402D02*
D03*
X18878D02*
D03*
X18504Y33346D02*
D03*
X16555Y32402D02*
D03*
X17303D02*
D03*
X16929Y33346D02*
D03*
X14980Y32402D02*
D03*
X15728D02*
D03*
X15354Y33346D02*
D03*
X13406Y32402D02*
D03*
X14154D02*
D03*
X13780Y33346D02*
D03*
X11831Y32402D02*
D03*
X12579D02*
D03*
X12205Y33346D02*
D03*
D51*
X1772Y30413D02*
D03*
Y33563D02*
D03*
Y24902D02*
D03*
Y28051D02*
D03*
Y13878D02*
D03*
Y17028D02*
D03*
Y19390D02*
D03*
Y22539D02*
D03*
D52*
X10014Y18084D02*
D03*
X10459Y18530D02*
D03*
X20840Y25466D02*
D03*
X21286Y25912D02*
D03*
D53*
X18825Y20840D02*
D03*
X18380Y21286D02*
D03*
D54*
X11457Y19528D02*
D03*
X10984Y19055D02*
D03*
D55*
X9516Y22472D02*
D03*
X11743Y20245D02*
D03*
D56*
X25492Y19783D02*
D03*
Y21358D02*
D03*
D57*
X20723Y26530D02*
D03*
X20222Y26029D02*
D03*
D58*
X24370Y20177D02*
D03*
X23661D02*
D03*
D59*
X8957Y28858D02*
D03*
Y30984D02*
D03*
D60*
X13760Y27185D02*
D03*
Y27933D02*
D03*
X12815Y27559D02*
D03*
X13760Y25610D02*
D03*
Y26358D02*
D03*
X12815Y25984D02*
D03*
X13760Y24035D02*
D03*
Y24783D02*
D03*
X12815Y24409D02*
D03*
X13760Y22461D02*
D03*
Y23209D02*
D03*
X12815Y22835D02*
D03*
X32402Y17008D02*
D03*
Y16260D02*
D03*
X33346Y16634D02*
D03*
X32402Y18583D02*
D03*
Y17835D02*
D03*
X33346Y18209D02*
D03*
X32402Y20157D02*
D03*
Y19409D02*
D03*
X33346Y19783D02*
D03*
X32402Y21732D02*
D03*
Y20984D02*
D03*
X33346Y21358D02*
D03*
X32402Y23307D02*
D03*
Y22559D02*
D03*
X33346Y22933D02*
D03*
X32402Y24882D02*
D03*
Y24134D02*
D03*
X33346Y24508D02*
D03*
X32402Y26457D02*
D03*
Y25709D02*
D03*
X33346Y26083D02*
D03*
X32402Y28031D02*
D03*
Y27283D02*
D03*
X33346Y27657D02*
D03*
X32402Y29606D02*
D03*
Y28858D02*
D03*
X33346Y29232D02*
D03*
D61*
X11417Y27894D02*
D03*
Y27224D02*
D03*
Y26319D02*
D03*
Y25650D02*
D03*
Y24744D02*
D03*
Y24075D02*
D03*
Y23169D02*
D03*
Y22500D02*
D03*
X34744Y16299D02*
D03*
Y16969D02*
D03*
Y17874D02*
D03*
Y18543D02*
D03*
Y19449D02*
D03*
Y20118D02*
D03*
Y21024D02*
D03*
Y21693D02*
D03*
Y22598D02*
D03*
Y23268D02*
D03*
Y24173D02*
D03*
Y24843D02*
D03*
Y25748D02*
D03*
Y26417D02*
D03*
Y27323D02*
D03*
Y27992D02*
D03*
Y28898D02*
D03*
Y29567D02*
D03*
D62*
X19250Y5463D02*
D03*
X8850Y14850D02*
D03*
X4134Y28476D02*
D03*
X23031Y18110D02*
D03*
X4134Y32988D02*
D03*
Y31988D02*
D03*
Y27476D02*
D03*
Y26476D02*
D03*
Y16453D02*
D03*
Y15453D02*
D03*
Y21965D02*
D03*
Y20965D02*
D03*
X5134Y30988D02*
D03*
Y31988D02*
D03*
Y25476D02*
D03*
Y26476D02*
D03*
Y14453D02*
D03*
Y15453D02*
D03*
Y19965D02*
D03*
Y20965D02*
D03*
X4134Y33988D02*
D03*
Y17453D02*
D03*
Y22965D02*
D03*
X9850Y14850D02*
D03*
X20250Y6463D02*
D03*
Y7463D02*
D03*
X10850Y14850D02*
D03*
X19250Y6463D02*
D03*
X9850Y15850D02*
D03*
X19250Y7463D02*
D03*
X10850Y15850D02*
D03*
X8850D02*
D03*
X20250Y5463D02*
D03*
X7850Y14850D02*
D03*
X20250Y4463D02*
D03*
X19250D02*
D03*
X7850Y15850D02*
D03*
X15748Y27953D02*
D03*
Y26378D02*
D03*
Y24803D02*
D03*
X15748Y23031D02*
D03*
X13583Y18110D02*
D03*
X15157D02*
D03*
X16732D02*
D03*
X18307D02*
D03*
X19882D02*
D03*
X21457D02*
D03*
X24606Y18012D02*
D03*
X26181Y18110D02*
D03*
X27756D02*
D03*
X30413Y16240D02*
D03*
Y17815D02*
D03*
Y19390D02*
D03*
Y20965D02*
D03*
X30413Y22638D02*
D03*
X30413Y24114D02*
D03*
Y25689D02*
D03*
Y27264D02*
D03*
Y28839D02*
D03*
X29921Y30413D02*
D03*
X28346D02*
D03*
X26772D02*
D03*
X25197D02*
D03*
X23622D02*
D03*
X22047D02*
D03*
X20472D02*
D03*
X18898D02*
D03*
X17323D02*
D03*
X15748D02*
D03*
X14173D02*
D03*
X12598D02*
D03*
D63*
X22750Y884D02*
D03*
Y2041D02*
D03*
X23750Y884D02*
D03*
Y2041D02*
D03*
X24750Y884D02*
D03*
Y2041D02*
D03*
X25750Y884D02*
D03*
Y2041D02*
D03*
X26750Y884D02*
D03*
Y2041D02*
D03*
X27750Y884D02*
D03*
Y2041D02*
D03*
X28750Y884D02*
D03*
Y2041D02*
D03*
X29750Y884D02*
D03*
Y2041D02*
D03*
X30750Y884D02*
D03*
Y2041D02*
D03*
X31750Y884D02*
D03*
Y2041D02*
D03*
X32750Y884D02*
D03*
Y2041D02*
D03*
X33750Y884D02*
D03*
Y2041D02*
D03*
X34750Y884D02*
D03*
Y2041D02*
D03*
X22750Y9884D02*
D03*
Y11041D02*
D03*
X23750Y9884D02*
D03*
Y11041D02*
D03*
X24750Y9884D02*
D03*
Y11041D02*
D03*
X25750Y9884D02*
D03*
Y11041D02*
D03*
X26750Y9884D02*
D03*
Y11041D02*
D03*
X27750Y9884D02*
D03*
Y11041D02*
D03*
X28750Y9884D02*
D03*
Y11041D02*
D03*
X29750Y9884D02*
D03*
Y11041D02*
D03*
X30750Y9884D02*
D03*
Y11041D02*
D03*
X31750Y9884D02*
D03*
Y11041D02*
D03*
X32750Y9884D02*
D03*
Y11041D02*
D03*
D64*
X34750D02*
D03*
D65*
Y9884D02*
D03*
X33750Y11041D02*
D03*
Y9884D02*
D03*
D66*
X4134Y30988D02*
D03*
Y25476D02*
D03*
Y14453D02*
D03*
Y19965D02*
D03*
X5134Y32988D02*
D03*
Y27476D02*
D03*
Y16453D02*
D03*
Y21965D02*
D03*
D67*
X10750Y8963D02*
D03*
X10250Y9463D02*
D03*
X9250Y10463D02*
D03*
X9750Y9963D02*
D03*
X8750Y10963D02*
D03*
M02*
