G04*
G04 #@! TF.GenerationSoftware,Altium Limited,Altium Designer,19.1.8 (144)*
G04*
G04 Layer_Physical_Order=2*
G04 Layer_Color=16711680*
%FSLAX24Y24*%
%MOIN*%
G70*
G01*
G75*
%ADD11C,0.0100*%
%ADD25R,0.0571X0.0453*%
%ADD26R,0.0394X0.0354*%
%ADD39R,0.0394X0.0315*%
%ADD68C,0.0150*%
%ADD69C,0.0250*%
%ADD70C,0.0300*%
%ADD71C,0.0350*%
%ADD74C,0.0450*%
%ADD75C,0.0630*%
G04:AMPARAMS|DCode=76|XSize=59.1mil|YSize=78.7mil|CornerRadius=29.5mil|HoleSize=0mil|Usage=FLASHONLY|Rotation=0.000|XOffset=0mil|YOffset=0mil|HoleType=Round|Shape=RoundedRectangle|*
%AMROUNDEDRECTD76*
21,1,0.0591,0.0197,0,0,0.0*
21,1,0.0000,0.0787,0,0,0.0*
1,1,0.0591,0.0000,-0.0098*
1,1,0.0591,0.0000,-0.0098*
1,1,0.0591,0.0000,0.0098*
1,1,0.0591,0.0000,0.0098*
%
%ADD76ROUNDEDRECTD76*%
G04:AMPARAMS|DCode=77|XSize=59.1mil|YSize=78.7mil|CornerRadius=0mil|HoleSize=0mil|Usage=FLASHONLY|Rotation=180.000|XOffset=0mil|YOffset=0mil|HoleType=Round|Shape=Octagon|*
%AMOCTAGOND77*
4,1,8,0.0148,-0.0394,-0.0148,-0.0394,-0.0295,-0.0246,-0.0295,0.0246,-0.0148,0.0394,0.0148,0.0394,0.0295,0.0246,0.0295,-0.0246,0.0148,-0.0394,0.0*
%
%ADD77OCTAGOND77*%

%ADD78O,0.0591X0.0787*%
%ADD79R,0.0591X0.0591*%
%ADD80C,0.0350*%
%ADD81C,0.0472*%
%ADD82R,0.0433X0.0236*%
%ADD83C,0.0500*%
%ADD84C,0.0220*%
G36*
X36068Y12205D02*
X13748Y12205D01*
X11227Y14727D01*
X11235Y14747D01*
X11249Y14850D01*
X11235Y14954D01*
X11195Y15050D01*
X11132Y15132D01*
X11114Y15146D01*
X11134Y15194D01*
X11153Y15197D01*
X11180Y15215D01*
X11197Y15242D01*
X11204Y15273D01*
Y15453D01*
X11197Y15484D01*
X11180Y15510D01*
X11158Y15525D01*
X11152Y15535D01*
X11142Y15581D01*
X11195Y15651D01*
X11235Y15747D01*
X11249Y15850D01*
X11235Y15954D01*
X11195Y16050D01*
X11132Y16132D01*
X11050Y16195D01*
X10954Y16235D01*
X10850Y16249D01*
X10747Y16235D01*
X10651Y16195D01*
X10569Y16132D01*
X10548Y16105D01*
X10498Y16122D01*
Y16142D01*
X10492Y16173D01*
X10474Y16199D01*
X10447Y16217D01*
X10416Y16223D01*
X10236D01*
X10205Y16217D01*
X10179Y16199D01*
X10161Y16173D01*
X10106Y16152D01*
X10050Y16195D01*
X9954Y16235D01*
X9850Y16249D01*
X9747Y16235D01*
X9651Y16195D01*
X9569Y16132D01*
X9561Y16122D01*
X9526Y16134D01*
X9513Y16142D01*
X9507Y16173D01*
X9490Y16199D01*
X9463Y16217D01*
X9432Y16223D01*
X9252D01*
X9221Y16217D01*
X9194Y16199D01*
X9177Y16173D01*
X9174Y16160D01*
X9158Y16149D01*
X9133Y16141D01*
X9120Y16141D01*
X9050Y16195D01*
X8953Y16235D01*
X8850Y16249D01*
X8747Y16235D01*
X8651Y16195D01*
X8579Y16140D01*
X8565Y16141D01*
X8545Y16147D01*
X8526Y16158D01*
X8523Y16173D01*
X8505Y16199D01*
X8479Y16217D01*
X8448Y16223D01*
X8268D01*
X8237Y16217D01*
X8210Y16199D01*
X8192Y16173D01*
X8186Y16143D01*
X8173Y16135D01*
X8139Y16123D01*
X8132Y16132D01*
X8050Y16195D01*
X7954Y16235D01*
X7850Y16249D01*
X7747Y16235D01*
X7651Y16195D01*
X7578Y16139D01*
X7566Y16134D01*
X7499Y16082D01*
X6768Y15352D01*
X6716Y15284D01*
X6683Y15205D01*
X6678Y15163D01*
X6672Y15120D01*
Y13963D01*
X6678Y13920D01*
X6683Y13878D01*
X6716Y13799D01*
X6768Y13731D01*
X8248Y12251D01*
X8229Y12205D01*
X153D01*
X153Y36068D01*
X36068D01*
X36068Y12205D01*
D02*
G37*
%LPC*%
G36*
X4134Y34387D02*
X4031Y34373D01*
X3935Y34333D01*
X3852Y34270D01*
X3789Y34187D01*
X3749Y34091D01*
X3735Y33988D01*
X3749Y33885D01*
X3789Y33789D01*
X3852Y33707D01*
X3935Y33643D01*
X4031Y33603D01*
X4134Y33590D01*
X4237Y33603D01*
X4333Y33643D01*
X4416Y33707D01*
X4479Y33789D01*
X4519Y33885D01*
X4532Y33988D01*
X4519Y34091D01*
X4479Y34187D01*
X4416Y34270D01*
X4333Y34333D01*
X4237Y34373D01*
X4134Y34387D01*
D02*
G37*
G36*
X4184Y33400D02*
Y33038D01*
X4546D01*
X4538Y33097D01*
X4496Y33197D01*
X4430Y33284D01*
X4343Y33351D01*
X4242Y33392D01*
X4184Y33400D01*
D02*
G37*
G36*
X5529Y33383D02*
X5184D01*
Y33038D01*
X5529D01*
Y33383D01*
D02*
G37*
G36*
X5084D02*
X4739D01*
Y33038D01*
X5084D01*
Y33383D01*
D02*
G37*
G36*
X4084Y33400D02*
X4026Y33392D01*
X3925Y33351D01*
X3838Y33284D01*
X3771Y33197D01*
X3730Y33097D01*
X3722Y33038D01*
X4084D01*
Y33400D01*
D02*
G37*
G36*
X5529Y32938D02*
X5184D01*
Y32593D01*
X5529D01*
Y32938D01*
D02*
G37*
G36*
X5084D02*
X4739D01*
Y32593D01*
X5084D01*
Y32938D01*
D02*
G37*
G36*
X4084D02*
X3722D01*
X3730Y32880D01*
X3771Y32779D01*
X3838Y32692D01*
X3925Y32626D01*
X4026Y32584D01*
X4084Y32576D01*
Y32938D01*
D02*
G37*
G36*
X4546D02*
X4184D01*
Y32576D01*
X4242Y32584D01*
X4343Y32626D01*
X4430Y32692D01*
X4496Y32779D01*
X4538Y32880D01*
X4546Y32938D01*
D02*
G37*
G36*
X5134Y32387D02*
X5031Y32373D01*
X4935Y32333D01*
X4852Y32270D01*
X4789Y32187D01*
X4749Y32091D01*
X4735Y31988D01*
X4749Y31885D01*
X4789Y31789D01*
X4852Y31707D01*
X4935Y31643D01*
X5031Y31603D01*
X5134Y31590D01*
X5237Y31603D01*
X5333Y31643D01*
X5416Y31707D01*
X5479Y31789D01*
X5519Y31885D01*
X5532Y31988D01*
X5519Y32091D01*
X5479Y32187D01*
X5416Y32270D01*
X5333Y32333D01*
X5237Y32373D01*
X5134Y32387D01*
D02*
G37*
G36*
X4134D02*
X4031Y32373D01*
X3935Y32333D01*
X3852Y32270D01*
X3789Y32187D01*
X3749Y32091D01*
X3735Y31988D01*
X3749Y31885D01*
X3789Y31789D01*
X3852Y31707D01*
X3935Y31643D01*
X4031Y31603D01*
X4134Y31590D01*
X4237Y31603D01*
X4333Y31643D01*
X4416Y31707D01*
X4479Y31789D01*
X4519Y31885D01*
X4532Y31988D01*
X4519Y32091D01*
X4479Y32187D01*
X4416Y32270D01*
X4333Y32333D01*
X4237Y32373D01*
X4134Y32387D01*
D02*
G37*
G36*
X29921Y30812D02*
X29818Y30798D01*
X29722Y30758D01*
X29640Y30695D01*
X29576Y30613D01*
X29536Y30517D01*
X29523Y30413D01*
X29536Y30310D01*
X29576Y30214D01*
X29640Y30132D01*
X29722Y30068D01*
X29818Y30029D01*
X29921Y30015D01*
X30024Y30029D01*
X30120Y30068D01*
X30203Y30132D01*
X30266Y30214D01*
X30306Y30310D01*
X30320Y30413D01*
X30306Y30517D01*
X30266Y30613D01*
X30203Y30695D01*
X30120Y30758D01*
X30024Y30798D01*
X29921Y30812D01*
D02*
G37*
G36*
X28346D02*
X28243Y30798D01*
X28147Y30758D01*
X28065Y30695D01*
X28001Y30613D01*
X27962Y30517D01*
X27948Y30413D01*
X27962Y30310D01*
X28001Y30214D01*
X28065Y30132D01*
X28147Y30068D01*
X28243Y30029D01*
X28346Y30015D01*
X28450Y30029D01*
X28546Y30068D01*
X28628Y30132D01*
X28691Y30214D01*
X28731Y30310D01*
X28745Y30413D01*
X28731Y30517D01*
X28691Y30613D01*
X28628Y30695D01*
X28546Y30758D01*
X28450Y30798D01*
X28346Y30812D01*
D02*
G37*
G36*
X26772D02*
X26669Y30798D01*
X26572Y30758D01*
X26490Y30695D01*
X26427Y30613D01*
X26387Y30517D01*
X26373Y30413D01*
X26387Y30310D01*
X26427Y30214D01*
X26490Y30132D01*
X26572Y30068D01*
X26669Y30029D01*
X26772Y30015D01*
X26875Y30029D01*
X26971Y30068D01*
X27053Y30132D01*
X27117Y30214D01*
X27156Y30310D01*
X27170Y30413D01*
X27156Y30517D01*
X27117Y30613D01*
X27053Y30695D01*
X26971Y30758D01*
X26875Y30798D01*
X26772Y30812D01*
D02*
G37*
G36*
X25197D02*
X25094Y30798D01*
X24998Y30758D01*
X24915Y30695D01*
X24852Y30613D01*
X24812Y30517D01*
X24798Y30413D01*
X24812Y30310D01*
X24852Y30214D01*
X24915Y30132D01*
X24998Y30068D01*
X25094Y30029D01*
X25197Y30015D01*
X25300Y30029D01*
X25396Y30068D01*
X25479Y30132D01*
X25542Y30214D01*
X25582Y30310D01*
X25595Y30413D01*
X25582Y30517D01*
X25542Y30613D01*
X25479Y30695D01*
X25396Y30758D01*
X25300Y30798D01*
X25197Y30812D01*
D02*
G37*
G36*
X23622D02*
X23519Y30798D01*
X23423Y30758D01*
X23340Y30695D01*
X23277Y30613D01*
X23237Y30517D01*
X23224Y30413D01*
X23237Y30310D01*
X23277Y30214D01*
X23340Y30132D01*
X23423Y30068D01*
X23519Y30029D01*
X23622Y30015D01*
X23725Y30029D01*
X23821Y30068D01*
X23904Y30132D01*
X23967Y30214D01*
X24007Y30310D01*
X24020Y30413D01*
X24007Y30517D01*
X23967Y30613D01*
X23904Y30695D01*
X23821Y30758D01*
X23725Y30798D01*
X23622Y30812D01*
D02*
G37*
G36*
X22047D02*
X21944Y30798D01*
X21848Y30758D01*
X21766Y30695D01*
X21702Y30613D01*
X21662Y30517D01*
X21649Y30413D01*
X21662Y30310D01*
X21702Y30214D01*
X21766Y30132D01*
X21848Y30068D01*
X21944Y30029D01*
X22047Y30015D01*
X22150Y30029D01*
X22246Y30068D01*
X22329Y30132D01*
X22392Y30214D01*
X22432Y30310D01*
X22446Y30413D01*
X22432Y30517D01*
X22392Y30613D01*
X22329Y30695D01*
X22246Y30758D01*
X22150Y30798D01*
X22047Y30812D01*
D02*
G37*
G36*
X20472D02*
X20369Y30798D01*
X20273Y30758D01*
X20191Y30695D01*
X20127Y30613D01*
X20088Y30517D01*
X20074Y30413D01*
X20088Y30310D01*
X20127Y30214D01*
X20191Y30132D01*
X20273Y30068D01*
X20369Y30029D01*
X20472Y30015D01*
X20576Y30029D01*
X20672Y30068D01*
X20754Y30132D01*
X20817Y30214D01*
X20857Y30310D01*
X20871Y30413D01*
X20857Y30517D01*
X20817Y30613D01*
X20754Y30695D01*
X20672Y30758D01*
X20576Y30798D01*
X20472Y30812D01*
D02*
G37*
G36*
X18898D02*
X18795Y30798D01*
X18698Y30758D01*
X18616Y30695D01*
X18553Y30613D01*
X18513Y30517D01*
X18499Y30413D01*
X18513Y30310D01*
X18553Y30214D01*
X18616Y30132D01*
X18698Y30068D01*
X18795Y30029D01*
X18898Y30015D01*
X19001Y30029D01*
X19097Y30068D01*
X19179Y30132D01*
X19243Y30214D01*
X19282Y30310D01*
X19296Y30413D01*
X19282Y30517D01*
X19243Y30613D01*
X19179Y30695D01*
X19097Y30758D01*
X19001Y30798D01*
X18898Y30812D01*
D02*
G37*
G36*
X17323D02*
X17220Y30798D01*
X17124Y30758D01*
X17041Y30695D01*
X16978Y30613D01*
X16938Y30517D01*
X16924Y30413D01*
X16938Y30310D01*
X16978Y30214D01*
X17041Y30132D01*
X17124Y30068D01*
X17220Y30029D01*
X17323Y30015D01*
X17426Y30029D01*
X17522Y30068D01*
X17605Y30132D01*
X17668Y30214D01*
X17708Y30310D01*
X17721Y30413D01*
X17708Y30517D01*
X17668Y30613D01*
X17605Y30695D01*
X17522Y30758D01*
X17426Y30798D01*
X17323Y30812D01*
D02*
G37*
G36*
X15748D02*
X15645Y30798D01*
X15549Y30758D01*
X15466Y30695D01*
X15403Y30613D01*
X15363Y30517D01*
X15350Y30413D01*
X15363Y30310D01*
X15403Y30214D01*
X15466Y30132D01*
X15549Y30068D01*
X15645Y30029D01*
X15748Y30015D01*
X15851Y30029D01*
X15947Y30068D01*
X16030Y30132D01*
X16093Y30214D01*
X16133Y30310D01*
X16146Y30413D01*
X16133Y30517D01*
X16093Y30613D01*
X16030Y30695D01*
X15947Y30758D01*
X15851Y30798D01*
X15748Y30812D01*
D02*
G37*
G36*
X14173D02*
X14070Y30798D01*
X13974Y30758D01*
X13892Y30695D01*
X13828Y30613D01*
X13788Y30517D01*
X13775Y30413D01*
X13788Y30310D01*
X13828Y30214D01*
X13892Y30132D01*
X13974Y30068D01*
X14070Y30029D01*
X14173Y30015D01*
X14276Y30029D01*
X14372Y30068D01*
X14455Y30132D01*
X14518Y30214D01*
X14558Y30310D01*
X14572Y30413D01*
X14558Y30517D01*
X14518Y30613D01*
X14455Y30695D01*
X14372Y30758D01*
X14276Y30798D01*
X14173Y30812D01*
D02*
G37*
G36*
X12598D02*
X12495Y30798D01*
X12399Y30758D01*
X12317Y30695D01*
X12253Y30613D01*
X12214Y30517D01*
X12200Y30413D01*
X12214Y30310D01*
X12253Y30214D01*
X12317Y30132D01*
X12399Y30068D01*
X12495Y30029D01*
X12598Y30015D01*
X12702Y30029D01*
X12798Y30068D01*
X12880Y30132D01*
X12943Y30214D01*
X12983Y30310D01*
X12997Y30413D01*
X12983Y30517D01*
X12943Y30613D01*
X12880Y30695D01*
X12798Y30758D01*
X12702Y30798D01*
X12598Y30812D01*
D02*
G37*
G36*
X20464Y28929D02*
X20129D01*
Y28652D01*
X20464D01*
Y28929D01*
D02*
G37*
G36*
X20029D02*
X19693D01*
Y28652D01*
X20029D01*
Y28929D01*
D02*
G37*
G36*
X21261Y28840D02*
X21015D01*
Y28613D01*
X21261D01*
Y28840D01*
D02*
G37*
G36*
X20915D02*
X20668D01*
Y28613D01*
X20915D01*
Y28840D01*
D02*
G37*
G36*
X17470Y28506D02*
X17223D01*
Y28278D01*
X17470D01*
Y28506D01*
D02*
G37*
G36*
X4134Y28875D02*
X4031Y28861D01*
X3935Y28821D01*
X3852Y28758D01*
X3789Y28676D01*
X3749Y28579D01*
X3735Y28476D01*
X3749Y28373D01*
X3789Y28277D01*
X3852Y28195D01*
X3935Y28131D01*
X4031Y28092D01*
X4134Y28078D01*
X4237Y28092D01*
X4333Y28131D01*
X4416Y28195D01*
X4479Y28277D01*
X4519Y28373D01*
X4532Y28476D01*
X4519Y28579D01*
X4479Y28676D01*
X4416Y28758D01*
X4333Y28821D01*
X4237Y28861D01*
X4134Y28875D01*
D02*
G37*
G36*
X17715Y28178D02*
X17570D01*
Y27951D01*
X17817D01*
Y28129D01*
X17795Y28124D01*
X17770Y28117D01*
X17751Y28107D01*
X17735Y28096D01*
X17724Y28083D01*
X17718Y28069D01*
X17715Y28052D01*
Y28178D01*
D02*
G37*
G36*
X17470D02*
X17223D01*
Y27951D01*
X17470D01*
Y28178D01*
D02*
G37*
G36*
X17019Y28139D02*
X16684D01*
Y27965D01*
X16842D01*
X16826Y27963D01*
X16812Y27957D01*
X16799Y27946D01*
X16789Y27932D01*
X16780Y27913D01*
X16772Y27890D01*
X16766Y27863D01*
X17019D01*
X17019Y28139D01*
D02*
G37*
G36*
X16584D02*
X16248D01*
Y27863D01*
X16501D01*
X16496Y27890D01*
X16488Y27913D01*
X16479Y27932D01*
X16468Y27946D01*
X16456Y27957D01*
X16442Y27963D01*
X16426Y27965D01*
X16584D01*
Y28139D01*
D02*
G37*
G36*
X8366Y32834D02*
X7185D01*
X7087Y32814D01*
X7005Y32759D01*
X6217Y31972D01*
X6162Y31889D01*
X6143Y31791D01*
Y30369D01*
X6097Y30350D01*
X5546Y30900D01*
X5543Y30909D01*
X5537Y30927D01*
X5533Y30946D01*
X5531Y30965D01*
X5531Y30977D01*
X5532Y30988D01*
X5519Y31091D01*
X5479Y31187D01*
X5416Y31270D01*
X5333Y31333D01*
X5237Y31373D01*
X5134Y31387D01*
X5031Y31373D01*
X4935Y31333D01*
X4852Y31270D01*
X4845Y31261D01*
X4836Y31253D01*
X4821Y31241D01*
X4805Y31230D01*
X4788Y31221D01*
X4780Y31218D01*
X4526D01*
X4516Y31224D01*
X4512Y31228D01*
X4510Y31230D01*
X4509Y31233D01*
X4509Y31235D01*
Y31363D01*
X3759D01*
Y30613D01*
X4509D01*
Y30742D01*
X4509Y30744D01*
X4510Y30746D01*
X4512Y30749D01*
X4516Y30753D01*
X4526Y30759D01*
X4780D01*
X4788Y30755D01*
X4805Y30746D01*
X4821Y30736D01*
X4836Y30724D01*
X4845Y30716D01*
X4852Y30707D01*
X4935Y30643D01*
X5031Y30603D01*
X5134Y30590D01*
X5145Y30591D01*
X5157Y30591D01*
X5176Y30589D01*
X5195Y30585D01*
X5213Y30579D01*
X5222Y30576D01*
X6133Y29664D01*
X6136Y29659D01*
X6153Y29623D01*
X6167Y29586D01*
X6168Y29580D01*
Y25744D01*
X6165Y25737D01*
X6152Y25722D01*
X6137Y25709D01*
X6130Y25706D01*
X5488D01*
X5479Y25709D01*
X5462Y25719D01*
X5446Y25729D01*
X5431Y25741D01*
X5423Y25749D01*
X5416Y25758D01*
X5333Y25821D01*
X5237Y25861D01*
X5134Y25875D01*
X5031Y25861D01*
X4935Y25821D01*
X4852Y25758D01*
X4845Y25749D01*
X4836Y25741D01*
X4821Y25729D01*
X4805Y25719D01*
X4788Y25709D01*
X4780Y25706D01*
X4526D01*
X4516Y25712D01*
X4512Y25716D01*
X4510Y25718D01*
X4509Y25721D01*
X4509Y25723D01*
Y25852D01*
X3759D01*
Y25101D01*
X4509D01*
Y25230D01*
X4509Y25232D01*
X4510Y25234D01*
X4512Y25237D01*
X4516Y25241D01*
X4526Y25247D01*
X4780D01*
X4788Y25243D01*
X4805Y25234D01*
X4821Y25224D01*
X4836Y25212D01*
X4845Y25204D01*
X4852Y25195D01*
X4935Y25131D01*
X5031Y25092D01*
X5134Y25078D01*
X5237Y25092D01*
X5333Y25131D01*
X5416Y25195D01*
X5423Y25204D01*
X5431Y25212D01*
X5446Y25224D01*
X5462Y25234D01*
X5479Y25243D01*
X5488Y25247D01*
X6130D01*
X6137Y25243D01*
X6152Y25231D01*
X6165Y25216D01*
X6168Y25209D01*
Y20194D01*
X5488D01*
X5479Y20198D01*
X5462Y20207D01*
X5446Y20217D01*
X5431Y20229D01*
X5423Y20237D01*
X5416Y20246D01*
X5333Y20310D01*
X5237Y20349D01*
X5134Y20363D01*
X5031Y20349D01*
X4935Y20310D01*
X4852Y20246D01*
X4845Y20237D01*
X4836Y20229D01*
X4821Y20217D01*
X4805Y20207D01*
X4788Y20198D01*
X4780Y20194D01*
X4526D01*
X4516Y20200D01*
X4512Y20204D01*
X4510Y20206D01*
X4509Y20209D01*
X4509Y20211D01*
Y20340D01*
X3759D01*
Y19589D01*
X4509D01*
Y19718D01*
X4509Y19720D01*
X4510Y19723D01*
X4512Y19725D01*
X4516Y19729D01*
X4526Y19735D01*
X4780D01*
X4788Y19732D01*
X4805Y19722D01*
X4821Y19712D01*
X4836Y19700D01*
X4845Y19692D01*
X4852Y19683D01*
X4935Y19620D01*
X5031Y19580D01*
X5134Y19566D01*
X5237Y19580D01*
X5333Y19620D01*
X5416Y19683D01*
X5423Y19692D01*
X5431Y19700D01*
X5446Y19712D01*
X5462Y19722D01*
X5479Y19732D01*
X5488Y19735D01*
X6168D01*
Y15941D01*
X5566Y15339D01*
X5521Y15365D01*
X5532Y15453D01*
X5519Y15556D01*
X5479Y15652D01*
X5416Y15734D01*
X5333Y15798D01*
X5237Y15838D01*
X5134Y15851D01*
X5031Y15838D01*
X4935Y15798D01*
X4852Y15734D01*
X4789Y15652D01*
X4749Y15556D01*
X4735Y15453D01*
X4749Y15350D01*
X4789Y15254D01*
X4852Y15171D01*
X4935Y15108D01*
X5031Y15068D01*
X5134Y15054D01*
X5222Y15066D01*
X5247Y15021D01*
X5069Y14843D01*
X5031Y14838D01*
X4935Y14798D01*
X4852Y14734D01*
X4832Y14708D01*
X4509D01*
Y14828D01*
X3759D01*
Y14077D01*
X4509D01*
Y14198D01*
X4832D01*
X4852Y14171D01*
X4935Y14108D01*
X5031Y14068D01*
X5134Y14054D01*
X5237Y14068D01*
X5333Y14108D01*
X5416Y14171D01*
X5479Y14254D01*
X5519Y14350D01*
X5522Y14373D01*
X5527Y14381D01*
X5544Y14469D01*
X5527Y14556D01*
X5505Y14590D01*
X5493Y14618D01*
X6560Y15684D01*
X6610Y15759D01*
X6627Y15846D01*
Y19980D01*
Y25476D01*
Y29618D01*
X6633Y29627D01*
X6653Y29724D01*
Y31686D01*
X7291Y32324D01*
X8261D01*
X8505Y32079D01*
Y27854D01*
X8524Y27757D01*
X8580Y27674D01*
X9170Y27084D01*
X9253Y27028D01*
X9350Y27009D01*
X15833D01*
X16414Y26427D01*
X16427Y26405D01*
X16447Y26361D01*
X16464Y26315D01*
X16471Y26291D01*
Y22054D01*
X16490Y21956D01*
X16545Y21874D01*
X17026Y21393D01*
X17041Y21371D01*
X17125Y21315D01*
X17224Y21295D01*
X17324Y21315D01*
X17408Y21371D01*
X17465Y21456D01*
X17484Y21555D01*
X17465Y21655D01*
X17408Y21739D01*
X17387Y21753D01*
X16980Y22160D01*
Y26118D01*
X16996Y26143D01*
X17016Y26164D01*
X17042Y26182D01*
X17075Y26198D01*
X17080Y26199D01*
X19783D01*
X19855Y26208D01*
X19922Y26236D01*
X19980Y26280D01*
X20024Y26338D01*
X20030Y26354D01*
X20061Y26364D01*
X20083Y26368D01*
X20107Y26352D01*
X20138Y26346D01*
X21508D01*
X21540Y26352D01*
X21566Y26369D01*
X21599Y26376D01*
X21654Y26339D01*
X21752Y26320D01*
X22264D01*
X22351Y26337D01*
X22541D01*
Y26812D01*
X22541Y26812D01*
X22542Y26850D01*
X22542Y26862D01*
Y27190D01*
X22581Y27231D01*
X22872D01*
X22912Y27206D01*
X22912Y27181D01*
Y26999D01*
X23209D01*
X23506D01*
Y27181D01*
X23506Y27206D01*
X23545Y27231D01*
X26775D01*
X28578Y25428D01*
X28652Y25379D01*
X28740Y25361D01*
X28920D01*
X28936Y25350D01*
X29035Y25331D01*
X29135Y25350D01*
X29151Y25361D01*
X29707D01*
X29723Y25350D01*
X29823Y25331D01*
X29922Y25350D01*
X30007Y25407D01*
X30036Y25450D01*
X30097Y25452D01*
X30132Y25407D01*
X30214Y25344D01*
X30310Y25304D01*
X30413Y25291D01*
X30516Y25304D01*
X30613Y25344D01*
X30695Y25407D01*
X30758Y25490D01*
X30798Y25586D01*
X30812Y25689D01*
X30798Y25792D01*
X30758Y25888D01*
X30695Y25971D01*
X30613Y26034D01*
X30516Y26074D01*
X30413Y26087D01*
X30310Y26074D01*
X30214Y26034D01*
X30132Y25971D01*
X30068Y25888D01*
X30037Y25812D01*
X29989Y25793D01*
X29978Y25793D01*
X29922Y25831D01*
X29823Y25851D01*
X29729Y25832D01*
X29706Y25846D01*
X29685Y25865D01*
X29689Y25886D01*
X29669Y25985D01*
X29613Y26070D01*
X29529Y26126D01*
X29429Y26146D01*
X29330Y26126D01*
X29245Y26070D01*
X29189Y25985D01*
X29169Y25886D01*
X29173Y25865D01*
X29152Y25846D01*
X29129Y25832D01*
X29035Y25851D01*
X28936Y25831D01*
X28920Y25820D01*
X28835D01*
X27032Y27623D01*
X26958Y27673D01*
X26954Y27673D01*
X26959Y27723D01*
X30515D01*
X30550Y27689D01*
X30521Y27647D01*
X30516Y27649D01*
X30413Y27662D01*
X30310Y27649D01*
X30214Y27609D01*
X30132Y27545D01*
X30068Y27463D01*
X30029Y27367D01*
X30015Y27264D01*
X30029Y27161D01*
X30068Y27065D01*
X30132Y26982D01*
X30214Y26919D01*
X30310Y26879D01*
X30413Y26865D01*
X30516Y26879D01*
X30613Y26919D01*
X30695Y26982D01*
X30758Y27065D01*
X30798Y27161D01*
X30812Y27264D01*
X30798Y27367D01*
X30796Y27372D01*
X30839Y27400D01*
X31365Y26873D01*
Y22339D01*
X30810Y21785D01*
X30118D01*
X30030Y21767D01*
X29956Y21717D01*
X29531Y21292D01*
X25295D01*
X25207Y21275D01*
X25133Y21225D01*
X23640Y19732D01*
X23621Y19728D01*
X23537Y19672D01*
X23480Y19588D01*
X23460Y19488D01*
X23480Y19389D01*
X23537Y19304D01*
X23607Y19258D01*
X23765Y19046D01*
X23776Y18995D01*
X23832Y18911D01*
X23916Y18854D01*
X24016Y18835D01*
X24115Y18854D01*
X24200Y18911D01*
X24256Y18995D01*
X24276Y19094D01*
X24256Y19194D01*
X24200Y19278D01*
X24129Y19325D01*
X24023Y19467D01*
X25390Y20834D01*
X29626D01*
X29714Y20851D01*
X29788Y20901D01*
X29988Y21101D01*
X30031Y21072D01*
X30029Y21068D01*
X30015Y20965D01*
X30029Y20861D01*
X30068Y20765D01*
X30132Y20683D01*
X30214Y20620D01*
X30310Y20580D01*
X30413Y20566D01*
X30516Y20580D01*
X30613Y20620D01*
X30695Y20683D01*
X30758Y20765D01*
X30798Y20861D01*
X30812Y20965D01*
X30798Y21068D01*
X30758Y21164D01*
X30695Y21246D01*
X30657Y21276D01*
X30674Y21326D01*
X30906D01*
X30993Y21343D01*
X31068Y21393D01*
X31757Y22082D01*
X31806Y22156D01*
X31807Y22160D01*
X31857Y22155D01*
Y21650D01*
X30515Y20308D01*
X28762D01*
X28727Y20361D01*
X28643Y20417D01*
X28564Y20433D01*
X28486Y20537D01*
X28477Y20584D01*
X28421Y20668D01*
X28336Y20724D01*
X28237Y20744D01*
X28137Y20724D01*
X28053Y20668D01*
X27996Y20584D01*
X27979Y20496D01*
X27932Y20433D01*
X27853Y20417D01*
X27769Y20361D01*
X27713Y20277D01*
X27693Y20177D01*
X27713Y20078D01*
X27726Y20057D01*
X27726Y20046D01*
X27735Y20019D01*
X27741Y19991D01*
X27750Y19977D01*
X27755Y19962D01*
X27775Y19940D01*
X27791Y19917D01*
X27804Y19907D01*
X27815Y19895D01*
X27841Y19883D01*
X27865Y19867D01*
X27881Y19864D01*
X27896Y19857D01*
X27925Y19855D01*
X27953Y19849D01*
X30610D01*
X30698Y19867D01*
X30772Y19917D01*
X32249Y21393D01*
X32299Y21467D01*
X32316Y21555D01*
Y28051D01*
X32299Y28139D01*
X32249Y28213D01*
X30871Y29591D01*
X30796Y29641D01*
X30709Y29659D01*
X30118D01*
X30030Y29641D01*
X29956Y29591D01*
X29039Y28674D01*
X21654Y28674D01*
X21566Y28657D01*
X21491Y28607D01*
X21308Y28423D01*
X21261Y28443D01*
Y28513D01*
X20668D01*
Y28306D01*
X20464D01*
Y28552D01*
X19666D01*
X19646Y28536D01*
X19577D01*
X19568Y28543D01*
Y28820D01*
X18979D01*
Y29035D01*
X18979Y29035D01*
X18973Y29067D01*
X18955Y29093D01*
X18955Y29093D01*
X18168Y29881D01*
X18168Y29881D01*
X18141Y29898D01*
X18110Y29904D01*
X18110Y29904D01*
X9350D01*
X9319Y29898D01*
X9293Y29881D01*
X9275Y29854D01*
X9269Y29823D01*
Y28051D01*
X9275Y28020D01*
X9293Y27994D01*
X9319Y27976D01*
X9350Y27970D01*
X10925Y27970D01*
X10925Y27970D01*
X10956Y27976D01*
X10983Y27994D01*
X10983Y27994D01*
X11550Y28560D01*
X16226D01*
X16236Y28559D01*
X16248Y28515D01*
X16248Y28511D01*
X16248Y28478D01*
Y28239D01*
X16634D01*
X17019D01*
Y28510D01*
X17019Y28515D01*
X17032Y28559D01*
X17041Y28560D01*
X17223D01*
X17254Y28566D01*
X17281Y28584D01*
X17292Y28601D01*
X17322D01*
X17324Y28601D01*
X17326Y28601D01*
X17713D01*
X17715Y28601D01*
X17717Y28601D01*
X17746D01*
X17759Y28582D01*
X17759Y28582D01*
X17786Y28556D01*
X17765Y28506D01*
X17570D01*
Y28278D01*
X17715D01*
Y28404D01*
X17718Y28396D01*
X17724Y28388D01*
X17735Y28381D01*
X17751Y28375D01*
X17770Y28370D01*
X17795Y28365D01*
X17817Y28363D01*
Y28454D01*
X17867Y28475D01*
X17903Y28439D01*
X17903Y28439D01*
X17929Y28421D01*
X17960Y28415D01*
X18010Y28378D01*
Y28362D01*
X18111Y28365D01*
Y28298D01*
X18327D01*
Y28198D01*
X18111D01*
Y28131D01*
X18109Y28132D01*
X18103Y28134D01*
X18092Y28135D01*
X18032Y28137D01*
X18010Y28137D01*
Y28030D01*
X18030D01*
Y27676D01*
X18030D01*
X18032Y27674D01*
X18029Y27656D01*
Y27461D01*
X18035Y27429D01*
X18053Y27403D01*
X18079Y27385D01*
X18110Y27379D01*
X18153D01*
X18166Y27362D01*
Y26781D01*
X18144Y26754D01*
X16918D01*
X16877Y26764D01*
X16826Y26781D01*
X16777Y26801D01*
X16742Y26820D01*
X16118Y27444D01*
X16036Y27499D01*
X15938Y27519D01*
X15858D01*
X15851Y27568D01*
X15947Y27608D01*
X16030Y27671D01*
X16093Y27754D01*
X16133Y27850D01*
X16146Y27953D01*
X16133Y28056D01*
X16093Y28152D01*
X16030Y28234D01*
X15947Y28298D01*
X15851Y28338D01*
X15748Y28351D01*
X15645Y28338D01*
X15549Y28298D01*
X15466Y28234D01*
X15403Y28152D01*
X15363Y28056D01*
X15350Y27953D01*
X15363Y27850D01*
X15403Y27754D01*
X15466Y27671D01*
X15549Y27608D01*
X15645Y27568D01*
X15638Y27519D01*
X9456D01*
X9015Y27960D01*
Y32185D01*
X8995Y32283D01*
X8940Y32365D01*
X8546Y32759D01*
X8464Y32814D01*
X8366Y32834D01*
D02*
G37*
G36*
X4184Y27888D02*
Y27526D01*
X4546D01*
X4538Y27585D01*
X4496Y27686D01*
X4430Y27772D01*
X4343Y27839D01*
X4242Y27881D01*
X4184Y27888D01*
D02*
G37*
G36*
X5529Y27872D02*
X5184D01*
Y27526D01*
X5529D01*
Y27872D01*
D02*
G37*
G36*
X5084D02*
X4739D01*
Y27526D01*
X5084D01*
Y27872D01*
D02*
G37*
G36*
X4084Y27888D02*
X4026Y27881D01*
X3925Y27839D01*
X3838Y27772D01*
X3771Y27686D01*
X3730Y27585D01*
X3722Y27526D01*
X4084D01*
Y27888D01*
D02*
G37*
G36*
X5529Y27426D02*
X5184D01*
Y27081D01*
X5529D01*
Y27426D01*
D02*
G37*
G36*
X5084D02*
X4739D01*
Y27081D01*
X5084D01*
Y27426D01*
D02*
G37*
G36*
X4546D02*
X4184D01*
Y27064D01*
X4242Y27072D01*
X4343Y27114D01*
X4430Y27180D01*
X4496Y27267D01*
X4538Y27368D01*
X4546Y27426D01*
D02*
G37*
G36*
X4084D02*
X3722D01*
X3730Y27368D01*
X3771Y27267D01*
X3838Y27180D01*
X3925Y27114D01*
X4026Y27072D01*
X4084Y27064D01*
Y27426D01*
D02*
G37*
G36*
X24401Y27157D02*
X24066D01*
Y26881D01*
X24401D01*
Y27157D01*
D02*
G37*
G36*
X23966D02*
X23630D01*
Y26881D01*
X23966D01*
Y27157D01*
D02*
G37*
G36*
X25198Y26970D02*
X24952D01*
Y26743D01*
X25198D01*
Y26970D01*
D02*
G37*
G36*
X24852D02*
X24605D01*
Y26743D01*
X24852D01*
Y26970D01*
D02*
G37*
G36*
X23506Y26899D02*
X23259D01*
Y26691D01*
X23506D01*
Y26899D01*
D02*
G37*
G36*
X23159D02*
X22912D01*
Y26691D01*
X23159D01*
Y26899D01*
D02*
G37*
G36*
X24401Y26781D02*
X24066D01*
Y26504D01*
X24401D01*
Y26781D01*
D02*
G37*
G36*
X23966D02*
X23630D01*
Y26504D01*
X23966D01*
Y26781D01*
D02*
G37*
G36*
X25198Y26643D02*
X24952D01*
Y26416D01*
X25198D01*
Y26643D01*
D02*
G37*
G36*
X24852D02*
X24605D01*
Y26416D01*
X24852D01*
Y26643D01*
D02*
G37*
G36*
X5134Y26875D02*
X5031Y26861D01*
X4935Y26821D01*
X4852Y26758D01*
X4789Y26676D01*
X4749Y26579D01*
X4735Y26476D01*
X4749Y26373D01*
X4789Y26277D01*
X4852Y26195D01*
X4935Y26131D01*
X5031Y26092D01*
X5134Y26078D01*
X5237Y26092D01*
X5333Y26131D01*
X5416Y26195D01*
X5479Y26277D01*
X5519Y26373D01*
X5532Y26476D01*
X5519Y26579D01*
X5479Y26676D01*
X5416Y26758D01*
X5333Y26821D01*
X5237Y26861D01*
X5134Y26875D01*
D02*
G37*
G36*
X4134D02*
X4031Y26861D01*
X3935Y26821D01*
X3852Y26758D01*
X3789Y26676D01*
X3749Y26579D01*
X3735Y26476D01*
X3749Y26373D01*
X3789Y26277D01*
X3852Y26195D01*
X3935Y26131D01*
X4031Y26092D01*
X4134Y26078D01*
X4237Y26092D01*
X4333Y26131D01*
X4416Y26195D01*
X4479Y26277D01*
X4519Y26373D01*
X4532Y26476D01*
X4519Y26579D01*
X4479Y26676D01*
X4416Y26758D01*
X4333Y26821D01*
X4237Y26861D01*
X4134Y26875D01*
D02*
G37*
G36*
X15748Y26776D02*
X15645Y26763D01*
X15549Y26723D01*
X15466Y26660D01*
X15403Y26577D01*
X15363Y26481D01*
X15350Y26378D01*
X15363Y26275D01*
X15403Y26179D01*
X15466Y26096D01*
X15549Y26033D01*
X15645Y25993D01*
X15748Y25980D01*
X15851Y25993D01*
X15947Y26033D01*
X16030Y26096D01*
X16093Y26179D01*
X16133Y26275D01*
X16146Y26378D01*
X16133Y26481D01*
X16093Y26577D01*
X16030Y26660D01*
X15947Y26723D01*
X15851Y26763D01*
X15748Y26776D01*
D02*
G37*
G36*
Y25202D02*
X15645Y25188D01*
X15549Y25148D01*
X15466Y25085D01*
X15403Y25002D01*
X15363Y24906D01*
X15350Y24803D01*
X15363Y24700D01*
X15403Y24604D01*
X15466Y24521D01*
X15549Y24458D01*
X15645Y24418D01*
X15748Y24405D01*
X15851Y24418D01*
X15947Y24458D01*
X16030Y24521D01*
X16093Y24604D01*
X16133Y24700D01*
X16146Y24803D01*
X16133Y24906D01*
X16093Y25002D01*
X16030Y25085D01*
X15947Y25148D01*
X15851Y25188D01*
X15748Y25202D01*
D02*
G37*
G36*
X30413Y24513D02*
X30310Y24499D01*
X30214Y24459D01*
X30132Y24396D01*
X30068Y24313D01*
X30029Y24217D01*
X30015Y24114D01*
X30029Y24011D01*
X30068Y23915D01*
X30132Y23832D01*
X30214Y23769D01*
X30310Y23729D01*
X30413Y23716D01*
X30516Y23729D01*
X30613Y23769D01*
X30695Y23832D01*
X30758Y23915D01*
X30798Y24011D01*
X30812Y24114D01*
X30798Y24217D01*
X30758Y24313D01*
X30695Y24396D01*
X30613Y24459D01*
X30516Y24499D01*
X30413Y24513D01*
D02*
G37*
G36*
X15748Y23430D02*
X15645Y23416D01*
X15549Y23377D01*
X15466Y23313D01*
X15403Y23231D01*
X15363Y23135D01*
X15350Y23031D01*
X15363Y22928D01*
X15403Y22832D01*
X15466Y22750D01*
X15549Y22687D01*
X15645Y22647D01*
X15748Y22633D01*
X15851Y22647D01*
X15947Y22687D01*
X16030Y22750D01*
X16093Y22832D01*
X16133Y22928D01*
X16146Y23031D01*
X16133Y23135D01*
X16093Y23231D01*
X16030Y23313D01*
X15947Y23377D01*
X15851Y23416D01*
X15748Y23430D01*
D02*
G37*
G36*
X4134Y23363D02*
X4031Y23349D01*
X3935Y23310D01*
X3852Y23246D01*
X3789Y23164D01*
X3749Y23068D01*
X3735Y22965D01*
X3749Y22861D01*
X3789Y22765D01*
X3852Y22683D01*
X3935Y22620D01*
X4031Y22580D01*
X4134Y22566D01*
X4237Y22580D01*
X4333Y22620D01*
X4416Y22683D01*
X4479Y22765D01*
X4519Y22861D01*
X4532Y22965D01*
X4519Y23068D01*
X4479Y23164D01*
X4416Y23246D01*
X4333Y23310D01*
X4237Y23349D01*
X4134Y23363D01*
D02*
G37*
G36*
X20571Y22406D02*
X20471Y22386D01*
X20387Y22330D01*
X20383Y22324D01*
X20276D01*
X20276Y22324D01*
X20207Y22311D01*
X20149Y22272D01*
X17150Y19273D01*
X14961D01*
X14892Y19259D01*
X14834Y19221D01*
X14834Y19221D01*
X14244Y18630D01*
X14205Y18572D01*
X14192Y18504D01*
X14192Y18504D01*
Y18101D01*
X14186Y18097D01*
X14130Y18013D01*
X14110Y17913D01*
X14130Y17814D01*
X14186Y17730D01*
X14271Y17673D01*
X14370Y17653D01*
X14470Y17673D01*
X14554Y17730D01*
X14579Y17767D01*
X14608D01*
X14634Y17749D01*
X14665Y17743D01*
X14734D01*
X14765Y17749D01*
X14792Y17767D01*
X14810Y17794D01*
X14816Y17825D01*
X14816Y17825D01*
X14866Y17842D01*
X14876Y17829D01*
X14958Y17765D01*
X15054Y17725D01*
X15157Y17712D01*
X15261Y17725D01*
X15357Y17765D01*
X15385Y17787D01*
X15433Y17761D01*
X15436Y17744D01*
X15454Y17718D01*
X15481Y17700D01*
X15512Y17694D01*
X15581D01*
X15612Y17700D01*
X15638Y17718D01*
X15656Y17744D01*
X15657Y17751D01*
X15710Y17761D01*
X15732Y17730D01*
X15816Y17673D01*
X15915Y17653D01*
X16015Y17673D01*
X16099Y17730D01*
X16156Y17814D01*
X16205Y17805D01*
X16220Y17802D01*
X16289D01*
X16321Y17809D01*
X16347Y17826D01*
X16365Y17853D01*
X16366Y17857D01*
X16419Y17870D01*
X16451Y17829D01*
X16533Y17765D01*
X16629Y17725D01*
X16732Y17712D01*
X16835Y17725D01*
X16931Y17765D01*
X16966Y17792D01*
X17029Y17777D01*
X17029Y17777D01*
X17055Y17759D01*
X17087Y17753D01*
X17156D01*
X17187Y17759D01*
X17213Y17777D01*
X17214Y17778D01*
X17273Y17779D01*
X17306Y17730D01*
X17391Y17673D01*
X17490Y17653D01*
X17590Y17673D01*
X17674Y17730D01*
X17693Y17757D01*
X17718D01*
X17744Y17740D01*
X17776Y17733D01*
X17844D01*
X17876Y17740D01*
X17902Y17757D01*
X17920Y17784D01*
X17926Y17815D01*
Y17876D01*
X17944Y17888D01*
X17975Y17894D01*
X18025Y17829D01*
X18108Y17765D01*
X18204Y17725D01*
X18307Y17712D01*
X18410Y17725D01*
X18506Y17765D01*
X18531Y17784D01*
X18593Y17769D01*
X18594Y17767D01*
X18620Y17749D01*
X18652Y17743D01*
X18720D01*
X18752Y17749D01*
X18778Y17767D01*
X18787Y17780D01*
X18831Y17787D01*
X18845Y17784D01*
X18881Y17730D01*
X18965Y17673D01*
X19065Y17653D01*
X19164Y17673D01*
X19249Y17730D01*
X19293Y17796D01*
X19319Y17779D01*
X19350Y17773D01*
X19419D01*
X19451Y17779D01*
X19477Y17797D01*
X19495Y17823D01*
X19501Y17854D01*
Y17876D01*
X19551Y17893D01*
X19600Y17829D01*
X19683Y17765D01*
X19779Y17725D01*
X19882Y17712D01*
X19985Y17725D01*
X20081Y17765D01*
X20097Y17778D01*
X20145Y17766D01*
X20155Y17759D01*
X20169Y17738D01*
X20195Y17720D01*
X20226Y17714D01*
X20295D01*
X20326Y17720D01*
X20353Y17738D01*
X20371Y17764D01*
X20371Y17766D01*
X20424Y17777D01*
X20456Y17730D01*
X20540Y17673D01*
X20640Y17653D01*
X20739Y17673D01*
X20824Y17730D01*
X20880Y17814D01*
X20900Y17913D01*
X20880Y18013D01*
X20852Y18054D01*
X20850Y18061D01*
X20848Y18064D01*
Y20005D01*
X21386Y20543D01*
X21386Y20543D01*
X21425Y20601D01*
X21438Y20669D01*
Y20679D01*
X21444Y20682D01*
X21500Y20767D01*
X21520Y20866D01*
X21500Y20966D01*
X21444Y21050D01*
X21359Y21106D01*
X21260Y21126D01*
X21160Y21106D01*
X21076Y21050D01*
X21044Y21002D01*
X20984D01*
X20952Y21050D01*
X20867Y21106D01*
X20768Y21126D01*
X20668Y21106D01*
X20584Y21050D01*
X20552Y21002D01*
X20492D01*
X20459Y21050D01*
X20375Y21106D01*
X20276Y21126D01*
X20176Y21106D01*
X20092Y21050D01*
X20088Y21045D01*
X19990D01*
X19974Y21067D01*
X19967Y21093D01*
X20187Y21313D01*
X20276Y21295D01*
X20375Y21315D01*
X20459Y21371D01*
X20516Y21456D01*
X20536Y21555D01*
X20516Y21655D01*
X20459Y21739D01*
X20375Y21795D01*
X20276Y21815D01*
X20262Y21813D01*
X20239Y21857D01*
X20338Y21956D01*
X20387Y21962D01*
X20471Y21905D01*
X20571Y21886D01*
X20670Y21905D01*
X20755Y21962D01*
X20811Y22046D01*
X20831Y22146D01*
X20811Y22245D01*
X20755Y22330D01*
X20670Y22386D01*
X20571Y22406D01*
D02*
G37*
G36*
X30413Y23036D02*
X30310Y23023D01*
X30214Y22983D01*
X30132Y22919D01*
X30068Y22837D01*
X30029Y22741D01*
X30015Y22638D01*
X30029Y22535D01*
X30068Y22439D01*
X30132Y22356D01*
X30214Y22293D01*
X30310Y22253D01*
X30413Y22239D01*
X30516Y22253D01*
X30613Y22293D01*
X30695Y22356D01*
X30758Y22439D01*
X30798Y22535D01*
X30812Y22638D01*
X30798Y22741D01*
X30758Y22837D01*
X30695Y22919D01*
X30613Y22983D01*
X30516Y23023D01*
X30413Y23036D01*
D02*
G37*
G36*
X4184Y22377D02*
Y22015D01*
X4546D01*
X4538Y22073D01*
X4496Y22174D01*
X4430Y22261D01*
X4343Y22327D01*
X4242Y22369D01*
X4184Y22377D01*
D02*
G37*
G36*
X5529Y22360D02*
X5184D01*
Y22015D01*
X5529D01*
Y22360D01*
D02*
G37*
G36*
X5084D02*
X4739D01*
Y22015D01*
X5084D01*
Y22360D01*
D02*
G37*
G36*
X4084Y22377D02*
X4026Y22369D01*
X3925Y22327D01*
X3838Y22261D01*
X3771Y22174D01*
X3730Y22073D01*
X3722Y22015D01*
X4084D01*
Y22377D01*
D02*
G37*
G36*
X22933Y26558D02*
X22902Y26552D01*
X22875Y26534D01*
X22858Y26508D01*
X22852Y26476D01*
X22852Y25886D01*
X22858Y25855D01*
X22875Y25828D01*
X22887Y25821D01*
X22872Y25771D01*
X18898Y25771D01*
X18866Y25764D01*
X18840Y25747D01*
X18840Y25747D01*
X17265Y24172D01*
X17247Y24145D01*
X17241Y24114D01*
X17241Y24114D01*
X17241Y23720D01*
X17247Y23689D01*
X17265Y23663D01*
X17292Y23645D01*
X17323Y23639D01*
X18405Y23639D01*
X18406Y23639D01*
X18437Y23645D01*
X18463Y23663D01*
X19719Y24918D01*
X24966Y24918D01*
X28092Y21793D01*
X28118Y21775D01*
X28150Y21769D01*
X28150Y21769D01*
X29232Y21769D01*
X29232Y21769D01*
X29263Y21775D01*
X29290Y21793D01*
X29782Y22285D01*
X29800Y22311D01*
X29806Y22343D01*
X29806Y22343D01*
X29806Y22602D01*
X29806Y22602D01*
X29800Y22634D01*
X29782Y22660D01*
X29747Y22695D01*
X29720Y22713D01*
X29689Y22719D01*
X29689Y22719D01*
X28577D01*
X28323Y22973D01*
X28325Y22993D01*
X28337Y23031D01*
X28355Y23043D01*
X28373Y23069D01*
X28379Y23100D01*
Y23917D01*
X28393Y23934D01*
X29724Y23934D01*
X29756Y23940D01*
X29782Y23958D01*
X29800Y23985D01*
X29806Y24016D01*
X29806Y24409D01*
X29806Y24409D01*
X29800Y24441D01*
X29782Y24467D01*
X29782Y24467D01*
X29388Y24861D01*
X29388Y24861D01*
X29362Y24879D01*
X29331Y24885D01*
X29331Y24885D01*
X28380Y24885D01*
X26928Y26337D01*
X26901Y26355D01*
X26870Y26361D01*
X26870Y26361D01*
X24381Y26361D01*
Y26428D01*
X23650D01*
Y26428D01*
X23607Y26410D01*
X23483Y26534D01*
X23483Y26534D01*
X23456Y26552D01*
X23425Y26558D01*
X23425Y26558D01*
X22933Y26558D01*
D02*
G37*
G36*
X5529Y21915D02*
X5184D01*
Y21569D01*
X5529D01*
Y21915D01*
D02*
G37*
G36*
X5084D02*
X4739D01*
Y21569D01*
X5084D01*
Y21915D01*
D02*
G37*
G36*
X4546D02*
X4184D01*
Y21553D01*
X4242Y21560D01*
X4343Y21602D01*
X4430Y21669D01*
X4496Y21755D01*
X4538Y21856D01*
X4546Y21915D01*
D02*
G37*
G36*
X4084D02*
X3722D01*
X3730Y21856D01*
X3771Y21755D01*
X3838Y21669D01*
X3925Y21602D01*
X4026Y21560D01*
X4084Y21553D01*
Y21915D01*
D02*
G37*
G36*
X5134Y21363D02*
X5031Y21349D01*
X4935Y21310D01*
X4852Y21246D01*
X4789Y21164D01*
X4749Y21068D01*
X4735Y20965D01*
X4749Y20861D01*
X4789Y20765D01*
X4852Y20683D01*
X4935Y20620D01*
X5031Y20580D01*
X5134Y20566D01*
X5237Y20580D01*
X5333Y20620D01*
X5416Y20683D01*
X5479Y20765D01*
X5519Y20861D01*
X5532Y20965D01*
X5519Y21068D01*
X5479Y21164D01*
X5416Y21246D01*
X5333Y21310D01*
X5237Y21349D01*
X5134Y21363D01*
D02*
G37*
G36*
X4134D02*
X4031Y21349D01*
X3935Y21310D01*
X3852Y21246D01*
X3789Y21164D01*
X3749Y21068D01*
X3735Y20965D01*
X3749Y20861D01*
X3789Y20765D01*
X3852Y20683D01*
X3935Y20620D01*
X4031Y20580D01*
X4134Y20566D01*
X4237Y20580D01*
X4333Y20620D01*
X4416Y20683D01*
X4479Y20765D01*
X4519Y20861D01*
X4532Y20965D01*
X4519Y21068D01*
X4479Y21164D01*
X4416Y21246D01*
X4333Y21310D01*
X4237Y21349D01*
X4134Y21363D01*
D02*
G37*
G36*
X30413Y19788D02*
X30310Y19775D01*
X30214Y19735D01*
X30132Y19671D01*
X30068Y19589D01*
X30029Y19493D01*
X30015Y19390D01*
X30029Y19287D01*
X30068Y19191D01*
X30132Y19108D01*
X30214Y19045D01*
X30310Y19005D01*
X30413Y18991D01*
X30516Y19005D01*
X30613Y19045D01*
X30695Y19108D01*
X30758Y19191D01*
X30798Y19287D01*
X30812Y19390D01*
X30798Y19493D01*
X30758Y19589D01*
X30695Y19671D01*
X30613Y19735D01*
X30516Y19775D01*
X30413Y19788D01*
D02*
G37*
G36*
X27756Y18509D02*
X27653Y18495D01*
X27557Y18455D01*
X27474Y18392D01*
X27411Y18309D01*
X27371Y18213D01*
X27358Y18110D01*
X27371Y18007D01*
X27411Y17911D01*
X27474Y17829D01*
X27557Y17765D01*
X27653Y17725D01*
X27756Y17712D01*
X27859Y17725D01*
X27955Y17765D01*
X28038Y17829D01*
X28101Y17911D01*
X28141Y18007D01*
X28154Y18110D01*
X28141Y18213D01*
X28101Y18309D01*
X28038Y18392D01*
X27955Y18455D01*
X27859Y18495D01*
X27756Y18509D01*
D02*
G37*
G36*
X26181D02*
X26078Y18495D01*
X25982Y18455D01*
X25899Y18392D01*
X25836Y18309D01*
X25796Y18213D01*
X25783Y18110D01*
X25796Y18007D01*
X25836Y17911D01*
X25899Y17829D01*
X25982Y17765D01*
X26078Y17725D01*
X26181Y17712D01*
X26284Y17725D01*
X26380Y17765D01*
X26463Y17829D01*
X26526Y17911D01*
X26566Y18007D01*
X26579Y18110D01*
X26566Y18213D01*
X26526Y18309D01*
X26463Y18392D01*
X26380Y18455D01*
X26284Y18495D01*
X26181Y18509D01*
D02*
G37*
G36*
X21457D02*
X21354Y18495D01*
X21258Y18455D01*
X21175Y18392D01*
X21112Y18309D01*
X21072Y18213D01*
X21058Y18110D01*
X21072Y18007D01*
X21112Y17911D01*
X21175Y17829D01*
X21258Y17765D01*
X21354Y17725D01*
X21457Y17712D01*
X21560Y17725D01*
X21656Y17765D01*
X21738Y17829D01*
X21802Y17911D01*
X21841Y18007D01*
X21855Y18110D01*
X21841Y18213D01*
X21802Y18309D01*
X21738Y18392D01*
X21656Y18455D01*
X21560Y18495D01*
X21457Y18509D01*
D02*
G37*
G36*
X13583D02*
X13480Y18495D01*
X13383Y18455D01*
X13301Y18392D01*
X13238Y18309D01*
X13198Y18213D01*
X13184Y18110D01*
X13198Y18007D01*
X13238Y17911D01*
X13301Y17829D01*
X13383Y17765D01*
X13480Y17725D01*
X13583Y17712D01*
X13686Y17725D01*
X13782Y17765D01*
X13864Y17829D01*
X13928Y17911D01*
X13967Y18007D01*
X13981Y18110D01*
X13967Y18213D01*
X13928Y18309D01*
X13864Y18392D01*
X13782Y18455D01*
X13686Y18495D01*
X13583Y18509D01*
D02*
G37*
G36*
X23031Y18509D02*
X22928Y18495D01*
X22832Y18455D01*
X22750Y18392D01*
X22687Y18309D01*
X22647Y18213D01*
X22633Y18110D01*
X22647Y18007D01*
X22687Y17911D01*
X22750Y17829D01*
X22832Y17765D01*
X22928Y17725D01*
X23031Y17712D01*
X23135Y17725D01*
X23231Y17765D01*
X23313Y17829D01*
X23376Y17911D01*
X23416Y18007D01*
X23430Y18110D01*
X23416Y18213D01*
X23376Y18309D01*
X23313Y18392D01*
X23231Y18455D01*
X23135Y18495D01*
X23031Y18509D01*
D02*
G37*
G36*
X24606Y18410D02*
X24503Y18397D01*
X24407Y18357D01*
X24325Y18294D01*
X24261Y18211D01*
X24221Y18115D01*
X24208Y18012D01*
X24221Y17909D01*
X24261Y17813D01*
X24325Y17730D01*
X24407Y17667D01*
X24503Y17627D01*
X24606Y17613D01*
X24709Y17627D01*
X24805Y17667D01*
X24888Y17730D01*
X24951Y17813D01*
X24991Y17909D01*
X25005Y18012D01*
X24991Y18115D01*
X24951Y18211D01*
X24888Y18294D01*
X24805Y18357D01*
X24709Y18397D01*
X24606Y18410D01*
D02*
G37*
G36*
X30413Y18213D02*
X30310Y18200D01*
X30214Y18160D01*
X30132Y18097D01*
X30068Y18014D01*
X30029Y17918D01*
X30015Y17815D01*
X30029Y17712D01*
X30068Y17616D01*
X30132Y17533D01*
X30214Y17470D01*
X30310Y17430D01*
X30413Y17417D01*
X30516Y17430D01*
X30613Y17470D01*
X30695Y17533D01*
X30758Y17616D01*
X30798Y17712D01*
X30812Y17815D01*
X30798Y17918D01*
X30758Y18014D01*
X30695Y18097D01*
X30613Y18160D01*
X30516Y18200D01*
X30413Y18213D01*
D02*
G37*
G36*
X4134Y17851D02*
X4031Y17838D01*
X3935Y17798D01*
X3852Y17734D01*
X3789Y17652D01*
X3749Y17556D01*
X3735Y17453D01*
X3749Y17350D01*
X3789Y17254D01*
X3852Y17171D01*
X3935Y17108D01*
X4031Y17068D01*
X4134Y17054D01*
X4237Y17068D01*
X4333Y17108D01*
X4416Y17171D01*
X4479Y17254D01*
X4519Y17350D01*
X4532Y17453D01*
X4519Y17556D01*
X4479Y17652D01*
X4416Y17734D01*
X4333Y17798D01*
X4237Y17838D01*
X4134Y17851D01*
D02*
G37*
G36*
X4184Y16865D02*
Y16503D01*
X4546D01*
X4538Y16561D01*
X4496Y16662D01*
X4430Y16749D01*
X4343Y16815D01*
X4242Y16857D01*
X4184Y16865D01*
D02*
G37*
G36*
X5529Y16848D02*
X5184D01*
Y16503D01*
X5529D01*
Y16848D01*
D02*
G37*
G36*
X5084D02*
X4739D01*
Y16503D01*
X5084D01*
Y16848D01*
D02*
G37*
G36*
X4084Y16865D02*
X4026Y16857D01*
X3925Y16815D01*
X3838Y16749D01*
X3771Y16662D01*
X3730Y16561D01*
X3722Y16503D01*
X4084D01*
Y16865D01*
D02*
G37*
G36*
X5529Y16403D02*
X5184D01*
Y16057D01*
X5529D01*
Y16403D01*
D02*
G37*
G36*
X5084D02*
X4739D01*
Y16057D01*
X5084D01*
Y16403D01*
D02*
G37*
G36*
X4084D02*
X3722D01*
X3730Y16344D01*
X3771Y16243D01*
X3838Y16157D01*
X3925Y16090D01*
X4026Y16048D01*
X4084Y16041D01*
Y16403D01*
D02*
G37*
G36*
X4546D02*
X4184D01*
Y16041D01*
X4242Y16048D01*
X4343Y16090D01*
X4430Y16157D01*
X4496Y16243D01*
X4538Y16344D01*
X4546Y16403D01*
D02*
G37*
G36*
X30413Y16639D02*
X30310Y16625D01*
X30214Y16585D01*
X30132Y16522D01*
X30068Y16439D01*
X30029Y16343D01*
X30015Y16240D01*
X30029Y16137D01*
X30068Y16041D01*
X30132Y15958D01*
X30214Y15895D01*
X30310Y15855D01*
X30413Y15842D01*
X30516Y15855D01*
X30613Y15895D01*
X30695Y15958D01*
X30758Y16041D01*
X30798Y16137D01*
X30812Y16240D01*
X30798Y16343D01*
X30758Y16439D01*
X30695Y16522D01*
X30613Y16585D01*
X30516Y16625D01*
X30413Y16639D01*
D02*
G37*
G36*
X4134Y15851D02*
X4031Y15838D01*
X3935Y15798D01*
X3852Y15734D01*
X3789Y15652D01*
X3749Y15556D01*
X3735Y15453D01*
X3749Y15350D01*
X3789Y15254D01*
X3852Y15171D01*
X3935Y15108D01*
X4031Y15068D01*
X4134Y15054D01*
X4237Y15068D01*
X4333Y15108D01*
X4416Y15171D01*
X4479Y15254D01*
X4519Y15350D01*
X4532Y15453D01*
X4519Y15556D01*
X4479Y15652D01*
X4416Y15734D01*
X4333Y15798D01*
X4237Y15838D01*
X4134Y15851D01*
D02*
G37*
%LPD*%
G36*
X4429Y31214D02*
X4437Y31193D01*
X4449Y31174D01*
X4467Y31158D01*
X4490Y31144D01*
X4517Y31133D01*
X4550Y31124D01*
X4588Y31118D01*
X4630Y31114D01*
X4666Y31114D01*
X4687Y31114D01*
X4717Y31117D01*
X4746Y31122D01*
X4773Y31128D01*
X4799Y31137D01*
X4824Y31148D01*
X4847Y31160D01*
X4869Y31174D01*
X4890Y31191D01*
X4909Y31209D01*
Y30768D01*
X4890Y30786D01*
X4869Y30802D01*
X4847Y30816D01*
X4824Y30829D01*
X4799Y30839D01*
X4773Y30848D01*
X4746Y30855D01*
X4717Y30859D01*
X4687Y30862D01*
X4666Y30863D01*
X4630Y30862D01*
X4588Y30858D01*
X4550Y30852D01*
X4517Y30843D01*
X4490Y30832D01*
X4467Y30818D01*
X4449Y30802D01*
X4437Y30783D01*
X4429Y30762D01*
X4427Y30738D01*
Y31238D01*
X4429Y31214D01*
D02*
G37*
G36*
X5450Y30959D02*
X5453Y30932D01*
X5458Y30907D01*
X5466Y30881D01*
X5476Y30857D01*
X5488Y30832D01*
X5503Y30808D01*
X5520Y30784D01*
X5539Y30761D01*
X5560Y30739D01*
X5384Y30562D01*
X5361Y30583D01*
X5338Y30602D01*
X5314Y30619D01*
X5290Y30634D01*
X5265Y30646D01*
X5241Y30656D01*
X5215Y30664D01*
X5190Y30669D01*
X5164Y30672D01*
X5137Y30673D01*
X5449Y30985D01*
X5450Y30959D01*
D02*
G37*
G36*
X6398Y29724D02*
X6273Y29423D01*
X6271Y29472D01*
X6266Y29520D01*
X6257Y29566D01*
X6244Y29611D01*
X6228Y29654D01*
X6209Y29696D01*
X6186Y29737D01*
X6159Y29776D01*
X6129Y29813D01*
X6096Y29849D01*
X6071Y30228D01*
X6104Y30197D01*
X6134Y30176D01*
X6161Y30165D01*
X6184Y30163D01*
X6203Y30170D01*
X6219Y30187D01*
X6232Y30214D01*
X6241Y30250D01*
X6246Y30296D01*
X6248Y30351D01*
X6398Y29724D01*
D02*
G37*
G36*
X18898Y29035D02*
X18898Y27461D01*
X18110D01*
Y27656D01*
X18277D01*
Y27874D01*
X18327D01*
Y27924D01*
X18643D01*
Y28092D01*
X18623D01*
Y28404D01*
X18643D01*
Y28572D01*
X18327D01*
X18207D01*
X18111Y28505D01*
X18110Y28520D01*
X18104Y28538D01*
X18096Y28557D01*
X18087Y28572D01*
X18010D01*
Y28517D01*
X17960Y28496D01*
X17817Y28640D01*
Y28760D01*
X17805Y28758D01*
X17778Y28750D01*
X17755Y28740D01*
X17738Y28728D01*
X17725Y28715D01*
X17718Y28699D01*
X17715Y28682D01*
Y28808D01*
X17520D01*
X17324D01*
Y28682D01*
X17322Y28699D01*
X17314Y28715D01*
X17302Y28728D01*
X17284Y28740D01*
X17262Y28750D01*
X17234Y28758D01*
X17223Y28760D01*
Y28642D01*
X17019D01*
Y28759D01*
X17008Y28757D01*
X16981Y28748D01*
X16958Y28737D01*
X16941Y28724D01*
X16928Y28709D01*
X16921Y28691D01*
X16918Y28672D01*
Y28848D01*
X16634D01*
X16350D01*
Y28672D01*
X16347Y28691D01*
X16340Y28709D01*
X16327Y28724D01*
X16310Y28737D01*
X16287Y28748D01*
X16260Y28757D01*
X16248Y28759D01*
Y28642D01*
X11516D01*
X10925Y28051D01*
X9350Y28051D01*
Y29823D01*
X18110D01*
X18898Y29035D01*
D02*
G37*
G36*
X22068Y26419D02*
X22065Y26420D01*
X22056Y26421D01*
X22041Y26422D01*
X21768Y26425D01*
Y26725D01*
X22068Y26731D01*
Y26419D01*
D02*
G37*
G36*
X16594Y26823D02*
X16641Y26787D01*
X16690Y26755D01*
X16742Y26728D01*
X16797Y26704D01*
X16855Y26685D01*
X16915Y26670D01*
X16978Y26660D01*
X17044Y26654D01*
X17113Y26651D01*
X17226Y26301D01*
X17159Y26298D01*
X17100Y26289D01*
X17047Y26274D01*
X17002Y26253D01*
X16963Y26226D01*
X16932Y26193D01*
X16907Y26154D01*
X16890Y26109D01*
X16879Y26058D01*
X16876Y26001D01*
X16576Y26114D01*
X16573Y26173D01*
X16567Y26231D01*
X16556Y26286D01*
X16542Y26340D01*
X16522Y26392D01*
X16499Y26443D01*
X16472Y26491D01*
X16440Y26538D01*
X16404Y26583D01*
X16363Y26626D01*
X16551Y26864D01*
X16594Y26823D01*
D02*
G37*
G36*
X5378Y25679D02*
X5399Y25662D01*
X5421Y25648D01*
X5444Y25636D01*
X5469Y25625D01*
X5495Y25617D01*
X5522Y25610D01*
X5551Y25605D01*
X5581Y25602D01*
X5612Y25601D01*
Y25351D01*
X5581Y25350D01*
X5551Y25348D01*
X5522Y25343D01*
X5495Y25336D01*
X5469Y25328D01*
X5444Y25317D01*
X5421Y25305D01*
X5399Y25290D01*
X5378Y25274D01*
X5359Y25256D01*
Y25697D01*
X5378Y25679D01*
D02*
G37*
G36*
X4429Y25703D02*
X4437Y25681D01*
X4449Y25663D01*
X4467Y25646D01*
X4490Y25633D01*
X4517Y25621D01*
X4550Y25613D01*
X4588Y25606D01*
X4630Y25603D01*
X4666Y25602D01*
X4687Y25602D01*
X4717Y25605D01*
X4746Y25610D01*
X4773Y25617D01*
X4799Y25625D01*
X4824Y25636D01*
X4847Y25648D01*
X4869Y25662D01*
X4890Y25679D01*
X4909Y25697D01*
Y25256D01*
X4890Y25274D01*
X4869Y25290D01*
X4847Y25305D01*
X4824Y25317D01*
X4799Y25328D01*
X4773Y25336D01*
X4746Y25343D01*
X4717Y25348D01*
X4687Y25350D01*
X4666Y25351D01*
X4630Y25350D01*
X4588Y25346D01*
X4550Y25340D01*
X4517Y25331D01*
X4490Y25320D01*
X4467Y25306D01*
X4449Y25290D01*
X4437Y25271D01*
X4429Y25250D01*
X4427Y25226D01*
Y25726D01*
X4429Y25703D01*
D02*
G37*
G36*
X6523Y25476D02*
X6273Y25101D01*
X6270Y25149D01*
X6263Y25191D01*
X6250Y25229D01*
X6233Y25261D01*
X6210Y25289D01*
X6183Y25311D01*
X6150Y25329D01*
X6113Y25341D01*
X6070Y25349D01*
X6023Y25351D01*
Y25601D01*
X6070Y25604D01*
X6113Y25611D01*
X6150Y25624D01*
X6183Y25641D01*
X6210Y25664D01*
X6233Y25691D01*
X6250Y25724D01*
X6263Y25761D01*
X6270Y25804D01*
X6273Y25851D01*
X6523Y25476D01*
D02*
G37*
G36*
X5378Y20167D02*
X5399Y20151D01*
X5421Y20136D01*
X5444Y20124D01*
X5469Y20113D01*
X5495Y20105D01*
X5522Y20098D01*
X5551Y20093D01*
X5581Y20091D01*
X5612Y20090D01*
Y19840D01*
X5581Y19839D01*
X5551Y19836D01*
X5522Y19831D01*
X5495Y19824D01*
X5469Y19816D01*
X5444Y19805D01*
X5421Y19793D01*
X5399Y19778D01*
X5378Y19762D01*
X5359Y19744D01*
Y20185D01*
X5378Y20167D01*
D02*
G37*
G36*
X4429Y20191D02*
X4437Y20170D01*
X4449Y20151D01*
X4467Y20135D01*
X4490Y20121D01*
X4517Y20110D01*
X4550Y20101D01*
X4588Y20095D01*
X4630Y20091D01*
X4666Y20090D01*
X4687Y20091D01*
X4717Y20093D01*
X4746Y20098D01*
X4773Y20105D01*
X4799Y20113D01*
X4824Y20124D01*
X4847Y20136D01*
X4869Y20151D01*
X4890Y20167D01*
X4909Y20185D01*
Y19744D01*
X4890Y19762D01*
X4869Y19778D01*
X4847Y19793D01*
X4824Y19805D01*
X4799Y19816D01*
X4773Y19824D01*
X4746Y19831D01*
X4717Y19836D01*
X4687Y19839D01*
X4666Y19839D01*
X4630Y19838D01*
X4588Y19835D01*
X4550Y19828D01*
X4517Y19820D01*
X4490Y19808D01*
X4467Y19795D01*
X4449Y19778D01*
X4437Y19760D01*
X4429Y19738D01*
X4427Y19715D01*
Y20215D01*
X4429Y20191D01*
D02*
G37*
%LPC*%
G36*
X17019Y29224D02*
X16776D01*
X16779Y29213D01*
X16790Y29185D01*
X16804Y29163D01*
X16820Y29145D01*
X16839Y29133D01*
X16860Y29125D01*
X16884Y29123D01*
X16684D01*
Y28948D01*
X16918D01*
Y29123D01*
X16921Y29104D01*
X16928Y29087D01*
X16941Y29072D01*
X16958Y29059D01*
X16981Y29048D01*
X17008Y29039D01*
X17019Y29036D01*
Y29224D01*
D02*
G37*
G36*
X17385Y29135D02*
X17223D01*
Y29030D01*
X17324Y29034D01*
X17337Y29037D01*
X17349Y29044D01*
X17360Y29057D01*
X17369Y29074D01*
X17377Y29097D01*
X17383Y29124D01*
X17385Y29135D01*
D02*
G37*
G36*
X17817D02*
X17654D01*
X17656Y29124D01*
X17662Y29097D01*
X17670Y29074D01*
X17679Y29057D01*
X17690Y29044D01*
X17702Y29037D01*
X17715Y29034D01*
X17570D01*
Y28908D01*
X17715D01*
Y29034D01*
X17718Y29032D01*
X17725Y29030D01*
X17738Y29028D01*
X17778Y29026D01*
X17817Y29025D01*
Y29135D01*
D02*
G37*
G36*
X16492Y29224D02*
X16248D01*
Y29036D01*
X16260Y29039D01*
X16287Y29048D01*
X16310Y29059D01*
X16327Y29072D01*
X16340Y29087D01*
X16347Y29104D01*
X16350Y29123D01*
Y28948D01*
X16584D01*
Y29123D01*
X16384D01*
X16408Y29125D01*
X16429Y29133D01*
X16448Y29145D01*
X16464Y29163D01*
X16478Y29185D01*
X16489Y29213D01*
X16492Y29224D01*
D02*
G37*
G36*
X17470Y29034D02*
X17324D01*
Y28908D01*
X17470D01*
Y29034D01*
D02*
G37*
G36*
X18037Y28840D02*
X18010D01*
Y28817D01*
X18037Y28840D01*
D02*
G37*
G36*
X18277D02*
X18207D01*
X18253Y28801D01*
X18277Y28783D01*
Y28840D01*
D02*
G37*
G36*
X18643D02*
X18377D01*
Y28731D01*
X18380Y28730D01*
X18404Y28726D01*
X18425Y28729D01*
X18443Y28738D01*
X18377Y28692D01*
Y28672D01*
X18643D01*
Y28840D01*
D02*
G37*
G36*
X18010Y28672D02*
Y28672D01*
X18010D01*
X18010Y28672D01*
D02*
G37*
G36*
X18643Y27824D02*
X18377D01*
Y27656D01*
X18643D01*
Y27824D01*
D02*
G37*
%LPD*%
G36*
X20446Y22023D02*
X20436Y22032D01*
X20425Y22040D01*
X20414Y22047D01*
X20401Y22054D01*
X20388Y22059D01*
X20374Y22063D01*
X20359Y22066D01*
X20343Y22069D01*
X20326Y22070D01*
X20308Y22071D01*
Y22221D01*
X20326Y22221D01*
X20343Y22223D01*
X20359Y22225D01*
X20374Y22228D01*
X20388Y22233D01*
X20401Y22238D01*
X20414Y22244D01*
X20425Y22251D01*
X20436Y22259D01*
X20446Y22268D01*
Y22023D01*
D02*
G37*
G36*
X20204Y21395D02*
X20193Y21399D01*
X20182Y21402D01*
X20170Y21402D01*
X20158Y21401D01*
X20146Y21397D01*
X20133Y21392D01*
X20121Y21385D01*
X20108Y21376D01*
X20095Y21366D01*
X20081Y21353D01*
X20029Y21513D01*
X20042Y21527D01*
X20084Y21574D01*
X20092Y21585D01*
X20105Y21605D01*
X20110Y21614D01*
X20114Y21623D01*
X20204Y21395D01*
D02*
G37*
G36*
X20151Y20744D02*
X20141Y20753D01*
X20130Y20761D01*
X20119Y20768D01*
X20106Y20774D01*
X20093Y20779D01*
X20079Y20784D01*
X20063Y20787D01*
X20047Y20789D01*
X20030Y20791D01*
X20012Y20791D01*
X20012Y20941D01*
X20030Y20942D01*
X20047Y20943D01*
X20063Y20945D01*
X20079Y20949D01*
X20093Y20953D01*
X20106Y20958D01*
X20119Y20964D01*
X20130Y20972D01*
X20141Y20980D01*
X20151Y20989D01*
X20151Y20744D01*
D02*
G37*
G36*
X17566Y18159D02*
X17567Y18142D01*
X17569Y18126D01*
X17573Y18110D01*
X17577Y18096D01*
X17582Y18083D01*
X17588Y18070D01*
X17596Y18059D01*
X17604Y18048D01*
X17613Y18038D01*
X17368D01*
X17377Y18048D01*
X17385Y18059D01*
X17392Y18070D01*
X17398Y18083D01*
X17403Y18096D01*
X17408Y18110D01*
X17411Y18126D01*
X17413Y18142D01*
X17415Y18159D01*
X17415Y18177D01*
X17565D01*
X17566Y18159D01*
D02*
G37*
G36*
X14446D02*
X14447Y18142D01*
X14449Y18126D01*
X14453Y18110D01*
X14457Y18096D01*
X14462Y18083D01*
X14468Y18070D01*
X14475Y18059D01*
X14484Y18048D01*
X14493Y18038D01*
X14248D01*
X14257Y18048D01*
X14265Y18059D01*
X14272Y18070D01*
X14278Y18083D01*
X14283Y18096D01*
X14287Y18110D01*
X14291Y18126D01*
X14293Y18142D01*
X14295Y18159D01*
X14295Y18177D01*
X14445D01*
X14446Y18159D01*
D02*
G37*
G36*
X15997Y18173D02*
X15997Y18156D01*
X15998Y18139D01*
X16001Y18122D01*
X16004Y18107D01*
X16008Y18093D01*
X16013Y18079D01*
X16019Y18067D01*
X16026Y18055D01*
X16034Y18044D01*
X16042Y18034D01*
X15797Y18043D01*
X15807Y18052D01*
X15815Y18063D01*
X15823Y18074D01*
X15829Y18086D01*
X15834Y18099D01*
X15839Y18113D01*
X15842Y18129D01*
X15845Y18145D01*
X15846Y18161D01*
X15847Y18179D01*
X15997Y18173D01*
D02*
G37*
G36*
X20744Y18159D02*
X20745Y18141D01*
X20748Y18108D01*
X20750Y18092D01*
X20754Y18077D01*
X20758Y18064D01*
X20763Y18050D01*
X20768Y18038D01*
X20775Y18027D01*
X20782Y18016D01*
X20540Y18057D01*
X20550Y18065D01*
X20560Y18074D01*
X20568Y18085D01*
X20575Y18096D01*
X20581Y18109D01*
X20586Y18122D01*
X20589Y18137D01*
X20592Y18153D01*
X20594Y18169D01*
X20594Y18187D01*
X20744Y18159D01*
D02*
G37*
G36*
X19169D02*
X19170Y18141D01*
X19173Y18108D01*
X19175Y18092D01*
X19179Y18077D01*
X19183Y18064D01*
X19188Y18050D01*
X19193Y18038D01*
X19200Y18027D01*
X19207Y18016D01*
X18965Y18057D01*
X18976Y18065D01*
X18985Y18074D01*
X18993Y18085D01*
X19000Y18096D01*
X19006Y18109D01*
X19011Y18122D01*
X19015Y18137D01*
X19017Y18153D01*
X19019Y18169D01*
X19019Y18187D01*
X19169Y18159D01*
D02*
G37*
G36*
X23425Y26476D02*
X23622Y26280D01*
X26870Y26280D01*
X28346Y24803D01*
X29331Y24803D01*
X29724Y24409D01*
X29724Y24016D01*
X28051Y24016D01*
X26476Y25591D01*
X25591Y25591D01*
X28543Y22638D01*
X29689D01*
X29724Y22602D01*
X29724Y22343D01*
X29232Y21850D01*
X28150Y21850D01*
X25000Y25000D01*
X19685Y25000D01*
X18406Y23720D01*
X17323Y23720D01*
X17323Y24114D01*
X18898Y25689D01*
X24311Y25689D01*
X24508Y25886D01*
X22933D01*
X22933Y26476D01*
X23425Y26476D01*
D02*
G37*
D11*
X0Y36220D02*
X36220D01*
X-0Y12008D02*
X0Y36220D01*
X36220Y0D02*
X36220Y36220D01*
X-0Y12008D02*
X6705Y12008D01*
X18713Y-0D02*
X36220Y0D01*
X6705Y12008D02*
X18713Y-0D01*
D25*
X16634Y28189D02*
D03*
Y28898D02*
D03*
X20079Y28602D02*
D03*
Y27894D02*
D03*
X24016Y26831D02*
D03*
Y26122D02*
D03*
D26*
X17520Y28228D02*
D03*
Y28858D02*
D03*
X20965Y28563D02*
D03*
Y27933D02*
D03*
X24902Y26063D02*
D03*
Y26693D02*
D03*
D39*
X22264Y26575D02*
D03*
X23209Y26201D02*
D03*
Y26949D02*
D03*
D68*
X20669Y17913D02*
Y20079D01*
X19094Y17913D02*
Y18996D01*
X17738Y7963D02*
X19750D01*
X10850Y14850D02*
X17738Y7963D01*
X17500Y7463D02*
X19250D01*
X10354Y14608D02*
X17500Y7463D01*
X17250Y6963D02*
X19750D01*
X9902Y14310D02*
X17250Y6963D01*
X17000Y6463D02*
X19250D01*
X9350Y14112D02*
X17000Y6463D01*
X9350Y14112D02*
Y15350D01*
X9850Y15850D01*
X9902Y14310D02*
Y14799D01*
X9850Y14850D02*
X9902Y14799D01*
X10354Y14608D02*
Y15354D01*
X10850Y15850D01*
X10699Y15002D02*
X10850Y14850D01*
X19750Y7963D02*
X20250Y7463D01*
X19750Y6963D02*
X20250Y6463D01*
X24750Y5463D02*
X28000Y8713D01*
X20250Y5463D02*
X24750D01*
X19250D02*
X19750Y5963D01*
X24500D01*
X27750Y9213D01*
X24750Y963D02*
X25250Y1463D01*
X29250D01*
X29750Y963D01*
X30250Y1463D01*
X35250D01*
X32250Y10463D02*
X32750Y10963D01*
X30250Y10463D02*
X32250D01*
X29750Y10963D02*
X30250Y10463D01*
X25250D02*
X29270D01*
X29750Y10943D01*
Y10963D01*
X24750D02*
X25250Y10463D01*
X21260Y20669D02*
Y20866D01*
X20669Y20079D02*
X21260Y20669D01*
X20768D02*
Y20866D01*
X19094Y18996D02*
X20768Y20669D01*
X17224Y19094D02*
X20276Y22146D01*
X14961Y19094D02*
X17224D01*
X14370Y18504D02*
X14961Y19094D01*
X17421Y18799D02*
X20177Y21555D01*
X16437Y18799D02*
X17421D01*
X15951Y18313D02*
X16437Y18799D01*
X20276Y22146D02*
X20571D01*
X14370Y17913D02*
Y18504D01*
X20177Y21555D02*
X20276D01*
X15922Y17920D02*
Y18313D01*
X15915Y17913D02*
X15922Y17920D01*
X19980Y20866D02*
X20276D01*
X20276Y20866D01*
X17520Y18406D02*
X19980Y20866D01*
X17490Y17913D02*
Y18406D01*
D69*
X29035Y25591D02*
X29823D01*
X28248Y20472D02*
X28496Y20142D01*
X28151Y20253D02*
X28507Y20095D01*
X28543Y20079D02*
X30610D01*
X28496Y20142D02*
X28543Y20079D01*
X27953D02*
X28543D01*
X28100Y20276D02*
X28137Y20259D01*
X28000Y20142D02*
X28100Y20276D01*
X27953Y20079D02*
X28000Y20142D01*
X20974Y27943D02*
X21457Y27461D01*
X5167Y14616D02*
X5315Y14469D01*
X5167Y14616D02*
X6398Y15846D01*
X28137Y20259D02*
X28151Y20253D01*
X28137Y20259D02*
X28137Y20259D01*
X6398Y15846D02*
Y19980D01*
X28137Y20259D02*
X28137Y20259D01*
X17520Y28898D02*
X17967D01*
X16634D02*
X17520D01*
X32829Y11041D02*
X34671D01*
X25295Y21063D02*
X29626D01*
X23720Y19488D02*
X25295Y21063D01*
X35250Y1463D02*
X35750Y1963D01*
Y10463D01*
X35250Y10963D02*
X35750Y10463D01*
X34750Y10963D02*
X35250D01*
X34671Y11041D02*
X34750Y10963D01*
X32750D02*
X32829Y11041D01*
X21161Y27953D02*
X30610D01*
X21161D02*
X21654Y28445D01*
X6398Y19980D02*
Y25476D01*
X5134Y19965D02*
X6382D01*
X6398Y19980D01*
X16634Y27756D02*
X16634D01*
X16634D02*
Y28189D01*
Y28248D01*
X15846Y28937D02*
X15886Y28898D01*
X16634D01*
Y29528D02*
X16634Y29528D01*
X16634Y28898D02*
Y29528D01*
X17520Y28898D02*
Y29331D01*
Y28858D02*
Y28898D01*
X18242Y28622D02*
X18327D01*
X17967Y28898D02*
X18242Y28622D01*
X6398Y25476D02*
Y29724D01*
X19783Y26772D02*
X20945Y27933D01*
X5134Y30988D02*
X6398Y29724D01*
X5134Y25476D02*
X6398D01*
X4134Y19965D02*
X5134D01*
X4134Y25476D02*
X5134D01*
X4134Y30988D02*
X5134D01*
X20945Y27933D02*
X20965D01*
X31594Y22244D02*
Y26969D01*
X30610Y27953D02*
X31594Y26969D01*
X30118Y29429D02*
X30709D01*
X29134Y28445D02*
X30118Y29429D01*
X21654Y28445D02*
X29134Y28445D01*
X32087Y21555D02*
Y28051D01*
X30709Y29429D02*
X32087Y28051D01*
X26870Y27461D02*
X28740Y25591D01*
X21457Y27461D02*
X26870D01*
X30906Y21555D02*
X31594Y22244D01*
X30118Y21555D02*
X30906D01*
X29626Y21063D02*
X30118Y21555D01*
X30610Y20079D02*
X32087Y21555D01*
X28100Y20276D02*
X28248Y20472D01*
X28740Y25591D02*
X29035D01*
X29035Y25591D01*
X23720Y19488D02*
X24016Y19094D01*
D70*
X19783Y26772D02*
X20079D01*
X22726Y26939D02*
X25581D01*
X8760Y27854D02*
Y32185D01*
X8366Y32579D02*
X8760Y32185D01*
X7185Y32579D02*
X8366D01*
X6398Y31791D02*
X7185Y32579D01*
X6398Y29724D02*
Y31791D01*
X8760Y27854D02*
X9350Y27264D01*
X15938D01*
X16726Y26476D01*
Y22054D02*
X17224Y21555D01*
X16726Y22054D02*
Y26476D01*
X4134Y14453D02*
X5134D01*
X20079Y26772D02*
X20965Y27657D01*
X19783Y26476D02*
X20079Y26772D01*
X19390D02*
X19783Y26476D01*
X20965Y27657D02*
Y27933D01*
Y27362D02*
Y27657D01*
X21752Y26575D02*
X22264D01*
X20965Y27362D02*
X21752Y26575D01*
D71*
X18996Y26476D02*
X19783D01*
X16726D02*
X18996D01*
X19390Y26772D02*
X19783D01*
X18996Y26476D02*
X19390Y26772D01*
D74*
X10750Y8963D02*
X16000Y3713D01*
X10250Y9463D02*
X10750Y8963D01*
X9750Y9963D02*
X10250Y9463D01*
X9250Y10463D02*
X9750Y9963D01*
X8750Y10963D02*
X9250Y10463D01*
X7730Y15850D02*
X7850D01*
X7000Y15120D02*
X7730Y15850D01*
X7000Y13963D02*
Y15120D01*
Y13963D02*
X16500Y4463D01*
X19250D01*
X16000Y3713D02*
X19500D01*
X20250Y4463D01*
D75*
X19250Y5463D02*
D03*
X8850Y14850D02*
D03*
X4134Y28476D02*
D03*
X23031Y18110D02*
D03*
X4134Y32988D02*
D03*
Y31988D02*
D03*
Y27476D02*
D03*
Y26476D02*
D03*
Y16453D02*
D03*
Y15453D02*
D03*
Y21965D02*
D03*
Y20965D02*
D03*
X5134Y30988D02*
D03*
Y31988D02*
D03*
Y25476D02*
D03*
Y26476D02*
D03*
Y14453D02*
D03*
Y15453D02*
D03*
Y19965D02*
D03*
Y20965D02*
D03*
X4134Y33988D02*
D03*
Y17453D02*
D03*
Y22965D02*
D03*
X9850Y14850D02*
D03*
X20250Y6463D02*
D03*
Y7463D02*
D03*
X10850Y14850D02*
D03*
X19250Y6463D02*
D03*
X9850Y15850D02*
D03*
X19250Y7463D02*
D03*
X10850Y15850D02*
D03*
X8850D02*
D03*
X20250Y5463D02*
D03*
X7850Y14850D02*
D03*
X20250Y4463D02*
D03*
X19250D02*
D03*
X7850Y15850D02*
D03*
X15748Y27953D02*
D03*
Y26378D02*
D03*
Y24803D02*
D03*
X15748Y23031D02*
D03*
X13583Y18110D02*
D03*
X15157D02*
D03*
X16732D02*
D03*
X18307D02*
D03*
X19882D02*
D03*
X21457D02*
D03*
X24606Y18012D02*
D03*
X26181Y18110D02*
D03*
X27756D02*
D03*
X30413Y16240D02*
D03*
Y17815D02*
D03*
Y19390D02*
D03*
Y20965D02*
D03*
X30413Y22638D02*
D03*
X30413Y24114D02*
D03*
Y25689D02*
D03*
Y27264D02*
D03*
Y28839D02*
D03*
X29921Y30413D02*
D03*
X28346D02*
D03*
X26772D02*
D03*
X25197D02*
D03*
X23622D02*
D03*
X22047D02*
D03*
X20472D02*
D03*
X18898D02*
D03*
X17323D02*
D03*
X15748D02*
D03*
X14173D02*
D03*
X12598D02*
D03*
D76*
X22750Y884D02*
D03*
Y2041D02*
D03*
X23750Y884D02*
D03*
Y2041D02*
D03*
X24750Y884D02*
D03*
Y2041D02*
D03*
X25750Y884D02*
D03*
Y2041D02*
D03*
X26750Y884D02*
D03*
Y2041D02*
D03*
X27750Y884D02*
D03*
Y2041D02*
D03*
X28750Y884D02*
D03*
Y2041D02*
D03*
X29750Y884D02*
D03*
Y2041D02*
D03*
X30750Y884D02*
D03*
Y2041D02*
D03*
X31750Y884D02*
D03*
Y2041D02*
D03*
X32750Y884D02*
D03*
Y2041D02*
D03*
X33750Y884D02*
D03*
Y2041D02*
D03*
X34750Y884D02*
D03*
Y2041D02*
D03*
X22750Y9884D02*
D03*
Y11041D02*
D03*
X23750Y9884D02*
D03*
Y11041D02*
D03*
X24750Y9884D02*
D03*
Y11041D02*
D03*
X25750Y9884D02*
D03*
Y11041D02*
D03*
X26750Y9884D02*
D03*
Y11041D02*
D03*
X27750Y9884D02*
D03*
Y11041D02*
D03*
X28750Y9884D02*
D03*
Y11041D02*
D03*
X29750Y9884D02*
D03*
Y11041D02*
D03*
X30750Y9884D02*
D03*
Y11041D02*
D03*
X31750Y9884D02*
D03*
Y11041D02*
D03*
X32750Y9884D02*
D03*
Y11041D02*
D03*
D77*
X34750D02*
D03*
D78*
Y9884D02*
D03*
X33750Y11041D02*
D03*
Y9884D02*
D03*
D79*
X4134Y30988D02*
D03*
Y25476D02*
D03*
Y14453D02*
D03*
Y19965D02*
D03*
X5134Y32988D02*
D03*
Y27476D02*
D03*
Y16453D02*
D03*
Y21965D02*
D03*
D80*
X10750Y8963D02*
D03*
X10250Y9463D02*
D03*
X9250Y10463D02*
D03*
X9750Y9963D02*
D03*
X8750Y10963D02*
D03*
X9769Y17692D02*
D03*
X28237Y20484D02*
D03*
X7087Y31496D02*
D03*
Y29921D02*
D03*
Y30709D02*
D03*
X8268Y31102D02*
D03*
X7874Y31496D02*
D03*
X7480Y31890D02*
D03*
X8268D02*
D03*
X7480Y30315D02*
D03*
X28000Y8713D02*
D03*
X27750Y9213D02*
D03*
X17224Y21555D02*
D03*
X7480Y31102D02*
D03*
X7874Y30709D02*
D03*
Y29921D02*
D03*
X8268Y30315D02*
D03*
X9744Y31890D02*
D03*
Y31398D02*
D03*
Y30906D02*
D03*
Y30413D02*
D03*
X3051Y18110D02*
D03*
Y23622D02*
D03*
Y29134D02*
D03*
Y34646D02*
D03*
X17717Y24902D02*
D03*
X20177Y24311D02*
D03*
X17323Y24508D02*
D03*
X9055Y21850D02*
D03*
X13287Y21949D02*
D03*
Y28346D02*
D03*
Y26772D02*
D03*
Y25197D02*
D03*
Y23622D02*
D03*
X17323Y27264D02*
D03*
X17618Y27657D02*
D03*
X12992Y32874D02*
D03*
X14567D02*
D03*
X16142D02*
D03*
X17717D02*
D03*
X19291D02*
D03*
X20866D02*
D03*
X22441D02*
D03*
X24016D02*
D03*
X25591D02*
D03*
X27165D02*
D03*
X28740D02*
D03*
X30315D02*
D03*
X32874Y28445D02*
D03*
Y26870D02*
D03*
Y25295D02*
D03*
Y23720D02*
D03*
Y22146D02*
D03*
Y20571D02*
D03*
Y18996D02*
D03*
Y15846D02*
D03*
Y17421D02*
D03*
X27362Y15650D02*
D03*
X25787D02*
D03*
X24213D02*
D03*
X22608D02*
D03*
X21033D02*
D03*
X19459D02*
D03*
X17884D02*
D03*
X16309D02*
D03*
X13189D02*
D03*
X14764D02*
D03*
X17028Y27657D02*
D03*
X16732Y27264D02*
D03*
X16437Y27657D02*
D03*
X17913Y27264D02*
D03*
X10925Y29232D02*
D03*
Y28642D02*
D03*
X10531Y28346D02*
D03*
X10138Y28642D02*
D03*
X10531Y28937D02*
D03*
Y29528D02*
D03*
X10138Y29232D02*
D03*
X9744Y28346D02*
D03*
Y28937D02*
D03*
Y29528D02*
D03*
X19783Y26476D02*
D03*
X18996D02*
D03*
X19390Y26772D02*
D03*
X18012Y24409D02*
D03*
X17717Y24016D02*
D03*
X18307D02*
D03*
X20276Y21555D02*
D03*
X20571Y22146D02*
D03*
X20276Y20866D02*
D03*
X21260D02*
D03*
X14370Y17913D02*
D03*
X15915D02*
D03*
X17490D02*
D03*
X19065D02*
D03*
X20640D02*
D03*
X20768Y20866D02*
D03*
X29035Y26181D02*
D03*
X29429Y26476D02*
D03*
X29823Y26181D02*
D03*
Y25591D02*
D03*
X29035D02*
D03*
X29429Y25886D02*
D03*
X28642Y22441D02*
D03*
X29429D02*
D03*
X29035Y22146D02*
D03*
X28642Y24213D02*
D03*
X29035Y24508D02*
D03*
X29429Y24213D02*
D03*
X29232Y22933D02*
D03*
Y23720D02*
D03*
X28937Y23327D02*
D03*
X28642Y22933D02*
D03*
Y23720D02*
D03*
X29528Y23327D02*
D03*
X27953Y19488D02*
D03*
X28248Y19094D02*
D03*
X28543Y19488D02*
D03*
X27953Y20177D02*
D03*
X28543D02*
D03*
X24409Y19587D02*
D03*
X24508Y19094D02*
D03*
X23720Y19488D02*
D03*
X24016Y19094D02*
D03*
D81*
X23031Y23524D02*
D03*
X22323Y22815D02*
D03*
X23031D02*
D03*
X23701D02*
D03*
Y23484D02*
D03*
Y24232D02*
D03*
X23031D02*
D03*
X22323D02*
D03*
Y23524D02*
D03*
D82*
X19272Y28622D02*
D03*
Y27874D02*
D03*
X18327Y28622D02*
D03*
Y27874D02*
D03*
Y28248D02*
D03*
D83*
X19350Y27953D02*
X20945D01*
X20965Y27933D01*
D84*
X17520Y28248D02*
X18327D01*
X17520Y27461D02*
Y28228D01*
Y28248D01*
M02*
